<svg width="708px" height="1428px"
 viewBox="0.00 0.00 708.25 1428.40" xmlns="http://www.w3.org/2000/svg" xmlns:xlink="http://www.w3.org/1999/xlink">
<g id="graph0" class="graph" transform="scale(1.0 1.0) rotate(0.0) translate(4.0 1424.4)">
<title>ControlFlowGraph</title>
<polygon fill="white" stroke="transparent" points="-4,4 -4,-1424.4 704.25,-1424.4 704.25,4 -4,4"/>
<!-- entry -->
<g id="node1" class="node">
<title>entry</title>
<ellipse fill="lightblue" stroke="black" cx="133.25" cy="-1402.4" rx="80.85" ry="18"/>
<text text-anchor="middle" x="133.25" y="-1398.8" font-family="Microsoft YaHei" font-size="12.00">入口: calcShortestPath</text>
</g>
<!-- block1 -->
<g id="node2" class="node">
<title>block1</title>
<polygon fill="lightblue" stroke="black" points="217.63,-1347.3 48.87,-1347.3 48.87,-1310.7 217.63,-1310.7 217.63,-1347.3"/>
<text text-anchor="middle" x="133.25" y="-1332.6" font-family="Microsoft YaHei" font-size="12.00">word1 = word1.toLowerCase();</text>
<text text-anchor="middle" x="133.25" y="-1318.2" font-family="Microsoft YaHei" font-size="12.00">检查word1是否在图中</text>
</g>
<!-- entry&#45;&gt;block1 -->
<g id="edge1" class="edge">
<title>entry&#45;&gt;block1</title>
<path fill="none" stroke="black" d="M133.25,-1384.12C133.25,-1376.11 133.25,-1366.39 133.25,-1357.42"/>
<polygon fill="black" stroke="black" points="136.75,-1357.37 133.25,-1347.37 129.75,-1357.37 136.75,-1357.37"/>
</g>
<!-- block2 -->
<g id="node3" class="node">
<title>block2</title>
<polygon fill="pink" stroke="black" points="188.26,-1208.6 0.25,-1208.6 0.25,-1172.6 188.26,-1172.6 188.26,-1208.6"/>
<text text-anchor="middle" x="94.25" y="-1187" font-family="Microsoft YaHei" font-size="12.00">返回错误：起始单词不在图中</text>
</g>
<!-- block1&#45;&gt;block2 -->
<g id="edge2" class="edge">
<title>block1&#45;&gt;block2</title>
<path fill="none" stroke="black" d="M128.24,-1310.45C121.56,-1287.1 109.69,-1245.6 101.9,-1218.34"/>
<polygon fill="black" stroke="black" points="105.25,-1217.31 99.13,-1208.66 98.52,-1219.23 105.25,-1217.31"/>
<text text-anchor="middle" x="128.25" y="-1283.6" font-family="Microsoft YaHei" font-size="10.00">否</text>
</g>
<!-- block3 -->
<g id="node5" class="node">
<title>block3</title>
<polygon fill="lightblue" stroke="black" points="299.06,-1262.6 153.45,-1262.6 153.45,-1226.6 299.06,-1226.6 299.06,-1262.6"/>
<text text-anchor="middle" x="226.25" y="-1241" font-family="Microsoft YaHei" font-size="12.00">检查word2是否为null或空</text>
</g>
<!-- block1&#45;&gt;block3 -->
<g id="edge3" class="edge">
<title>block1&#45;&gt;block3</title>
<path fill="none" stroke="black" d="M152.98,-1310.53C166.38,-1298.65 184.29,-1282.78 199.05,-1269.7"/>
<polygon fill="black" stroke="black" points="201.71,-1272.02 206.88,-1262.77 197.07,-1266.78 201.71,-1272.02"/>
<text text-anchor="middle" x="191.53" y="-1283.6" font-family="Microsoft YaHei" font-size="10.00">是</text>
</g>
<!-- exit -->
<g id="node4" class="node">
<title>exit</title>
<ellipse fill="lightblue" stroke="black" cx="212.25" cy="-18" rx="27" ry="18"/>
<text text-anchor="middle" x="212.25" y="-14.4" font-family="Microsoft YaHei" font-size="12.00">出口</text>
</g>
<!-- block2&#45;&gt;exit -->
<g id="edge4" class="edge">
<title>block2&#45;&gt;exit</title>
<path fill="none" stroke="black" d="M82.23,-1172.5C69.2,-1152.26 50.25,-1117.07 50.25,-1083.6 50.25,-1083.6 50.25,-1083.6 50.25,-90.4 50.25,-36.14 127.3,-22.76 175.13,-19.68"/>
<polygon fill="black" stroke="black" points="175.34,-23.18 185.14,-19.16 174.97,-16.19 175.34,-23.18"/>
</g>
<!-- block4 -->
<g id="node6" class="node">
<title>block4</title>
<polygon fill="lightblue" stroke="black" points="642.02,-1100.6 420.48,-1100.6 420.48,-1064.6 642.02,-1064.6 642.02,-1100.6"/>
<text text-anchor="middle" x="531.25" y="-1079" font-family="Microsoft YaHei" font-size="12.00">调用calcShortestPathToAnyWord(word1)</text>
</g>
<!-- block3&#45;&gt;block4 -->
<g id="edge5" class="edge">
<title>block3&#45;&gt;block4</title>
<path fill="none" stroke="black" d="M258.89,-1226.48C314.59,-1197.26 427.89,-1137.82 489.35,-1105.58"/>
<polygon fill="black" stroke="black" points="491.16,-1108.59 498.39,-1100.84 487.91,-1102.39 491.16,-1108.59"/>
<text text-anchor="middle" x="363.53" y="-1187.6" font-family="Microsoft YaHei" font-size="10.00">是</text>
</g>
<!-- block5 -->
<g id="node7" class="node">
<title>block5</title>
<polygon fill="lightblue" stroke="black" points="308.8,-1154.6 143.71,-1154.6 143.71,-1118.6 308.8,-1118.6 308.8,-1154.6"/>
<text text-anchor="middle" x="226.25" y="-1133" font-family="Microsoft YaHei" font-size="12.00">word2 = word2.toLowerCase()</text>
</g>
<!-- block3&#45;&gt;block5 -->
<g id="edge6" class="edge">
<title>block3&#45;&gt;block5</title>
<path fill="none" stroke="black" d="M226.25,-1226.57C226.25,-1209.98 226.25,-1184.48 226.25,-1165.03"/>
<polygon fill="black" stroke="black" points="229.75,-1164.94 226.25,-1154.94 222.75,-1164.94 229.75,-1164.94"/>
<text text-anchor="middle" x="231.25" y="-1187.6" font-family="Microsoft YaHei" font-size="10.00">否</text>
</g>
<!-- block4&#45;&gt;exit -->
<g id="edge7" class="edge">
<title>block4&#45;&gt;exit</title>
<path fill="none" stroke="black" d="M623.17,-1064.48C662.81,-1051.25 700.25,-1028.06 700.25,-987.6 700.25,-987.6 700.25,-987.6 700.25,-90.4 700.25,-44.88 363.56,-25.72 249.51,-20.53"/>
<polygon fill="black" stroke="black" points="249.33,-17.02 239.19,-20.07 249.02,-24.02 249.33,-17.02"/>
</g>
<!-- block6 -->
<g id="node8" class="node">
<title>block6</title>
<polygon fill="lightblue" stroke="black" points="326.39,-1046.6 126.12,-1046.6 126.12,-1010.6 326.39,-1010.6 326.39,-1046.6"/>
<text text-anchor="middle" x="226.25" y="-1025" font-family="Microsoft YaHei" font-size="12.00">检查word1和word2是否都不在图中</text>
</g>
<!-- block5&#45;&gt;block6 -->
<g id="edge8" class="edge">
<title>block5&#45;&gt;block6</title>
<path fill="none" stroke="black" d="M226.25,-1118.57C226.25,-1101.98 226.25,-1076.48 226.25,-1057.03"/>
<polygon fill="black" stroke="black" points="229.75,-1056.94 226.25,-1046.94 222.75,-1056.94 229.75,-1056.94"/>
</g>
<!-- block7 -->
<g id="node9" class="node">
<title>block7</title>
<polygon fill="pink" stroke="black" points="271.72,-908.6 64.79,-908.6 64.79,-872.6 271.72,-872.6 271.72,-908.6"/>
<text text-anchor="middle" x="168.25" y="-887" font-family="Microsoft YaHei" font-size="12.00">返回错误：两个单词都不在图中</text>
</g>
<!-- block6&#45;&gt;block7 -->
<g id="edge9" class="edge">
<title>block6&#45;&gt;block7</title>
<path fill="none" stroke="black" d="M218.91,-1010.38C208.97,-987.08 191.16,-945.3 179.52,-918.02"/>
<polygon fill="black" stroke="black" points="182.68,-916.51 175.54,-908.68 176.24,-919.26 182.68,-916.51"/>
<text text-anchor="middle" x="216.53" y="-983.6" font-family="Microsoft YaHei" font-size="10.00">是</text>
</g>
<!-- block8 -->
<g id="node10" class="node">
<title>block8</title>
<polygon fill="lightblue" stroke="black" points="363.07,-962.6 225.44,-962.6 225.44,-926.6 363.07,-926.6 363.07,-962.6"/>
<text text-anchor="middle" x="294.25" y="-941" font-family="Microsoft YaHei" font-size="12.00">检查word1是否不在图中</text>
</g>
<!-- block6&#45;&gt;block8 -->
<g id="edge10" class="edge">
<title>block6&#45;&gt;block8</title>
<path fill="none" stroke="black" d="M240.68,-1010.21C250.21,-998.72 262.85,-983.47 273.46,-970.67"/>
<polygon fill="black" stroke="black" points="276.4,-972.62 280.09,-962.68 271.01,-968.15 276.4,-972.62"/>
<text text-anchor="middle" x="270.25" y="-983.6" font-family="Microsoft YaHei" font-size="10.00">否</text>
</g>
<!-- block7&#45;&gt;exit -->
<g id="edge11" class="edge">
<title>block7&#45;&gt;exit</title>
<path fill="none" stroke="black" d="M150.32,-872.28C132.01,-852.64 106.25,-818.78 106.25,-783.6 106.25,-783.6 106.25,-783.6 106.25,-90.4 106.25,-55.46 146.36,-36.49 177.23,-27.06"/>
<polygon fill="black" stroke="black" points="178.2,-30.43 186.86,-24.33 176.29,-23.69 178.2,-30.43"/>
</g>
<!-- block9 -->
<g id="node11" class="node">
<title>block9</title>
<polygon fill="pink" stroke="black" points="291.39,-800.6 125.12,-800.6 125.12,-764.6 291.39,-764.6 291.39,-800.6"/>
<text text-anchor="middle" x="208.25" y="-779" font-family="Microsoft YaHei" font-size="12.00">返回错误：word1不在图中</text>
</g>
<!-- block8&#45;&gt;block9 -->
<g id="edge12" class="edge">
<title>block8&#45;&gt;block9</title>
<path fill="none" stroke="black" d="M290.57,-926.37C287.03,-911.61 280.94,-890.04 272.25,-872.6 260.74,-849.47 243.43,-825.84 229.72,-808.74"/>
<polygon fill="black" stroke="black" points="232.36,-806.44 223.32,-800.91 226.94,-810.87 232.36,-806.44"/>
<text text-anchor="middle" x="291.53" y="-887.6" font-family="Microsoft YaHei" font-size="10.00">是</text>
</g>
<!-- block10 -->
<g id="node12" class="node">
<title>block10</title>
<polygon fill="lightblue" stroke="black" points="460.07,-854.6 322.44,-854.6 322.44,-818.6 460.07,-818.6 460.07,-854.6"/>
<text text-anchor="middle" x="391.25" y="-833" font-family="Microsoft YaHei" font-size="12.00">检查word2是否不在图中</text>
</g>
<!-- block8&#45;&gt;block10 -->
<g id="edge13" class="edge">
<title>block8&#45;&gt;block10</title>
<path fill="none" stroke="black" d="M309.84,-926.57C325.72,-909.21 350.53,-882.1 368.59,-862.37"/>
<polygon fill="black" stroke="black" points="371.22,-864.68 375.39,-854.94 366.05,-859.96 371.22,-864.68"/>
<text text-anchor="middle" x="361.25" y="-887.6" font-family="Microsoft YaHei" font-size="10.00">否</text>
</g>
<!-- block9&#45;&gt;exit -->
<g id="edge14" class="edge">
<title>block9&#45;&gt;exit</title>
<path fill="none" stroke="black" d="M192.1,-764.24C173.14,-741.97 144.25,-701.33 144.25,-660.4 144.25,-660.4 144.25,-660.4 144.25,-90.4 144.25,-66.57 164.36,-47.54 182.71,-35.14"/>
<polygon fill="black" stroke="black" points="184.9,-37.9 191.48,-29.59 181.16,-31.98 184.9,-37.9"/>
</g>
<!-- block11 -->
<g id="node13" class="node">
<title>block11</title>
<polygon fill="pink" stroke="black" points="375.39,-677.4 209.12,-677.4 209.12,-641.4 375.39,-641.4 375.39,-677.4"/>
<text text-anchor="middle" x="292.25" y="-655.8" font-family="Microsoft YaHei" font-size="12.00">返回错误：word2不在图中</text>
</g>
<!-- block10&#45;&gt;block11 -->
<g id="edge15" class="edge">
<title>block10&#45;&gt;block11</title>
<path fill="none" stroke="black" d="M381.58,-818.48C364.21,-787.74 327.62,-722.98 307.07,-686.61"/>
<polygon fill="black" stroke="black" points="309.93,-684.57 301.97,-677.59 303.84,-688.02 309.93,-684.57"/>
<text text-anchor="middle" x="374.53" y="-779.6" font-family="Microsoft YaHei" font-size="10.00">是</text>
</g>
<!-- block12 -->
<g id="node14" class="node">
<title>block12</title>
<polygon fill="lightblue" stroke="black" points="586.62,-746.7 387.89,-746.7 387.89,-695.3 586.62,-695.3 586.62,-746.7"/>
<text text-anchor="middle" x="487.25" y="-731.8" font-family="Microsoft YaHei" font-size="12.00">获取索引:</text>
<text text-anchor="middle" x="487.25" y="-717.4" font-family="Microsoft YaHei" font-size="12.00">startIndex = wordToIndex.get(word1)</text>
<text text-anchor="middle" x="487.25" y="-703" font-family="Microsoft YaHei" font-size="12.00">endIndex = wordToIndex.get(word2)</text>
</g>
<!-- block10&#45;&gt;block12 -->
<g id="edge16" class="edge">
<title>block10&#45;&gt;block12</title>
<path fill="none" stroke="black" d="M405.83,-818.35C420.07,-801.51 442.08,-775.46 459.63,-754.69"/>
<polygon fill="black" stroke="black" points="462.33,-756.91 466.11,-747.02 456.99,-752.39 462.33,-756.91"/>
<text text-anchor="middle" x="455.25" y="-779.6" font-family="Microsoft YaHei" font-size="10.00">否</text>
</g>
<!-- block11&#45;&gt;exit -->
<g id="edge17" class="edge">
<title>block11&#45;&gt;exit</title>
<path fill="none" stroke="black" d="M248.15,-641.25C217.54,-626.14 182.25,-600.82 182.25,-564.4 182.25,-564.4 182.25,-564.4 182.25,-90.4 182.25,-73.95 189.1,-56.92 196.26,-43.62"/>
<polygon fill="black" stroke="black" points="199.46,-45.07 201.42,-34.66 193.4,-41.57 199.46,-45.07"/>
</g>
<!-- block13 -->
<g id="node15" class="node">
<title>block13</title>
<polygon fill="lightblue" stroke="black" points="575.42,-623.4 423.09,-623.4 423.09,-587.4 575.42,-587.4 575.42,-623.4"/>
<text text-anchor="middle" x="499.25" y="-601.8" font-family="Microsoft YaHei" font-size="12.00">检查startIndex == endIndex</text>
</g>
<!-- block12&#45;&gt;block13 -->
<g id="edge18" class="edge">
<title>block12&#45;&gt;block13</title>
<path fill="none" stroke="black" d="M489.86,-695.35C491.78,-677.16 494.4,-652.4 496.38,-633.62"/>
<polygon fill="black" stroke="black" points="499.87,-633.93 497.44,-623.62 492.9,-633.2 499.87,-633.93"/>
</g>
<!-- block14 -->
<g id="node16" class="node">
<title>block14</title>
<polygon fill="lightblue" stroke="black" points="682.59,-441.4 529.92,-441.4 529.92,-405.4 682.59,-405.4 682.59,-441.4"/>
<text text-anchor="middle" x="606.25" y="-419.8" font-family="Microsoft YaHei" font-size="12.00">返回：路径为单词本身</text>
</g>
<!-- block13&#45;&gt;block14 -->
<g id="edge19" class="edge">
<title>block13&#45;&gt;block14</title>
<path fill="none" stroke="black" d="M527.28,-587.17C543.85,-575.61 563.94,-558.94 576.25,-539.4 593.22,-512.49 600.63,-476.28 603.84,-451.73"/>
<polygon fill="black" stroke="black" points="607.33,-452.01 605.01,-441.67 600.38,-451.2 607.33,-452.01"/>
<text text-anchor="middle" x="566.53" y="-560.4" font-family="Microsoft YaHei" font-size="10.00">是</text>
</g>
<!-- block15 -->
<g id="node17" class="node">
<title>block15</title>
<polygon fill="lightblue" stroke="black" points="567.13,-539.4 431.38,-539.4 431.38,-459.4 567.13,-459.4 567.13,-539.4"/>
<text text-anchor="middle" x="499.25" y="-524.6" font-family="Microsoft YaHei" font-size="12.00">初始化Dijkstra:</text>
<text text-anchor="middle" x="499.25" y="-510.2" font-family="Microsoft YaHei" font-size="12.00">&#45; 创建距离数组</text>
<text text-anchor="middle" x="499.25" y="-495.8" font-family="Microsoft YaHei" font-size="12.00">&#45; 创建前驱映射</text>
<text text-anchor="middle" x="499.25" y="-481.4" font-family="Microsoft YaHei" font-size="12.00">&#45; 创建访问数组</text>
<text text-anchor="middle" x="499.25" y="-467" font-family="Microsoft YaHei" font-size="12.00">&#45; 设置起点距离为0</text>
</g>
<!-- block13&#45;&gt;block15 -->
<g id="edge20" class="edge">
<title>block13&#45;&gt;block15</title>
<path fill="none" stroke="black" d="M499.25,-587.23C499.25,-576.93 499.25,-563.26 499.25,-549.82"/>
<polygon fill="black" stroke="black" points="502.75,-549.64 499.25,-539.64 495.75,-549.64 502.75,-549.64"/>
<text text-anchor="middle" x="504.25" y="-560.4" font-family="Microsoft YaHei" font-size="10.00">否</text>
</g>
<!-- block14&#45;&gt;exit -->
<g id="edge21" class="edge">
<title>block14&#45;&gt;exit</title>
<path fill="none" stroke="black" d="M623.97,-405.31C640.38,-387.57 662.25,-358.18 662.25,-327.6 662.25,-327.6 662.25,-327.6 662.25,-90.4 662.25,-48.68 356.63,-27.23 249.12,-20.98"/>
<polygon fill="black" stroke="black" points="249.24,-17.48 239.06,-20.4 248.84,-24.47 249.24,-17.48"/>
</g>
<!-- block16 -->
<g id="node18" class="node">
<title>block16</title>
<polygon fill="lightblue" stroke="black" points="559.06,-387.3 439.45,-387.3 439.45,-350.7 559.06,-350.7 559.06,-387.3"/>
<text text-anchor="middle" x="499.25" y="-372.6" font-family="Microsoft YaHei" font-size="12.00">进入Dijkstra主循环</text>
<text text-anchor="middle" x="499.25" y="-358.2" font-family="Microsoft YaHei" font-size="12.00">for i = 0 to n&#45;1</text>
</g>
<!-- block15&#45;&gt;block16 -->
<g id="edge22" class="edge">
<title>block15&#45;&gt;block16</title>
<path fill="none" stroke="black" d="M499.25,-459.18C499.25,-439.3 499.25,-415.63 499.25,-397.67"/>
<polygon fill="black" stroke="black" points="502.75,-397.58 499.25,-387.58 495.75,-397.58 502.75,-397.58"/>
</g>
<!-- block17 -->
<g id="node19" class="node">
<title>block17</title>
<polygon fill="lightblue" stroke="black" points="582.93,-302.6 415.58,-302.6 415.58,-266.6 582.93,-266.6 582.93,-302.6"/>
<text text-anchor="middle" x="499.25" y="-281" font-family="Microsoft YaHei" font-size="12.00">查找距离最小的未访问节点</text>
</g>
<!-- block16&#45;&gt;block17 -->
<g id="edge23" class="edge">
<title>block16&#45;&gt;block17</title>
<path fill="none" stroke="black" d="M499.25,-350.53C499.25,-339.64 499.25,-325.39 499.25,-313.02"/>
<polygon fill="black" stroke="black" points="502.75,-312.77 499.25,-302.77 495.75,-312.77 502.75,-312.77"/>
<text text-anchor="middle" x="508.46" y="-323.6" font-family="Microsoft YaHei" font-size="10.00">i &lt; n</text>
</g>
<!-- block21 -->
<g id="node22" class="node">
<title>block21</title>
<polygon fill="lightblue" stroke="black" points="351.25,-302.6 237.25,-302.6 237.25,-266.6 351.25,-266.6 351.25,-302.6"/>
<text text-anchor="middle" x="294.25" y="-281" font-family="Microsoft YaHei" font-size="12.00">检查终点是否可达</text>
</g>
<!-- block16&#45;&gt;block21 -->
<g id="edge24" class="edge">
<title>block16&#45;&gt;block21</title>
<path fill="none" stroke="black" d="M455.78,-350.53C423.66,-337.61 379.8,-319.99 345.9,-306.36"/>
<polygon fill="black" stroke="black" points="347.2,-303.11 336.61,-302.63 344.59,-309.6 347.2,-303.11"/>
<text text-anchor="middle" x="420.28" y="-323.6" font-family="Microsoft YaHei" font-size="10.00">i &gt;= n</text>
</g>
<!-- block18 -->
<g id="node20" class="node">
<title>block18</title>
<polygon fill="lightblue" stroke="black" points="576.61,-218.2 421.9,-218.2 421.9,-182.2 576.61,-182.2 576.61,-218.2"/>
<text text-anchor="middle" x="499.25" y="-196.6" font-family="Microsoft YaHei" font-size="12.00">检查是否找到最小距离节点</text>
</g>
<!-- block17&#45;&gt;block18 -->
<g id="edge25" class="edge">
<title>block17&#45;&gt;block18</title>
<path fill="none" stroke="black" d="M499.25,-266.53C499.25,-255.59 499.25,-241.15 499.25,-228.63"/>
<polygon fill="black" stroke="black" points="502.75,-228.25 499.25,-218.25 495.75,-228.25 502.75,-228.25"/>
</g>
<!-- block19 -->
<g id="node21" class="node">
<title>block19</title>
<polygon fill="lightblue" stroke="black" points="375.61,-387 306.9,-387 306.9,-351 375.61,-351 375.61,-387"/>
<text text-anchor="middle" x="341.25" y="-365.4" font-family="Microsoft YaHei" font-size="12.00">跳出循环</text>
</g>
<!-- block18&#45;&gt;block19 -->
<g id="edge26" class="edge">
<title>block18&#45;&gt;block19</title>
<path fill="none" stroke="black" d="M463.11,-218.24C441.72,-229.67 415.19,-246.32 396.25,-266.6 375.75,-288.56 360.39,-319.61 351.19,-341.55"/>
<polygon fill="black" stroke="black" points="347.9,-340.34 347.39,-350.92 354.39,-342.96 347.9,-340.34"/>
<text text-anchor="middle" x="401.25" y="-281.6" font-family="Microsoft YaHei" font-size="10.00">否</text>
</g>
<!-- block20 -->
<g id="node26" class="node">
<title>block20</title>
<polygon fill="lightblue" stroke="black" points="616.1,-109.7 486.41,-109.7 486.41,-73.1 616.1,-73.1 616.1,-109.7"/>
<text text-anchor="middle" x="551.25" y="-95" font-family="Microsoft YaHei" font-size="12.00">标记节点为已访问</text>
<text text-anchor="middle" x="551.25" y="-80.6" font-family="Microsoft YaHei" font-size="12.00">更新邻居节点距离</text>
</g>
<!-- block18&#45;&gt;block20 -->
<g id="edge27" class="edge">
<title>block18&#45;&gt;block20</title>
<path fill="none" stroke="black" d="M507.61,-182.04C515.9,-165.01 528.72,-138.68 538.32,-118.96"/>
<polygon fill="black" stroke="black" points="541.52,-120.39 542.75,-109.87 535.22,-117.33 541.52,-120.39"/>
<text text-anchor="middle" x="537.53" y="-142.8" font-family="Microsoft YaHei" font-size="10.00">是</text>
</g>
<!-- block19&#45;&gt;block21 -->
<g id="edge28" class="edge">
<title>block19&#45;&gt;block21</title>
<path fill="none" stroke="black" d="M331.52,-350.93C325.02,-339.55 316.37,-324.38 309.04,-311.52"/>
<polygon fill="black" stroke="black" points="311.97,-309.6 303.98,-302.65 305.89,-313.07 311.97,-309.6"/>
</g>
<!-- block22 -->
<g id="node23" class="node">
<title>block22</title>
<polygon fill="pink" stroke="black" points="462.4,-163.8 302.1,-163.8 302.1,-127.8 462.4,-127.8 462.4,-163.8"/>
<text text-anchor="middle" x="382.25" y="-142.2" font-family="Microsoft YaHei" font-size="12.00">返回错误：无法到达终点</text>
</g>
<!-- block21&#45;&gt;block22 -->
<g id="edge29" class="edge">
<title>block21&#45;&gt;block22</title>
<path fill="none" stroke="black" d="M326.11,-266.59C343.71,-255.4 364.19,-239.06 375.25,-218.6 382.57,-205.08 384.48,-188.02 384.48,-173.93"/>
<polygon fill="black" stroke="black" points="387.98,-173.72 384.18,-163.83 380.98,-173.93 387.98,-173.72"/>
<text text-anchor="middle" x="365.53" y="-239.6" font-family="Microsoft YaHei" font-size="10.00">是</text>
</g>
<!-- block23 -->
<g id="node24" class="node">
<title>block23</title>
<polygon fill="lightblue" stroke="black" points="365.78,-218.5 210.73,-218.5 210.73,-181.9 365.78,-181.9 365.78,-218.5"/>
<text text-anchor="middle" x="288.25" y="-203.8" font-family="Microsoft YaHei" font-size="12.00">使用DFS查找所有最短路径</text>
<text text-anchor="middle" x="288.25" y="-189.4" font-family="Microsoft YaHei" font-size="12.00">构建结果字符串</text>
</g>
<!-- block21&#45;&gt;block23 -->
<g id="edge30" class="edge">
<title>block21&#45;&gt;block23</title>
<path fill="none" stroke="black" d="M293.01,-266.53C292.22,-255.66 291.18,-241.34 290.27,-228.88"/>
<polygon fill="black" stroke="black" points="293.73,-228.25 289.52,-218.53 286.75,-228.76 293.73,-228.25"/>
<text text-anchor="middle" x="297.25" y="-239.6" font-family="Microsoft YaHei" font-size="10.00">否</text>
</g>
<!-- block22&#45;&gt;exit -->
<g id="edge31" class="edge">
<title>block22&#45;&gt;exit</title>
<path fill="none" stroke="black" d="M374.1,-127.71C365.75,-111.75 351.44,-88.19 333.25,-73 307.85,-51.78 272.77,-37.35 246.93,-28.79"/>
<polygon fill="black" stroke="black" points="247.75,-25.38 237.16,-25.69 245.63,-32.05 247.75,-25.38"/>
</g>
<!-- block24 -->
<g id="node25" class="node">
<title>block24</title>
<polygon fill="lightblue" stroke="black" points="324.11,-109.4 216.4,-109.4 216.4,-73.4 324.11,-73.4 324.11,-109.4"/>
<text text-anchor="middle" x="270.25" y="-87.8" font-family="Microsoft YaHei" font-size="12.00">返回最短路径结果</text>
</g>
<!-- block23&#45;&gt;block24 -->
<g id="edge32" class="edge">
<title>block23&#45;&gt;block24</title>
<path fill="none" stroke="black" d="M285.28,-181.56C282.45,-164.77 278.15,-139.23 274.87,-119.79"/>
<polygon fill="black" stroke="black" points="278.28,-118.99 273.17,-109.71 271.38,-120.15 278.28,-118.99"/>
</g>
<!-- block24&#45;&gt;exit -->
<g id="edge33" class="edge">
<title>block24&#45;&gt;exit</title>
<path fill="none" stroke="black" d="M256.21,-73.12C248.67,-63.83 239.27,-52.25 231.1,-42.2"/>
<polygon fill="black" stroke="black" points="233.61,-39.74 224.59,-34.19 228.18,-44.15 233.61,-39.74"/>
</g>
<!-- block20&#45;&gt;block16 -->
<g id="edge34" class="edge">
<title>block20&#45;&gt;block16</title>
<path fill="none" stroke="black" d="M561.84,-109.82C583.1,-147.25 626.18,-237.27 592.25,-302.6 582.8,-320.8 565.71,-335 548.73,-345.45"/>
<polygon fill="black" stroke="black" points="546.79,-342.52 539.9,-350.57 550.31,-348.58 546.79,-342.52"/>
<text text-anchor="middle" x="625.92" y="-239.6" font-family="Microsoft YaHei" font-size="10.00">继续循环</text>
</g>
</g>
</svg>
