<?xml version="1.0" encoding="UTF-8" standalone="no"?>
<!DOCTYPE svg PUBLIC "-//W3C//DTD SVG 1.1//EN"
 "http://www.w3.org/Graphics/SVG/1.1/DTD/svg11.dtd">
<!-- Generated by graphviz version 12.2.1 (20241206.2353)
 -->
<!-- Title: G Pages: 1 -->
<svg width="561pt" height="929pt"
 viewBox="0.00 0.00 561.42 929.00" xmlns="http://www.w3.org/2000/svg" xmlns:xlink="http://www.w3.org/1999/xlink">
<g id="graph0" class="graph" transform="scale(1 1) rotate(0) translate(4 925)">
<title>G</title>
<polygon fill="white" stroke="none" points="-4,4 -4,-925 557.42,-925 557.42,4 -4,4"/>
<!-- the -->
<g id="node1" class="node">
<title>the</title>
<ellipse fill="none" stroke="black" cx="280.67" cy="-903" rx="27" ry="18"/>
<text text-anchor="middle" x="280.67" y="-897.95" font-family="Times New Roman,serif" font-size="14.00">the</text>
</g>
<!-- scientist -->
<g id="node2" class="node">
<title>scientist</title>
<ellipse fill="none" stroke="black" cx="89.67" cy="-814.5" rx="41.12" ry="18"/>
<text text-anchor="middle" x="89.67" y="-809.45" font-family="Times New Roman,serif" font-size="14.00">scientist</text>
</g>
<!-- the&#45;&gt;scientist -->
<g id="edge1" class="edge">
<title>the&#45;&gt;scientist</title>
<path fill="none" stroke="black" d="M253.71,-899.99C223.66,-896.75 174.49,-888.38 137.92,-867 126.54,-860.34 116.21,-850.18 108.04,-840.64"/>
<polygon fill="black" stroke="black" points="110.88,-838.58 101.87,-832.99 105.43,-842.98 110.88,-838.58"/>
<text text-anchor="middle" x="141.3" y="-853.7" font-family="Times New Roman,serif" font-size="14.00">2</text>
</g>
<!-- data -->
<g id="node3" class="node">
<title>data</title>
<ellipse fill="none" stroke="black" cx="248.67" cy="-549" rx="27" ry="18"/>
<text text-anchor="middle" x="248.67" y="-543.95" font-family="Times New Roman,serif" font-size="14.00">data</text>
</g>
<!-- the&#45;&gt;data -->
<g id="edge2" class="edge">
<title>the&#45;&gt;data</title>
<path fill="none" stroke="black" d="M269.07,-886.33C257.89,-869.65 242.67,-842.07 242.67,-815.5 242.67,-815.5 242.67,-815.5 242.67,-636.5 242.67,-617.12 244.19,-595.35 245.7,-578.5"/>
<polygon fill="black" stroke="black" points="249.17,-579 246.63,-568.71 242.2,-578.34 249.17,-579"/>
<text text-anchor="middle" x="246.05" y="-720.95" font-family="Times New Roman,serif" font-size="14.00">1</text>
</g>
<!-- report -->
<g id="node4" class="node">
<title>report</title>
<ellipse fill="none" stroke="black" cx="348.67" cy="-195" rx="32.93" ry="18"/>
<text text-anchor="middle" x="348.67" y="-189.95" font-family="Times New Roman,serif" font-size="14.00">report</text>
</g>
<!-- the&#45;&gt;report -->
<g id="edge3" class="edge">
<title>the&#45;&gt;report</title>
<path fill="none" stroke="black" d="M259.48,-891.8C234.59,-878.18 196.67,-851.5 196.67,-815.5 196.67,-815.5 196.67,-815.5 196.67,-282.5 196.67,-232.22 260.27,-210.8 305.19,-201.93"/>
<polygon fill="black" stroke="black" points="305.73,-205.39 314.95,-200.16 304.49,-198.5 305.73,-205.39"/>
<text text-anchor="middle" x="200.05" y="-543.95" font-family="Times New Roman,serif" font-size="14.00">1</text>
</g>
<!-- team -->
<g id="node5" class="node">
<title>team</title>
<ellipse fill="none" stroke="black" cx="354.67" cy="-814.5" rx="29.34" ry="18"/>
<text text-anchor="middle" x="354.67" y="-809.45" font-family="Times New Roman,serif" font-size="14.00">team</text>
</g>
<!-- the&#45;&gt;team -->
<g id="edge4" class="edge">
<title>the&#45;&gt;team</title>
<path fill="none" stroke="black" d="M293.56,-886.93C304.78,-873.82 321.23,-854.59 334.24,-839.39"/>
<polygon fill="black" stroke="black" points="336.61,-842 340.45,-832.13 331.29,-837.45 336.61,-842"/>
<text text-anchor="middle" x="327.68" y="-853.7" font-family="Times New Roman,serif" font-size="14.00">2</text>
</g>
<!-- carefully -->
<g id="node6" class="node">
<title>carefully</title>
<ellipse fill="none" stroke="black" cx="43.67" cy="-726" rx="43.67" ry="18"/>
<text text-anchor="middle" x="43.67" y="-720.95" font-family="Times New Roman,serif" font-size="14.00">carefully</text>
</g>
<!-- scientist&#45;&gt;carefully -->
<g id="edge5" class="edge">
<title>scientist&#45;&gt;carefully</title>
<path fill="none" stroke="black" d="M80.81,-796.82C74.36,-784.69 65.49,-768.02 58.03,-754"/>
<polygon fill="black" stroke="black" points="61.17,-752.44 53.38,-745.26 54.99,-755.73 61.17,-752.44"/>
<text text-anchor="middle" x="74.17" y="-765.2" font-family="Times New Roman,serif" font-size="14.00">1</text>
</g>
<!-- analyzed -->
<g id="node7" class="node">
<title>analyzed</title>
<ellipse fill="none" stroke="black" cx="123.67" cy="-637.5" rx="43.67" ry="18"/>
<text text-anchor="middle" x="123.67" y="-632.45" font-family="Times New Roman,serif" font-size="14.00">analyzed</text>
</g>
<!-- scientist&#45;&gt;analyzed -->
<g id="edge6" class="edge">
<title>scientist&#45;&gt;analyzed</title>
<path fill="none" stroke="black" d="M93.06,-796.08C98.94,-765.81 111.09,-703.26 118.19,-666.72"/>
<polygon fill="black" stroke="black" points="121.54,-667.82 120.01,-657.33 114.67,-666.48 121.54,-667.82"/>
<text text-anchor="middle" x="113.43" y="-720.95" font-family="Times New Roman,serif" font-size="14.00">1</text>
</g>
<!-- wrote -->
<g id="node9" class="node">
<title>wrote</title>
<ellipse fill="none" stroke="black" cx="256.67" cy="-460.5" rx="31.9" ry="18"/>
<text text-anchor="middle" x="256.67" y="-455.45" font-family="Times New Roman,serif" font-size="14.00">wrote</text>
</g>
<!-- data&#45;&gt;wrote -->
<g id="edge10" class="edge">
<title>data&#45;&gt;wrote</title>
<path fill="none" stroke="black" d="M249.99,-530.82C250.78,-520.81 251.84,-507.93 252.92,-496.5 253.12,-494.44 253.33,-492.32 253.54,-490.19"/>
<polygon fill="black" stroke="black" points="257,-490.75 254.56,-480.44 250.04,-490.02 257,-490.75"/>
<text text-anchor="middle" x="256.3" y="-499.7" font-family="Times New Roman,serif" font-size="14.00">1</text>
</g>
<!-- so -->
<g id="node10" class="node">
<title>so</title>
<ellipse fill="none" stroke="black" cx="333.67" cy="-460.5" rx="27" ry="18"/>
<text text-anchor="middle" x="333.67" y="-455.45" font-family="Times New Roman,serif" font-size="14.00">so</text>
</g>
<!-- data&#45;&gt;so -->
<g id="edge11" class="edge">
<title>data&#45;&gt;so</title>
<path fill="none" stroke="black" d="M257.83,-531.57C264.27,-520.87 273.57,-506.99 283.92,-496.5 290.05,-490.3 297.39,-484.46 304.53,-479.39"/>
<polygon fill="black" stroke="black" points="306.42,-482.34 312.75,-473.85 302.51,-476.54 306.42,-482.34"/>
<text text-anchor="middle" x="287.3" y="-499.7" font-family="Times New Roman,serif" font-size="14.00">1</text>
</g>
<!-- and -->
<g id="node13" class="node">
<title>and</title>
<ellipse fill="none" stroke="black" cx="401.67" cy="-106.5" rx="27" ry="18"/>
<text text-anchor="middle" x="401.67" y="-101.45" font-family="Times New Roman,serif" font-size="14.00">and</text>
</g>
<!-- report&#45;&gt;and -->
<g id="edge15" class="edge">
<title>report&#45;&gt;and</title>
<path fill="none" stroke="black" d="M358.64,-177.73C366.27,-165.29 376.93,-147.88 385.74,-133.51"/>
<polygon fill="black" stroke="black" points="388.72,-135.34 390.96,-124.99 382.75,-131.69 388.72,-135.34"/>
<text text-anchor="middle" x="383.3" y="-145.7" font-family="Times New Roman,serif" font-size="14.00">1</text>
</g>
<!-- with -->
<g id="node14" class="node">
<title>with</title>
<ellipse fill="none" stroke="black" cx="482.67" cy="-106.5" rx="27.3" ry="18"/>
<text text-anchor="middle" x="482.67" y="-101.45" font-family="Times New Roman,serif" font-size="14.00">with</text>
</g>
<!-- report&#45;&gt;with -->
<g id="edge16" class="edge">
<title>report&#45;&gt;with</title>
<path fill="none" stroke="black" d="M369.32,-180.67C392,-166.03 428.59,-142.41 454.04,-125.98"/>
<polygon fill="black" stroke="black" points="455.75,-129.04 462.26,-120.68 451.96,-123.16 455.75,-129.04"/>
<text text-anchor="middle" x="431.05" y="-145.7" font-family="Times New Roman,serif" font-size="14.00">1</text>
</g>
<!-- but -->
<g id="node16" class="node">
<title>but</title>
<ellipse fill="none" stroke="black" cx="445.67" cy="-726" rx="27" ry="18"/>
<text text-anchor="middle" x="445.67" y="-720.95" font-family="Times New Roman,serif" font-size="14.00">but</text>
</g>
<!-- team&#45;&gt;but -->
<g id="edge20" class="edge">
<title>team&#45;&gt;but</title>
<path fill="none" stroke="black" d="M370.11,-798.83C384.53,-785.12 406.25,-764.47 422.71,-748.83"/>
<polygon fill="black" stroke="black" points="424.83,-751.64 429.67,-742.21 420.01,-746.57 424.83,-751.64"/>
<text text-anchor="middle" x="411.7" y="-765.2" font-family="Times New Roman,serif" font-size="14.00">1</text>
</g>
<!-- requested -->
<g id="node17" class="node">
<title>requested</title>
<ellipse fill="none" stroke="black" cx="354.67" cy="-726" rx="46.23" ry="18"/>
<text text-anchor="middle" x="354.67" y="-720.95" font-family="Times New Roman,serif" font-size="14.00">requested</text>
</g>
<!-- team&#45;&gt;requested -->
<g id="edge21" class="edge">
<title>team&#45;&gt;requested</title>
<path fill="none" stroke="black" d="M354.67,-796.41C354.67,-784.76 354.67,-769.05 354.67,-755.52"/>
<polygon fill="black" stroke="black" points="358.17,-755.86 354.67,-745.86 351.17,-755.86 358.17,-755.86"/>
<text text-anchor="middle" x="358.05" y="-765.2" font-family="Times New Roman,serif" font-size="14.00">1</text>
</g>
<!-- carefully&#45;&gt;analyzed -->
<g id="edge7" class="edge">
<title>carefully&#45;&gt;analyzed</title>
<path fill="none" stroke="black" d="M58.72,-708.73C70.68,-695.8 87.59,-677.52 101.15,-662.85"/>
<polygon fill="black" stroke="black" points="103.45,-665.53 107.67,-655.81 98.31,-660.77 103.45,-665.53"/>
<text text-anchor="middle" x="94.21" y="-676.7" font-family="Times New Roman,serif" font-size="14.00">1</text>
</g>
<!-- analyzed&#45;&gt;the -->
<g id="edge8" class="edge">
<title>analyzed&#45;&gt;the</title>
<path fill="none" stroke="black" d="M127.15,-655.72C137.47,-706.16 168.1,-851.04 182.67,-867 198.13,-883.92 222.32,-892.66 242.8,-897.18"/>
<polygon fill="black" stroke="black" points="242.06,-900.6 252.54,-899.05 243.38,-893.73 242.06,-900.6"/>
<text text-anchor="middle" x="157.64" y="-765.2" font-family="Times New Roman,serif" font-size="14.00">1</text>
</g>
<!-- it -->
<g id="node8" class="node">
<title>it</title>
<ellipse fill="none" stroke="black" cx="123.67" cy="-549" rx="27" ry="18"/>
<text text-anchor="middle" x="123.67" y="-543.95" font-family="Times New Roman,serif" font-size="14.00">it</text>
</g>
<!-- analyzed&#45;&gt;it -->
<g id="edge9" class="edge">
<title>analyzed&#45;&gt;it</title>
<path fill="none" stroke="black" d="M123.67,-619.41C123.67,-607.76 123.67,-592.05 123.67,-578.52"/>
<polygon fill="black" stroke="black" points="127.17,-578.86 123.67,-568.86 120.17,-578.86 127.17,-578.86"/>
<text text-anchor="middle" x="127.05" y="-588.2" font-family="Times New Roman,serif" font-size="14.00">1</text>
</g>
<!-- again -->
<g id="node19" class="node">
<title>again</title>
<ellipse fill="none" stroke="black" cx="123.67" cy="-460.5" rx="30.88" ry="18"/>
<text text-anchor="middle" x="123.67" y="-455.45" font-family="Times New Roman,serif" font-size="14.00">again</text>
</g>
<!-- it&#45;&gt;again -->
<g id="edge26" class="edge">
<title>it&#45;&gt;again</title>
<path fill="none" stroke="black" d="M123.67,-530.91C123.67,-519.26 123.67,-503.55 123.67,-490.02"/>
<polygon fill="black" stroke="black" points="127.17,-490.36 123.67,-480.36 120.17,-490.36 127.17,-490.36"/>
<text text-anchor="middle" x="127.05" y="-499.7" font-family="Times New Roman,serif" font-size="14.00">1</text>
</g>
<!-- a -->
<g id="node11" class="node">
<title>a</title>
<ellipse fill="none" stroke="black" cx="266.67" cy="-372" rx="27" ry="18"/>
<text text-anchor="middle" x="266.67" y="-366.95" font-family="Times New Roman,serif" font-size="14.00">a</text>
</g>
<!-- wrote&#45;&gt;a -->
<g id="edge12" class="edge">
<title>wrote&#45;&gt;a</title>
<path fill="none" stroke="black" d="M258.65,-442.41C260,-430.76 261.81,-415.05 263.38,-401.52"/>
<polygon fill="black" stroke="black" points="266.82,-402.19 264.49,-391.85 259.87,-401.39 266.82,-402.19"/>
<text text-anchor="middle" x="265.94" y="-411.2" font-family="Times New Roman,serif" font-size="14.00">1</text>
</g>
<!-- so&#45;&gt;the -->
<g id="edge25" class="edge">
<title>so&#45;&gt;the</title>
<path fill="none" stroke="black" d="M329.19,-478.55C323.13,-502.25 312.42,-546.58 306.67,-585 290.87,-690.6 284.11,-817.54 281.74,-873.33"/>
<polygon fill="black" stroke="black" points="278.25,-873.08 281.34,-883.21 285.25,-873.36 278.25,-873.08"/>
<text text-anchor="middle" x="299.1" y="-676.7" font-family="Times New Roman,serif" font-size="14.00">1</text>
</g>
<!-- detailed -->
<g id="node12" class="node">
<title>detailed</title>
<ellipse fill="none" stroke="black" cx="270.67" cy="-283.5" rx="40.09" ry="18"/>
<text text-anchor="middle" x="270.67" y="-278.45" font-family="Times New Roman,serif" font-size="14.00">detailed</text>
</g>
<!-- a&#45;&gt;detailed -->
<g id="edge13" class="edge">
<title>a&#45;&gt;detailed</title>
<path fill="none" stroke="black" d="M267.46,-353.91C268,-342.26 268.73,-326.55 269.36,-313.02"/>
<polygon fill="black" stroke="black" points="272.84,-313.51 269.8,-303.36 265.84,-313.19 272.84,-313.51"/>
<text text-anchor="middle" x="272.41" y="-322.7" font-family="Times New Roman,serif" font-size="14.00">1</text>
</g>
<!-- detailed&#45;&gt;report -->
<g id="edge14" class="edge">
<title>detailed&#45;&gt;report</title>
<path fill="none" stroke="black" d="M284.98,-266.63C296.82,-253.51 313.81,-234.66 327.27,-219.73"/>
<polygon fill="black" stroke="black" points="329.61,-222.37 333.71,-212.6 324.41,-217.68 329.61,-222.37"/>
<text text-anchor="middle" x="320.04" y="-234.2" font-family="Times New Roman,serif" font-size="14.00">1</text>
</g>
<!-- shared -->
<g id="node15" class="node">
<title>shared</title>
<ellipse fill="none" stroke="black" cx="476.67" cy="-18" rx="34.97" ry="18"/>
<text text-anchor="middle" x="476.67" y="-12.95" font-family="Times New Roman,serif" font-size="14.00">shared</text>
</g>
<!-- and&#45;&gt;shared -->
<g id="edge17" class="edge">
<title>and&#45;&gt;shared</title>
<path fill="none" stroke="black" d="M414.74,-90.43C426.04,-77.4 442.57,-58.33 455.72,-43.17"/>
<polygon fill="black" stroke="black" points="458.1,-45.76 462.01,-35.91 452.81,-41.18 458.1,-45.76"/>
<text text-anchor="middle" x="449.27" y="-57.2" font-family="Times New Roman,serif" font-size="14.00">1</text>
</g>
<!-- with&#45;&gt;the -->
<g id="edge19" class="edge">
<title>with&#45;&gt;the</title>
<path fill="none" stroke="black" d="M488.37,-124.52C493.64,-141.8 500.67,-169.46 500.67,-194 500.67,-815.5 500.67,-815.5 500.67,-815.5 500.67,-854.33 380.48,-883.02 317.77,-895.34"/>
<polygon fill="black" stroke="black" points="317.42,-891.84 308.26,-897.16 318.74,-898.72 317.42,-891.84"/>
<text text-anchor="middle" x="504.05" y="-499.7" font-family="Times New Roman,serif" font-size="14.00">1</text>
</g>
<!-- shared&#45;&gt;the -->
<g id="edge18" class="edge">
<title>shared&#45;&gt;the</title>
<path fill="none" stroke="black" d="M497.68,-32.49C518.3,-47.55 546.67,-74.01 546.67,-105.5 546.67,-815.5 546.67,-815.5 546.67,-815.5 546.67,-862.98 391.48,-888.39 318.18,-897.75"/>
<polygon fill="black" stroke="black" points="318.15,-894.23 308.65,-898.93 319.01,-901.17 318.15,-894.23"/>
<text text-anchor="middle" x="550.05" y="-455.45" font-family="Times New Roman,serif" font-size="14.00">1</text>
</g>
<!-- but&#45;&gt;the -->
<g id="edge22" class="edge">
<title>but&#45;&gt;the</title>
<path fill="none" stroke="black" d="M440.38,-744.05C432.76,-766.44 416.87,-806.02 392.67,-832.5 370.35,-856.93 337.51,-875.93 313.16,-887.85"/>
<polygon fill="black" stroke="black" points="311.88,-884.58 304.34,-892.02 314.87,-890.91 311.88,-884.58"/>
<text text-anchor="middle" x="420.58" y="-809.45" font-family="Times New Roman,serif" font-size="14.00">1</text>
</g>
<!-- more -->
<g id="node18" class="node">
<title>more</title>
<ellipse fill="none" stroke="black" cx="348.67" cy="-637.5" rx="30.37" ry="18"/>
<text text-anchor="middle" x="348.67" y="-632.45" font-family="Times New Roman,serif" font-size="14.00">more</text>
</g>
<!-- requested&#45;&gt;more -->
<g id="edge23" class="edge">
<title>requested&#45;&gt;more</title>
<path fill="none" stroke="black" d="M353.49,-707.91C352.68,-696.26 351.59,-680.55 350.65,-667.02"/>
<polygon fill="black" stroke="black" points="354.17,-667.09 349.98,-657.36 347.18,-667.58 354.17,-667.09"/>
<text text-anchor="middle" x="355.59" y="-676.7" font-family="Times New Roman,serif" font-size="14.00">1</text>
</g>
<!-- more&#45;&gt;data -->
<g id="edge24" class="edge">
<title>more&#45;&gt;data</title>
<path fill="none" stroke="black" d="M332.16,-622.22C316.12,-608.34 291.57,-587.11 273.24,-571.25"/>
<polygon fill="black" stroke="black" points="275.55,-568.62 265.7,-564.72 270.97,-573.91 275.55,-568.62"/>
<text text-anchor="middle" x="311.01" y="-588.2" font-family="Times New Roman,serif" font-size="14.00">1</text>
</g>
</g>
</svg>
