<?xml version="1.0" encoding="UTF-8" standalone="no"?>
<!DOCTYPE svg PUBLIC "-//W3C//DTD SVG 1.1//EN"
 "http://www.w3.org/Graphics/SVG/1.1/DTD/svg11.dtd">
<!-- Generated by graphviz version 12.2.1 (20241206.2353)
 -->
<!-- Title: G Pages: 1 -->
<svg width="325pt" height="487pt"
 viewBox="0.00 0.00 324.95 486.50" xmlns="http://www.w3.org/2000/svg" xmlns:xlink="http://www.w3.org/1999/xlink">
<g id="graph0" class="graph" transform="scale(1 1) rotate(0) translate(4 482.5)">
<title>G</title>
<polygon fill="white" stroke="none" points="-4,4 -4,-482.5 320.95,-482.5 320.95,4 -4,4"/>
<!-- to -->
<g id="node1" class="node">
<title>to</title>
<ellipse fill="none" stroke="black" cx="151" cy="-460.5" rx="27" ry="18"/>
<text text-anchor="middle" x="151" y="-455.45" font-family="Times New Roman,serif" font-size="14.00">to</text>
</g>
<!-- seek -->
<g id="node2" class="node">
<title>seek</title>
<ellipse fill="none" stroke="black" cx="99" cy="-372" rx="27.3" ry="18"/>
<text text-anchor="middle" x="99" y="-366.95" font-family="Times New Roman,serif" font-size="14.00">seek</text>
</g>
<!-- to&#45;&gt;seek -->
<g id="edge1" class="edge">
<title>to&#45;&gt;seek</title>
<path fill="none" stroke="black" d="M141.22,-443.23C133.74,-430.79 123.27,-413.38 114.63,-399.01"/>
<polygon fill="black" stroke="black" points="117.67,-397.26 109.51,-390.49 111.67,-400.87 117.67,-397.26"/>
<text text-anchor="middle" x="133.03" y="-411.2" font-family="Times New Roman,serif" font-size="14.00">1</text>
</g>
<!-- explore -->
<g id="node3" class="node">
<title>explore</title>
<ellipse fill="none" stroke="black" cx="183" cy="-372" rx="38.56" ry="18"/>
<text text-anchor="middle" x="183" y="-366.95" font-family="Times New Roman,serif" font-size="14.00">explore</text>
</g>
<!-- to&#45;&gt;explore -->
<g id="edge2" class="edge">
<title>to&#45;&gt;explore</title>
<path fill="none" stroke="black" d="M157.17,-442.82C161.58,-430.89 167.62,-414.55 172.76,-400.68"/>
<polygon fill="black" stroke="black" points="175.91,-402.23 176.1,-391.64 169.35,-399.8 175.91,-402.23"/>
<text text-anchor="middle" x="173.24" y="-411.2" font-family="Times New Roman,serif" font-size="14.00">2</text>
</g>
<!-- out -->
<g id="node4" class="node">
<title>out</title>
<ellipse fill="none" stroke="black" cx="99" cy="-283.5" rx="27" ry="18"/>
<text text-anchor="middle" x="99" y="-278.45" font-family="Times New Roman,serif" font-size="14.00">out</text>
</g>
<!-- seek&#45;&gt;out -->
<g id="edge3" class="edge">
<title>seek&#45;&gt;out</title>
<path fill="none" stroke="black" d="M99,-353.91C99,-342.26 99,-326.55 99,-313.02"/>
<polygon fill="black" stroke="black" points="102.5,-313.36 99,-303.36 95.5,-313.36 102.5,-313.36"/>
<text text-anchor="middle" x="102.37" y="-322.7" font-family="Times New Roman,serif" font-size="14.00">1</text>
</g>
<!-- strange -->
<g id="node10" class="node">
<title>strange</title>
<ellipse fill="none" stroke="black" cx="182" cy="-283.5" rx="37.53" ry="18"/>
<text text-anchor="middle" x="182" y="-278.45" font-family="Times New Roman,serif" font-size="14.00">strange</text>
</g>
<!-- explore&#45;&gt;strange -->
<g id="edge11" class="edge">
<title>explore&#45;&gt;strange</title>
<path fill="none" stroke="black" d="M182.8,-353.91C182.66,-342.26 182.48,-326.55 182.33,-313.02"/>
<polygon fill="black" stroke="black" points="185.83,-313.32 182.22,-303.36 178.83,-313.4 185.83,-313.32"/>
<text text-anchor="middle" x="185.96" y="-322.7" font-family="Times New Roman,serif" font-size="14.00">1</text>
</g>
<!-- new -->
<g id="node5" class="node">
<title>new</title>
<ellipse fill="none" stroke="black" cx="146" cy="-195" rx="27" ry="18"/>
<text text-anchor="middle" x="146" y="-189.95" font-family="Times New Roman,serif" font-size="14.00">new</text>
</g>
<!-- out&#45;&gt;new -->
<g id="edge4" class="edge">
<title>out&#45;&gt;new</title>
<path fill="none" stroke="black" d="M107.84,-266.23C114.6,-253.79 124.06,-236.38 131.86,-222.01"/>
<polygon fill="black" stroke="black" points="134.77,-223.98 136.47,-213.53 128.62,-220.64 134.77,-223.98"/>
<text text-anchor="middle" x="130.08" y="-234.2" font-family="Times New Roman,serif" font-size="14.00">1</text>
</g>
<!-- life -->
<g id="node6" class="node">
<title>life</title>
<ellipse fill="none" stroke="black" cx="117" cy="-106.5" rx="27" ry="18"/>
<text text-anchor="middle" x="117" y="-101.45" font-family="Times New Roman,serif" font-size="14.00">life</text>
</g>
<!-- new&#45;&gt;life -->
<g id="edge5" class="edge">
<title>new&#45;&gt;life</title>
<path fill="none" stroke="black" d="M140.27,-176.91C136.3,-165.06 130.92,-149.02 126.33,-135.34"/>
<polygon fill="black" stroke="black" points="129.69,-134.36 123.2,-125.99 123.06,-136.58 129.69,-134.36"/>
<text text-anchor="middle" x="137.47" y="-145.7" font-family="Times New Roman,serif" font-size="14.00">1</text>
</g>
<!-- worlds -->
<g id="node7" class="node">
<title>worlds</title>
<ellipse fill="none" stroke="black" cx="36" cy="-106.5" rx="36" ry="18"/>
<text text-anchor="middle" x="36" y="-101.45" font-family="Times New Roman,serif" font-size="14.00">worlds</text>
</g>
<!-- new&#45;&gt;worlds -->
<g id="edge6" class="edge">
<title>new&#45;&gt;worlds</title>
<path fill="none" stroke="black" d="M129.29,-180.86C111.88,-167.17 84.31,-145.49 63.65,-129.25"/>
<polygon fill="black" stroke="black" points="65.92,-126.58 55.9,-123.15 61.59,-132.08 65.92,-126.58"/>
<text text-anchor="middle" x="104.22" y="-145.7" font-family="Times New Roman,serif" font-size="14.00">1</text>
</g>
<!-- civilizations -->
<g id="node8" class="node">
<title>civilizations</title>
<ellipse fill="none" stroke="black" cx="261" cy="-106.5" rx="55.96" ry="18"/>
<text text-anchor="middle" x="261" y="-101.45" font-family="Times New Roman,serif" font-size="14.00">civilizations</text>
</g>
<!-- new&#45;&gt;civilizations -->
<g id="edge7" class="edge">
<title>new&#45;&gt;civilizations</title>
<path fill="none" stroke="black" d="M163.86,-181.14C172.92,-174.57 184.09,-166.42 194,-159 206.32,-149.77 219.8,-139.46 231.42,-130.49"/>
<polygon fill="black" stroke="black" points="233.31,-133.45 239.08,-124.57 229.03,-127.92 233.31,-133.45"/>
<text text-anchor="middle" x="217.75" y="-145.7" font-family="Times New Roman,serif" font-size="14.00">1</text>
</g>
<!-- and -->
<g id="node9" class="node">
<title>and</title>
<ellipse fill="none" stroke="black" cx="149" cy="-18" rx="27" ry="18"/>
<text text-anchor="middle" x="149" y="-12.95" font-family="Times New Roman,serif" font-size="14.00">and</text>
</g>
<!-- life&#45;&gt;and -->
<g id="edge8" class="edge">
<title>life&#45;&gt;and</title>
<path fill="none" stroke="black" d="M123.17,-88.82C127.61,-76.81 133.7,-60.34 138.86,-46.41"/>
<polygon fill="black" stroke="black" points="142.02,-47.93 142.21,-37.34 135.46,-45.51 142.02,-47.93"/>
<text text-anchor="middle" x="139.24" y="-57.2" font-family="Times New Roman,serif" font-size="14.00">1</text>
</g>
<!-- worlds&#45;&gt;to -->
<g id="edge10" class="edge">
<title>worlds&#45;&gt;to</title>
<path fill="none" stroke="black" d="M37.9,-124.71C39.65,-142.15 42,-169.91 42,-194 42,-373 42,-373 42,-373 42,-411.36 83.93,-435.41 115.78,-448.15"/>
<polygon fill="black" stroke="black" points="114.53,-451.42 125.12,-451.65 116.99,-444.86 114.53,-451.42"/>
<text text-anchor="middle" x="45.37" y="-278.45" font-family="Times New Roman,serif" font-size="14.00">1</text>
</g>
<!-- civilizations&#45;&gt;to -->
<g id="edge13" class="edge">
<title>civilizations&#45;&gt;to</title>
<path fill="none" stroke="black" d="M260.36,-124.73C259.78,-142.19 259,-169.97 259,-194 259,-373 259,-373 259,-373 259,-411.14 217.45,-435.25 185.9,-448.05"/>
<polygon fill="black" stroke="black" points="184.75,-444.74 176.65,-451.58 187.24,-451.29 184.75,-444.74"/>
<text text-anchor="middle" x="262.37" y="-278.45" font-family="Times New Roman,serif" font-size="14.00">1</text>
</g>
<!-- and&#45;&gt;new -->
<g id="edge9" class="edge">
<title>and&#45;&gt;new</title>
<path fill="none" stroke="black" d="M150.58,-36.18C152.28,-57.07 154.56,-93.38 153,-124.5 152.32,-137.99 150.91,-152.9 149.53,-165.44"/>
<polygon fill="black" stroke="black" points="146.08,-164.77 148.41,-175.11 153.03,-165.58 146.08,-164.77"/>
<text text-anchor="middle" x="156.9" y="-101.45" font-family="Times New Roman,serif" font-size="14.00">1</text>
</g>
<!-- strange&#45;&gt;new -->
<g id="edge12" class="edge">
<title>strange&#45;&gt;new</title>
<path fill="none" stroke="black" d="M174.88,-265.41C169.87,-253.37 163.06,-236.99 157.3,-223.17"/>
<polygon fill="black" stroke="black" points="160.63,-222.04 153.55,-214.16 154.17,-224.73 160.63,-222.04"/>
<text text-anchor="middle" x="170.6" y="-234.2" font-family="Times New Roman,serif" font-size="14.00">1</text>
</g>
</g>
</svg>
