<?xml version="1.0" encoding="UTF-8" standalone="no"?>
<!DOCTYPE svg PUBLIC "-//W3C//DTD SVG 1.1//EN"
 "http://www.w3.org/Graphics/SVG/1.1/DTD/svg11.dtd">
<!-- Generated by graphviz version 12.2.1 (20241206.2353)
 -->
<!-- Title: BuildGraph Pages: 1 -->
<svg width="440pt" height="1031pt"
 viewBox="0.00 0.00 439.89 1030.75" xmlns="http://www.w3.org/2000/svg" xmlns:xlink="http://www.w3.org/1999/xlink">
<g id="graph0" class="graph" transform="scale(1 1) rotate(0) translate(4 1026.75)">
<title>BuildGraph</title>
<polygon fill="white" stroke="none" points="-4,4 -4,-1026.75 435.89,-1026.75 435.89,4 -4,4"/>
<!-- start -->
<g id="node1" class="node">
<title>start</title>
<ellipse fill="lightgreen" stroke="black" cx="300.89" cy="-1004.75" rx="31.6" ry="18"/>
<text text-anchor="middle" x="300.89" y="-999.33" font-family="Times New Roman,serif" font-size="14.00">开始</text>
</g>
<!-- readFile -->
<g id="node2" class="node">
<title>readFile</title>
<polygon fill="lightblue" stroke="black" points="356.14,-949.75 245.64,-949.75 245.64,-913.75 356.14,-913.75 356.14,-949.75"/>
<text text-anchor="middle" x="300.89" y="-926.33" font-family="Times New Roman,serif" font-size="14.00">读取文本文件</text>
</g>
<!-- start&#45;&gt;readFile -->
<g id="edge1" class="edge">
<title>start&#45;&gt;readFile</title>
<path fill="none" stroke="blue" d="M300.89,-986.56C300.89,-978.98 300.89,-969.85 300.89,-961.29"/>
<polygon fill="blue" stroke="blue" points="304.39,-961.29 300.89,-951.29 297.39,-961.29 304.39,-961.29"/>
</g>
<!-- init -->
<g id="node3" class="node">
<title>init</title>
<polygon fill="lightblue" stroke="black" points="431.89,-876.75 169.89,-876.75 169.89,-836.5 431.89,-836.5 431.89,-876.75"/>
<text text-anchor="middle" x="300.89" y="-859.45" font-family="Times New Roman,serif" font-size="14.00">初始化数据结构</text>
<text text-anchor="middle" x="300.89" y="-843.7" font-family="Times New Roman,serif" font-size="14.00">(wordToIndex, indexToWord, adjacencyList)</text>
</g>
<!-- readFile&#45;&gt;init -->
<g id="edge2" class="edge">
<title>readFile&#45;&gt;init</title>
<path fill="none" stroke="blue" d="M300.89,-913.42C300.89,-906.01 300.89,-897.14 300.89,-888.66"/>
<polygon fill="blue" stroke="blue" points="304.39,-888.66 300.89,-878.66 297.39,-888.66 304.39,-888.66"/>
</g>
<!-- processLine -->
<g id="node4" class="node">
<title>processLine</title>
<polygon fill="lightblue" stroke="black" points="348.27,-799.5 253.52,-799.5 253.52,-763.5 348.27,-763.5 348.27,-799.5"/>
<text text-anchor="middle" x="300.89" y="-776.08" font-family="Times New Roman,serif" font-size="14.00">处理文本行</text>
</g>
<!-- init&#45;&gt;processLine -->
<g id="edge3" class="edge">
<title>init&#45;&gt;processLine</title>
<path fill="none" stroke="blue" d="M300.89,-836.03C300.89,-828.32 300.89,-819.32 300.89,-810.93"/>
<polygon fill="blue" stroke="blue" points="304.39,-811.17 300.89,-801.17 297.39,-811.17 304.39,-811.17"/>
</g>
<!-- extractWords -->
<g id="node5" class="node">
<title>extractWords</title>
<polygon fill="lightblue" stroke="black" points="306.39,-726.5 227.39,-726.5 227.39,-690.5 306.39,-690.5 306.39,-726.5"/>
<text text-anchor="middle" x="266.89" y="-703.08" font-family="Times New Roman,serif" font-size="14.00">提取单词</text>
</g>
<!-- processLine&#45;&gt;extractWords -->
<g id="edge4" class="edge">
<title>processLine&#45;&gt;extractWords</title>
<path fill="none" stroke="blue" d="M292.66,-763.31C288.86,-755.38 284.26,-745.76 280,-736.86"/>
<polygon fill="blue" stroke="blue" points="283.18,-735.4 275.7,-727.89 276.86,-738.42 283.18,-735.4"/>
</g>
<!-- prevWordNull -->
<g id="node6" class="node">
<title>prevWordNull</title>
<polygon fill="lightyellow" stroke="black" points="134.89,-653.5 42.39,-611.75 134.89,-570 227.39,-611.75 134.89,-653.5"/>
<text text-anchor="middle" x="134.89" y="-615.33" font-family="Times New Roman,serif" font-size="14.00">previousWord</text>
<text text-anchor="middle" x="134.89" y="-598.83" font-family="Times New Roman,serif" font-size="14.00">是否为null?</text>
</g>
<!-- extractWords&#45;&gt;prevWordNull -->
<g id="edge5" class="edge">
<title>extractWords&#45;&gt;prevWordNull</title>
<path fill="none" stroke="blue" d="M242.68,-690.12C224.98,-677.42 200.47,-659.82 179.29,-644.62"/>
<polygon fill="blue" stroke="blue" points="181.54,-641.92 171.37,-638.94 177.46,-647.61 181.54,-641.92"/>
</g>
<!-- addNode -->
<g id="node7" class="node">
<title>addNode</title>
<polygon fill="lightblue" stroke="black" points="205.89,-430.5 63.89,-430.5 63.89,-394.5 205.89,-394.5 205.89,-430.5"/>
<text text-anchor="middle" x="134.89" y="-407.07" font-family="Times New Roman,serif" font-size="14.00">将单词添加到图中</text>
</g>
<!-- prevWordNull&#45;&gt;addNode -->
<g id="edge6" class="edge">
<title>prevWordNull&#45;&gt;addNode</title>
<path fill="none" stroke="blue" d="M88.19,-590.7C41.48,-567.58 -19.85,-526.98 6.89,-482.25 19.52,-461.13 41.11,-446.12 63,-435.64"/>
<polygon fill="blue" stroke="blue" points="64.31,-438.89 72.01,-431.61 61.45,-432.5 64.31,-438.89"/>
</g>
<!-- addEdge -->
<g id="node8" class="node">
<title>addEdge</title>
<polygon fill="lightblue" stroke="black" points="254.27,-518.25 15.52,-518.25 15.52,-482.25 254.27,-482.25 254.27,-518.25"/>
<text text-anchor="middle" x="134.89" y="-495.57" font-family="Times New Roman,serif" font-size="14.00">添加边(previousWord → currentWord)</text>
</g>
<!-- prevWordNull&#45;&gt;addEdge -->
<g id="edge7" class="edge">
<title>prevWordNull&#45;&gt;addEdge</title>
<path fill="none" stroke="blue" d="M134.89,-569.66C134.89,-556.37 134.89,-541.94 134.89,-529.76"/>
<polygon fill="blue" stroke="blue" points="138.39,-529.99 134.89,-519.99 131.39,-529.99 138.39,-529.99"/>
<text text-anchor="middle" x="142.77" y="-538.7" font-family="Times New Roman,serif" font-size="14.00">否</text>
</g>
<!-- updatePrevWord -->
<g id="node9" class="node">
<title>updatePrevWord</title>
<polygon fill="lightblue" stroke="black" points="246.14,-357.5 69.64,-357.5 69.64,-321.5 246.14,-321.5 246.14,-357.5"/>
<text text-anchor="middle" x="157.89" y="-334.45" font-family="Times New Roman,serif" font-size="14.00">previousWord = currentWord</text>
</g>
<!-- addNode&#45;&gt;updatePrevWord -->
<g id="edge9" class="edge">
<title>addNode&#45;&gt;updatePrevWord</title>
<path fill="none" stroke="blue" d="M140.46,-394.31C142.98,-386.55 146.01,-377.18 148.84,-368.45"/>
<polygon fill="blue" stroke="blue" points="152.16,-369.56 151.91,-358.97 145.5,-367.4 152.16,-369.56"/>
</g>
<!-- addEdge&#45;&gt;addNode -->
<g id="edge8" class="edge">
<title>addEdge&#45;&gt;addNode</title>
<path fill="none" stroke="blue" d="M134.89,-481.9C134.89,-470.51 134.89,-455.34 134.89,-442.18"/>
<polygon fill="blue" stroke="blue" points="138.39,-442.34 134.89,-432.34 131.39,-442.34 138.39,-442.34"/>
</g>
<!-- moreWords -->
<g id="node10" class="node">
<title>moreWords</title>
<polygon fill="lightyellow" stroke="black" points="190.89,-284.5 75.32,-266.5 190.89,-248.5 306.47,-266.5 190.89,-284.5"/>
<text text-anchor="middle" x="190.89" y="-261.82" font-family="Times New Roman,serif" font-size="14.00">还有更多单词?</text>
</g>
<!-- updatePrevWord&#45;&gt;moreWords -->
<g id="edge10" class="edge">
<title>updatePrevWord&#45;&gt;moreWords</title>
<path fill="none" stroke="blue" d="M165.88,-321.31C169.72,-313.05 174.41,-302.97 178.68,-293.78"/>
<polygon fill="blue" stroke="blue" points="181.75,-295.47 182.79,-284.93 175.4,-292.52 181.75,-295.47"/>
</g>
<!-- moreWords&#45;&gt;extractWords -->
<g id="edge11" class="edge">
<title>moreWords&#45;&gt;extractWords</title>
<path fill="none" stroke="blue" d="M226.86,-279.36C252.29,-290.26 281.89,-309.24 281.89,-338.5 281.89,-612.75 281.89,-612.75 281.89,-612.75 281.89,-635.26 277.71,-660.42 273.76,-679.15"/>
<polygon fill="blue" stroke="blue" points="270.4,-678.17 271.64,-688.69 277.23,-679.69 270.4,-678.17"/>
<text text-anchor="middle" x="289.77" y="-450.95" font-family="Times New Roman,serif" font-size="14.00">是</text>
</g>
<!-- moreLines -->
<g id="node11" class="node">
<title>moreLines</title>
<polygon fill="lightyellow" stroke="black" points="262.89,-196.75 162.94,-178.75 262.89,-160.75 362.84,-178.75 262.89,-196.75"/>
<text text-anchor="middle" x="262.89" y="-174.07" font-family="Times New Roman,serif" font-size="14.00">还有更多行?</text>
</g>
<!-- moreWords&#45;&gt;moreLines -->
<g id="edge12" class="edge">
<title>moreWords&#45;&gt;moreLines</title>
<path fill="none" stroke="blue" d="M203.77,-250.17C214.62,-237.24 230.33,-218.53 242.84,-203.64"/>
<polygon fill="blue" stroke="blue" points="245.41,-206.02 249.16,-196.11 240.05,-201.51 245.41,-206.02"/>
<text text-anchor="middle" x="241.22" y="-217.2" font-family="Times New Roman,serif" font-size="14.00">否</text>
</g>
<!-- moreLines&#45;&gt;processLine -->
<g id="edge13" class="edge">
<title>moreLines&#45;&gt;processLine</title>
<path fill="none" stroke="blue" d="M284.89,-193.21C306.06,-208.03 334.89,-234.01 334.89,-265.5 334.89,-709.5 334.89,-709.5 334.89,-709.5 334.89,-725.14 328.1,-740.98 320.59,-753.72"/>
<polygon fill="blue" stroke="blue" points="317.78,-751.62 315.34,-761.93 323.68,-755.39 317.78,-751.62"/>
<text text-anchor="middle" x="342.77" y="-450.95" font-family="Times New Roman,serif" font-size="14.00">是</text>
</g>
<!-- createMatrix -->
<g id="node12" class="node">
<title>createMatrix</title>
<polygon fill="lightblue" stroke="black" points="318.14,-109 207.64,-109 207.64,-73 318.14,-73 318.14,-109"/>
<text text-anchor="middle" x="262.89" y="-85.58" font-family="Times New Roman,serif" font-size="14.00">创建邻接矩阵</text>
</g>
<!-- moreLines&#45;&gt;createMatrix -->
<g id="edge14" class="edge">
<title>moreLines&#45;&gt;createMatrix</title>
<path fill="none" stroke="blue" d="M262.89,-160.4C262.89,-149.01 262.89,-133.84 262.89,-120.68"/>
<polygon fill="blue" stroke="blue" points="266.39,-120.84 262.89,-110.84 259.39,-120.84 266.39,-120.84"/>
<text text-anchor="middle" x="270.77" y="-129.45" font-family="Times New Roman,serif" font-size="14.00">否</text>
</g>
<!-- end -->
<g id="node13" class="node">
<title>end</title>
<ellipse fill="lightgreen" stroke="black" cx="262.89" cy="-18" rx="31.6" ry="18"/>
<text text-anchor="middle" x="262.89" y="-12.57" font-family="Times New Roman,serif" font-size="14.00">结束</text>
</g>
<!-- createMatrix&#45;&gt;end -->
<g id="edge15" class="edge">
<title>createMatrix&#45;&gt;end</title>
<path fill="none" stroke="blue" d="M262.89,-72.81C262.89,-65.23 262.89,-56.1 262.89,-47.54"/>
<polygon fill="blue" stroke="blue" points="266.39,-47.54 262.89,-37.54 259.39,-47.54 266.39,-47.54"/>
</g>
</g>
</svg>
