<?xml version="1.0" encoding="UTF-8" standalone="no"?>
<!DOCTYPE svg PUBLIC "-//W3C//DTD SVG 1.1//EN"
 "http://www.w3.org/Graphics/SVG/1.1/DTD/svg11.dtd">
<!-- Generated by graphviz version 12.2.1 (20241206.2353)
 -->
<!-- Title: GenerateNewText Pages: 1 -->
<svg width="429pt" height="1429pt"
 viewBox="0.00 0.00 428.57 1428.75" xmlns="http://www.w3.org/2000/svg" xmlns:xlink="http://www.w3.org/1999/xlink">
<g id="graph0" class="graph" transform="scale(1 1) rotate(0) translate(4 1424.75)">
<title>GenerateNewText</title>
<polygon fill="white" stroke="none" points="-4,4 -4,-1424.75 424.57,-1424.75 424.57,4 -4,4"/>
<!-- start -->
<g id="node1" class="node">
<title>start</title>
<ellipse fill="lightgreen" stroke="black" cx="146.82" cy="-1402.75" rx="31.6" ry="18"/>
<text text-anchor="middle" x="146.82" y="-1397.33" font-family="Times New Roman,serif" font-size="14.00">开始</text>
</g>
<!-- checkEmpty -->
<g id="node2" class="node">
<title>checkEmpty</title>
<polygon fill="lightyellow" stroke="black" points="146.82,-1347.75 0,-1329.75 146.82,-1311.75 293.64,-1329.75 146.82,-1347.75"/>
<text text-anchor="middle" x="146.82" y="-1325.08" font-family="Times New Roman,serif" font-size="14.00">输入文本是否为空?</text>
</g>
<!-- start&#45;&gt;checkEmpty -->
<g id="edge1" class="edge">
<title>start&#45;&gt;checkEmpty</title>
<path fill="none" stroke="blue" d="M146.82,-1384.56C146.82,-1376.98 146.82,-1367.85 146.82,-1359.29"/>
<polygon fill="blue" stroke="blue" points="150.32,-1359.29 146.82,-1349.29 143.32,-1359.29 150.32,-1359.29"/>
</g>
<!-- returnEmpty -->
<g id="node3" class="node">
<title>returnEmpty</title>
<polygon fill="lightblue" stroke="black" points="174.07,-1206 63.57,-1206 63.57,-1170 174.07,-1170 174.07,-1206"/>
<text text-anchor="middle" x="118.82" y="-1182.58" font-family="Times New Roman,serif" font-size="14.00">返回空字符串</text>
</g>
<!-- checkEmpty&#45;&gt;returnEmpty -->
<g id="edge2" class="edge">
<title>checkEmpty&#45;&gt;returnEmpty</title>
<path fill="none" stroke="blue" d="M143.44,-1311.89C138.76,-1288.52 130.23,-1245.94 124.54,-1217.55"/>
<polygon fill="blue" stroke="blue" points="127.99,-1216.96 122.6,-1207.84 121.13,-1218.33 127.99,-1216.96"/>
<text text-anchor="middle" x="147.62" y="-1280.45" font-family="Times New Roman,serif" font-size="14.00">是</text>
</g>
<!-- extractWords -->
<g id="node4" class="node">
<title>extractWords</title>
<polygon fill="lightblue" stroke="black" points="301.82,-1260 159.82,-1260 159.82,-1224 301.82,-1224 301.82,-1260"/>
<text text-anchor="middle" x="230.82" y="-1236.58" font-family="Times New Roman,serif" font-size="14.00">提取文本中的单词</text>
</g>
<!-- checkEmpty&#45;&gt;extractWords -->
<g id="edge3" class="edge">
<title>checkEmpty&#45;&gt;extractWords</title>
<path fill="none" stroke="blue" d="M161.84,-1313.42C174.07,-1300.94 191.59,-1283.05 205.91,-1268.43"/>
<polygon fill="blue" stroke="blue" points="208.36,-1270.93 212.85,-1261.34 203.36,-1266.04 208.36,-1270.93"/>
<text text-anchor="middle" x="204.22" y="-1280.45" font-family="Times New Roman,serif" font-size="14.00">否</text>
</g>
<!-- end -->
<g id="node20" class="node">
<title>end</title>
<ellipse fill="lightgreen" stroke="black" cx="138.82" cy="-18" rx="31.6" ry="18"/>
<text text-anchor="middle" x="138.82" y="-12.57" font-family="Times New Roman,serif" font-size="14.00">结束</text>
</g>
<!-- returnEmpty&#45;&gt;end -->
<g id="edge21" class="edge">
<title>returnEmpty&#45;&gt;end</title>
<path fill="none" stroke="blue" d="M113.52,-1169.51C108.21,-1150.44 100.82,-1118.9 100.82,-1091.12 100.82,-1091.12 100.82,-1091.12 100.82,-90 100.82,-73.18 109.22,-56.48 118.12,-43.51"/>
<polygon fill="blue" stroke="blue" points="120.84,-45.71 123.99,-35.6 115.22,-41.54 120.84,-45.71"/>
</g>
<!-- checkWordCount -->
<g id="node5" class="node">
<title>checkWordCount</title>
<polygon fill="lightyellow" stroke="black" points="235.82,-1152 128.43,-1134 235.82,-1116 343.21,-1134 235.82,-1152"/>
<text text-anchor="middle" x="235.82" y="-1129.33" font-family="Times New Roman,serif" font-size="14.00">单词数量&lt;=1?</text>
</g>
<!-- extractWords&#45;&gt;checkWordCount -->
<g id="edge4" class="edge">
<title>extractWords&#45;&gt;checkWordCount</title>
<path fill="none" stroke="blue" d="M231.63,-1223.97C232.39,-1207.76 233.56,-1183.06 234.46,-1163.79"/>
<polygon fill="blue" stroke="blue" points="237.96,-1164.01 234.93,-1153.85 230.97,-1163.68 237.96,-1164.01"/>
</g>
<!-- returnOriginal -->
<g id="node6" class="node">
<title>returnOriginal</title>
<polygon fill="lightblue" stroke="black" points="214.2,-1010.25 119.45,-1010.25 119.45,-974.25 214.2,-974.25 214.2,-1010.25"/>
<text text-anchor="middle" x="166.82" y="-986.83" font-family="Times New Roman,serif" font-size="14.00">返回原文本</text>
</g>
<!-- checkWordCount&#45;&gt;returnOriginal -->
<g id="edge5" class="edge">
<title>checkWordCount&#45;&gt;returnOriginal</title>
<path fill="none" stroke="blue" d="M225.46,-1117.3C216.68,-1103.62 204.08,-1083.08 194.82,-1064.25 187.97,-1050.31 181.53,-1034.26 176.55,-1020.94"/>
<polygon fill="blue" stroke="blue" points="179.98,-1020.13 173.26,-1011.93 173.4,-1022.53 179.98,-1020.13"/>
<text text-anchor="middle" x="220.82" y="-1084.7" font-family="Times New Roman,serif" font-size="14.00">是</text>
</g>
<!-- processFirstWord -->
<g id="node7" class="node">
<title>processFirstWord</title>
<polygon fill="lightblue" stroke="black" points="329.95,-1064.25 203.7,-1064.25 203.7,-1028.25 329.95,-1028.25 329.95,-1064.25"/>
<text text-anchor="middle" x="266.82" y="-1040.83" font-family="Times New Roman,serif" font-size="14.00">处理第一个单词</text>
</g>
<!-- checkWordCount&#45;&gt;processFirstWord -->
<g id="edge6" class="edge">
<title>checkWordCount&#45;&gt;processFirstWord</title>
<path fill="none" stroke="blue" d="M241.65,-1116.87C245.92,-1105.08 251.8,-1088.8 256.81,-1074.94"/>
<polygon fill="blue" stroke="blue" points="259.97,-1076.5 260.08,-1065.91 253.39,-1074.12 259.97,-1076.5"/>
<text text-anchor="middle" x="261.97" y="-1084.7" font-family="Times New Roman,serif" font-size="14.00">否</text>
</g>
<!-- returnOriginal&#45;&gt;end -->
<g id="edge22" class="edge">
<title>returnOriginal&#45;&gt;end</title>
<path fill="none" stroke="blue" d="M157.96,-974.02C149.76,-956.45 138.82,-928.17 138.82,-902.25 138.82,-902.25 138.82,-902.25 138.82,-90 138.82,-76.08 138.82,-60.63 138.82,-47.7"/>
<polygon fill="blue" stroke="blue" points="142.32,-47.73 138.82,-37.73 135.32,-47.73 142.32,-47.73"/>
</g>
<!-- initForLoop -->
<g id="node8" class="node">
<title>initForLoop</title>
<polygon fill="lightblue" stroke="black" points="324.57,-956.25 211.07,-956.25 211.07,-920.25 324.57,-920.25 324.57,-956.25"/>
<text text-anchor="middle" x="267.82" y="-933.58" font-family="Times New Roman,serif" font-size="14.00">初始化循环i=1</text>
</g>
<!-- processFirstWord&#45;&gt;initForLoop -->
<g id="edge7" class="edge">
<title>processFirstWord&#45;&gt;initForLoop</title>
<path fill="none" stroke="blue" d="M266.98,-1028.22C267.14,-1012.01 267.37,-987.31 267.55,-968.04"/>
<polygon fill="blue" stroke="blue" points="271.05,-968.14 267.64,-958.1 264.05,-968.07 271.05,-968.14"/>
</g>
<!-- getPrevWord -->
<g id="node9" class="node">
<title>getPrevWord</title>
<polygon fill="lightblue" stroke="black" points="349.95,-883.25 199.7,-883.25 199.7,-847.25 349.95,-847.25 349.95,-883.25"/>
<text text-anchor="middle" x="274.82" y="-860.58" font-family="Times New Roman,serif" font-size="14.00">获取前一个单词(i&#45;1)</text>
</g>
<!-- initForLoop&#45;&gt;getPrevWord -->
<g id="edge8" class="edge">
<title>initForLoop&#45;&gt;getPrevWord</title>
<path fill="none" stroke="blue" d="M269.52,-920.06C270.27,-912.39 271.19,-903.14 272.04,-894.49"/>
<polygon fill="blue" stroke="blue" points="275.5,-895.08 272.99,-884.79 268.53,-894.39 275.5,-895.08"/>
</g>
<!-- getCurrWord -->
<g id="node10" class="node">
<title>getCurrWord</title>
<polygon fill="lightblue" stroke="black" points="336.45,-810.25 213.2,-810.25 213.2,-774.25 336.45,-774.25 336.45,-810.25"/>
<text text-anchor="middle" x="274.82" y="-787.58" font-family="Times New Roman,serif" font-size="14.00">获取当前单词(i)</text>
</g>
<!-- getPrevWord&#45;&gt;getCurrWord -->
<g id="edge9" class="edge">
<title>getPrevWord&#45;&gt;getCurrWord</title>
<path fill="none" stroke="blue" d="M274.82,-847.06C274.82,-839.48 274.82,-830.35 274.82,-821.79"/>
<polygon fill="blue" stroke="blue" points="278.32,-821.79 274.82,-811.79 271.32,-821.79 278.32,-821.79"/>
</g>
<!-- queryBridge -->
<g id="node11" class="node">
<title>queryBridge</title>
<polygon fill="lightblue" stroke="black" points="322.2,-737.25 227.45,-737.25 227.45,-701.25 322.2,-701.25 322.2,-737.25"/>
<text text-anchor="middle" x="274.82" y="-713.83" font-family="Times New Roman,serif" font-size="14.00">查询桥接词</text>
</g>
<!-- getCurrWord&#45;&gt;queryBridge -->
<g id="edge10" class="edge">
<title>getCurrWord&#45;&gt;queryBridge</title>
<path fill="none" stroke="blue" d="M274.82,-774.06C274.82,-766.48 274.82,-757.35 274.82,-748.79"/>
<polygon fill="blue" stroke="blue" points="278.32,-748.79 274.82,-738.79 271.32,-748.79 278.32,-748.79"/>
</g>
<!-- checkBridge -->
<g id="node12" class="node">
<title>checkBridge</title>
<polygon fill="lightyellow" stroke="black" points="274.82,-664.25 174.87,-646.25 274.82,-628.25 374.77,-646.25 274.82,-664.25"/>
<text text-anchor="middle" x="274.82" y="-641.58" font-family="Times New Roman,serif" font-size="14.00">找到桥接词?</text>
</g>
<!-- queryBridge&#45;&gt;checkBridge -->
<g id="edge11" class="edge">
<title>queryBridge&#45;&gt;checkBridge</title>
<path fill="none" stroke="blue" d="M274.82,-701.06C274.82,-693.48 274.82,-684.35 274.82,-675.79"/>
<polygon fill="blue" stroke="blue" points="278.32,-675.79 274.82,-665.79 271.32,-675.79 278.32,-675.79"/>
</g>
<!-- extractBridges -->
<g id="node13" class="node">
<title>extractBridges</title>
<polygon fill="lightblue" stroke="black" points="331.95,-576.5 205.7,-576.5 205.7,-540.5 331.95,-540.5 331.95,-576.5"/>
<text text-anchor="middle" x="268.82" y="-553.08" font-family="Times New Roman,serif" font-size="14.00">提取桥接词列表</text>
</g>
<!-- checkBridge&#45;&gt;extractBridges -->
<g id="edge12" class="edge">
<title>checkBridge&#45;&gt;extractBridges</title>
<path fill="none" stroke="blue" d="M273.64,-628.31C272.84,-616.95 271.77,-601.7 270.85,-588.44"/>
<polygon fill="blue" stroke="blue" points="274.34,-588.24 270.15,-578.5 267.36,-588.72 274.34,-588.24"/>
<text text-anchor="middle" x="280.23" y="-596.95" font-family="Times New Roman,serif" font-size="14.00">是</text>
</g>
<!-- addCurrentWord -->
<g id="node16" class="node">
<title>addCurrentWord</title>
<polygon fill="lightblue" stroke="black" points="366.57,-342.75 193.07,-342.75 193.07,-306.75 366.57,-306.75 366.57,-342.75"/>
<text text-anchor="middle" x="279.82" y="-319.32" font-family="Times New Roman,serif" font-size="14.00">添加当前单词到新文本</text>
</g>
<!-- checkBridge&#45;&gt;addCurrentWord -->
<g id="edge13" class="edge">
<title>checkBridge&#45;&gt;addCurrentWord</title>
<path fill="none" stroke="blue" d="M301.56,-632.61C326.81,-618.61 360.82,-593.45 360.82,-559.5 360.82,-559.5 360.82,-559.5 360.82,-396.75 360.82,-376.4 346.18,-360.52 329.35,-348.98"/>
<polygon fill="blue" stroke="blue" points="331.46,-346.18 321.13,-343.83 327.74,-352.11 331.46,-346.18"/>
<text text-anchor="middle" x="368.7" y="-465.32" font-family="Times New Roman,serif" font-size="14.00">否</text>
</g>
<!-- selectRandomBridge -->
<g id="node14" class="node">
<title>selectRandomBridge</title>
<polygon fill="lightblue" stroke="black" points="324.7,-488.75 166.95,-488.75 166.95,-452.75 324.7,-452.75 324.7,-488.75"/>
<text text-anchor="middle" x="245.82" y="-465.32" font-family="Times New Roman,serif" font-size="14.00">随机选择一个桥接词</text>
</g>
<!-- extractBridges&#45;&gt;selectRandomBridge -->
<g id="edge14" class="edge">
<title>extractBridges&#45;&gt;selectRandomBridge</title>
<path fill="none" stroke="blue" d="M264.17,-540.15C261.08,-528.64 256.96,-513.28 253.41,-500.03"/>
<polygon fill="blue" stroke="blue" points="256.83,-499.29 250.86,-490.54 250.07,-501.1 256.83,-499.29"/>
</g>
<!-- addBridge -->
<g id="node15" class="node">
<title>addBridge</title>
<polygon fill="lightblue" stroke="black" points="328.7,-415.75 170.95,-415.75 170.95,-379.75 328.7,-379.75 328.7,-415.75"/>
<text text-anchor="middle" x="249.82" y="-392.32" font-family="Times New Roman,serif" font-size="14.00">添加桥接词到新文本</text>
</g>
<!-- selectRandomBridge&#45;&gt;addBridge -->
<g id="edge15" class="edge">
<title>selectRandomBridge&#45;&gt;addBridge</title>
<path fill="none" stroke="blue" d="M246.79,-452.56C247.22,-444.89 247.74,-435.64 248.23,-426.99"/>
<polygon fill="blue" stroke="blue" points="251.71,-427.47 248.78,-417.29 244.72,-427.08 251.71,-427.47"/>
</g>
<!-- addBridge&#45;&gt;addCurrentWord -->
<g id="edge16" class="edge">
<title>addBridge&#45;&gt;addCurrentWord</title>
<path fill="none" stroke="blue" d="M257.08,-379.56C260.44,-371.63 264.5,-362.01 268.26,-353.11"/>
<polygon fill="blue" stroke="blue" points="271.37,-354.75 272.04,-344.17 264.92,-352.02 271.37,-354.75"/>
</g>
<!-- incrementLoop -->
<g id="node17" class="node">
<title>incrementLoop</title>
<polygon fill="lightblue" stroke="black" points="306.82,-269.75 252.82,-269.75 252.82,-233.75 306.82,-233.75 306.82,-269.75"/>
<text text-anchor="middle" x="279.82" y="-246.7" font-family="Times New Roman,serif" font-size="14.00">i++</text>
</g>
<!-- addCurrentWord&#45;&gt;incrementLoop -->
<g id="edge17" class="edge">
<title>addCurrentWord&#45;&gt;incrementLoop</title>
<path fill="none" stroke="blue" d="M279.82,-306.56C279.82,-298.98 279.82,-289.85 279.82,-281.29"/>
<polygon fill="blue" stroke="blue" points="283.32,-281.29 279.82,-271.29 276.32,-281.29 283.32,-281.29"/>
</g>
<!-- checkMoreWords -->
<g id="node18" class="node">
<title>checkMoreWords</title>
<polygon fill="lightyellow" stroke="black" points="279.82,-196.75 175.35,-178.75 279.82,-160.75 384.29,-178.75 279.82,-196.75"/>
<text text-anchor="middle" x="279.82" y="-173.7" font-family="Times New Roman,serif" font-size="14.00">i &lt; words.size()?</text>
</g>
<!-- incrementLoop&#45;&gt;checkMoreWords -->
<g id="edge18" class="edge">
<title>incrementLoop&#45;&gt;checkMoreWords</title>
<path fill="none" stroke="blue" d="M279.82,-233.56C279.82,-225.98 279.82,-216.85 279.82,-208.29"/>
<polygon fill="blue" stroke="blue" points="283.32,-208.29 279.82,-198.29 276.32,-208.29 283.32,-208.29"/>
</g>
<!-- checkMoreWords&#45;&gt;getPrevWord -->
<g id="edge19" class="edge">
<title>checkMoreWords&#45;&gt;getPrevWord</title>
<path fill="none" stroke="blue" d="M331.75,-188.27C366.09,-197.21 404.82,-215.19 404.82,-250.75 404.82,-793.25 404.82,-793.25 404.82,-793.25 404.82,-818.9 385.08,-835.34 360.99,-845.86"/>
<polygon fill="blue" stroke="blue" points="359.87,-842.53 351.85,-849.45 362.44,-849.05 359.87,-842.53"/>
<text text-anchor="middle" x="412.7" y="-509.2" font-family="Times New Roman,serif" font-size="14.00">是</text>
</g>
<!-- returnNewText -->
<g id="node19" class="node">
<title>returnNewText</title>
<polygon fill="lightblue" stroke="black" points="294.2,-109 199.45,-109 199.45,-73 294.2,-73 294.2,-109"/>
<text text-anchor="middle" x="246.82" y="-85.58" font-family="Times New Roman,serif" font-size="14.00">返回新文本</text>
</g>
<!-- checkMoreWords&#45;&gt;returnNewText -->
<g id="edge20" class="edge">
<title>checkMoreWords&#45;&gt;returnNewText</title>
<path fill="none" stroke="blue" d="M273.62,-161.62C269.08,-149.83 262.81,-133.55 257.48,-119.69"/>
<polygon fill="blue" stroke="blue" points="260.86,-118.72 254,-110.65 254.32,-121.24 260.86,-118.72"/>
<text text-anchor="middle" x="274.15" y="-129.45" font-family="Times New Roman,serif" font-size="14.00">否</text>
</g>
<!-- returnNewText&#45;&gt;end -->
<g id="edge23" class="edge">
<title>returnNewText&#45;&gt;end</title>
<path fill="none" stroke="blue" d="M220.4,-72.63C204.68,-62.3 184.7,-49.16 168.44,-38.47"/>
<polygon fill="blue" stroke="blue" points="170.42,-35.58 160.14,-33.01 166.57,-41.43 170.42,-35.58"/>
</g>
</g>
</svg>
