<?xml version="1.0" encoding="UTF-8" standalone="no"?>
<!DOCTYPE svg PUBLIC "-//W3C//DTD SVG 1.1//EN"
 "http://www.w3.org/Graphics/SVG/1.1/DTD/svg11.dtd">
<!-- Generated by graphviz version 12.2.1 (20241206.2353)
 -->
<!-- Title: MainFlow Pages: 1 -->
<svg width="1427pt" height="439pt"
 viewBox="0.00 0.00 1427.12 439.25" xmlns="http://www.w3.org/2000/svg" xmlns:xlink="http://www.w3.org/1999/xlink">
<g id="graph0" class="graph" transform="scale(1 1) rotate(0) translate(4 435.25)">
<title>MainFlow</title>
<polygon fill="white" stroke="none" points="-4,4 -4,-435.25 1423.12,-435.25 1423.12,4 -4,4"/>
<!-- start -->
<g id="node1" class="node">
<title>start</title>
<ellipse fill="lightgreen" stroke="black" cx="860.12" cy="-413.25" rx="31.6" ry="18"/>
<text text-anchor="middle" x="860.12" y="-407.82" font-family="Times New Roman,serif" font-size="14.00">开始</text>
</g>
<!-- showMenu -->
<g id="node2" class="node">
<title>showMenu</title>
<polygon fill="lightblue" stroke="black" points="915.38,-358.25 804.88,-358.25 804.88,-322.25 915.38,-322.25 915.38,-358.25"/>
<text text-anchor="middle" x="860.12" y="-334.82" font-family="Times New Roman,serif" font-size="14.00">显示功能菜单</text>
</g>
<!-- start&#45;&gt;showMenu -->
<g id="edge1" class="edge">
<title>start&#45;&gt;showMenu</title>
<path fill="none" stroke="blue" d="M860.12,-395.06C860.12,-387.48 860.12,-378.35 860.12,-369.79"/>
<polygon fill="blue" stroke="blue" points="863.63,-369.79 860.13,-359.79 856.63,-369.79 863.63,-369.79"/>
</g>
<!-- getChoice -->
<g id="node3" class="node">
<title>getChoice</title>
<polygon fill="lightblue" stroke="black" points="430.38,-285.25 319.88,-285.25 319.88,-249.25 430.38,-249.25 430.38,-285.25"/>
<text text-anchor="middle" x="375.12" y="-261.82" font-family="Times New Roman,serif" font-size="14.00">获取用户选择</text>
</g>
<!-- showMenu&#45;&gt;getChoice -->
<g id="edge2" class="edge">
<title>showMenu&#45;&gt;getChoice</title>
<path fill="none" stroke="blue" d="M804.43,-337.6C731.56,-334.63 600.18,-326.43 490.12,-304.25 471.53,-300.5 451.68,-294.89 433.79,-289.21"/>
<polygon fill="blue" stroke="blue" points="434.97,-285.91 424.38,-286.15 432.81,-292.57 434.97,-285.91"/>
</g>
<!-- checkExit -->
<g id="node4" class="node">
<title>checkExit</title>
<polygon fill="lightyellow" stroke="black" points="329.12,-212.25 182.3,-194.25 329.12,-176.25 475.95,-194.25 329.12,-212.25"/>
<text text-anchor="middle" x="329.12" y="-189.57" font-family="Times New Roman,serif" font-size="14.00">选择是否为0(退出)?</text>
</g>
<!-- getChoice&#45;&gt;checkExit -->
<g id="edge3" class="edge">
<title>getChoice&#45;&gt;checkExit</title>
<path fill="none" stroke="blue" d="M363.99,-249.06C358.52,-240.62 351.82,-230.28 345.76,-220.93"/>
<polygon fill="blue" stroke="blue" points="348.73,-219.07 340.35,-212.58 342.85,-222.87 348.73,-219.07"/>
</g>
<!-- exit -->
<g id="node5" class="node">
<title>exit</title>
<polygon fill="lightblue" stroke="black" points="386.75,-124.5 185.5,-124.5 185.5,-88.5 386.75,-88.5 386.75,-124.5"/>
<text text-anchor="middle" x="286.12" y="-101.83" font-family="Times New Roman,serif" font-size="14.00">显示退出信息并关闭Scanner</text>
</g>
<!-- checkExit&#45;&gt;exit -->
<g id="edge4" class="edge">
<title>checkExit&#45;&gt;exit</title>
<path fill="none" stroke="blue" d="M321.04,-177.12C315.07,-165.21 306.8,-148.72 299.81,-134.78"/>
<polygon fill="blue" stroke="blue" points="303.06,-133.46 295.45,-126.09 296.8,-136.59 303.06,-133.46"/>
<text text-anchor="middle" x="319.35" y="-144.95" font-family="Times New Roman,serif" font-size="14.00">是</text>
</g>
<!-- checkChoice -->
<g id="node6" class="node">
<title>checkChoice</title>
<polygon fill="lightyellow" stroke="black" points="701.12,-124.5 569.93,-106.5 701.12,-88.5 832.32,-106.5 701.12,-124.5"/>
<text text-anchor="middle" x="701.12" y="-101.83" font-family="Times New Roman,serif" font-size="14.00">选择是哪个功能?</text>
</g>
<!-- checkExit&#45;&gt;checkChoice -->
<g id="edge5" class="edge">
<title>checkExit&#45;&gt;checkChoice</title>
<path fill="none" stroke="blue" d="M378.52,-181.86C446.86,-166.11 570.01,-137.72 642.79,-120.95"/>
<polygon fill="blue" stroke="blue" points="643.15,-124.46 652.11,-118.8 641.58,-117.63 643.15,-124.46"/>
<text text-anchor="middle" x="556.32" y="-144.95" font-family="Times New Roman,serif" font-size="14.00">否</text>
</g>
<!-- end -->
<g id="node15" class="node">
<title>end</title>
<ellipse fill="lightgreen" stroke="black" cx="206.12" cy="-18" rx="31.6" ry="18"/>
<text text-anchor="middle" x="206.12" y="-12.57" font-family="Times New Roman,serif" font-size="14.00">结束</text>
</g>
<!-- exit&#45;&gt;end -->
<g id="edge22" class="edge">
<title>exit&#45;&gt;end</title>
<path fill="none" stroke="blue" d="M270.32,-88.41C258.25,-75.36 241.48,-57.23 228.11,-42.77"/>
<polygon fill="blue" stroke="blue" points="230.68,-40.39 221.32,-35.43 225.54,-45.14 230.68,-40.39"/>
</g>
<!-- buildGraph -->
<g id="node7" class="node">
<title>buildGraph</title>
<polygon fill="lightblue" stroke="black" points="156.25,-36 0,-36 0,0 156.25,0 156.25,-36"/>
<text text-anchor="middle" x="78.12" y="-13.32" font-family="Times New Roman,serif" font-size="14.00">1. 从文件构建有向图</text>
</g>
<!-- checkChoice&#45;&gt;buildGraph -->
<g id="edge6" class="edge">
<title>checkChoice&#45;&gt;buildGraph</title>
<path fill="none" stroke="blue" d="M630.25,-97.77C529.67,-86.48 339.54,-63.95 167.63,-36.35"/>
<polygon fill="blue" stroke="blue" points="168.26,-32.91 157.83,-34.77 167.15,-39.82 168.26,-32.91"/>
<text text-anchor="middle" x="403.29" y="-57.2" font-family="Times New Roman,serif" font-size="14.00">1</text>
</g>
<!-- showGraph -->
<g id="node8" class="node">
<title>showGraph</title>
<polygon fill="lightblue" stroke="black" points="1131.62,-36 1022.62,-36 1022.62,0 1131.62,0 1131.62,-36"/>
<text text-anchor="middle" x="1077.12" y="-13.32" font-family="Times New Roman,serif" font-size="14.00">2. 显示有向图</text>
</g>
<!-- checkChoice&#45;&gt;showGraph -->
<g id="edge7" class="edge">
<title>checkChoice&#45;&gt;showGraph</title>
<path fill="none" stroke="blue" d="M751.7,-95C811.48,-82.43 914.2,-60.33 1011.29,-36.65"/>
<polygon fill="blue" stroke="blue" points="1011.84,-40.12 1020.72,-34.34 1010.17,-33.32 1011.84,-40.12"/>
<text text-anchor="middle" x="940.48" y="-57.2" font-family="Times New Roman,serif" font-size="14.00">2</text>
</g>
<!-- queryBridge -->
<g id="node9" class="node">
<title>queryBridge</title>
<polygon fill="lightblue" stroke="black" points="1258.62,-36 1149.62,-36 1149.62,0 1258.62,0 1258.62,-36"/>
<text text-anchor="middle" x="1204.12" y="-13.32" font-family="Times New Roman,serif" font-size="14.00">3. 查询桥接词</text>
</g>
<!-- checkChoice&#45;&gt;queryBridge -->
<g id="edge8" class="edge">
<title>checkChoice&#45;&gt;queryBridge</title>
<path fill="none" stroke="blue" d="M769.47,-97.44C854.13,-86.85 1002.84,-66.26 1138.25,-36.55"/>
<polygon fill="blue" stroke="blue" points="1138.74,-40.03 1147.74,-34.44 1137.22,-33.19 1138.74,-40.03"/>
<text text-anchor="middle" x="1048.88" y="-57.2" font-family="Times New Roman,serif" font-size="14.00">3</text>
</g>
<!-- generateText -->
<g id="node10" class="node">
<title>generateText</title>
<polygon fill="lightblue" stroke="black" points="807,-36 619.25,-36 619.25,0 807,0 807,-36"/>
<text text-anchor="middle" x="713.12" y="-13.32" font-family="Times New Roman,serif" font-size="14.00">4. 根据桥接词生成新文本</text>
</g>
<!-- checkChoice&#45;&gt;generateText -->
<g id="edge9" class="edge">
<title>checkChoice&#45;&gt;generateText</title>
<path fill="none" stroke="blue" d="M703.5,-88.41C705.11,-76.76 707.29,-61.05 709.17,-47.52"/>
<polygon fill="blue" stroke="blue" points="712.6,-48.24 710.51,-37.85 705.67,-47.27 712.6,-48.24"/>
<text text-anchor="middle" x="711.57" y="-57.2" font-family="Times New Roman,serif" font-size="14.00">4</text>
</g>
<!-- calcPath -->
<g id="node11" class="node">
<title>calcPath</title>
<polygon fill="lightblue" stroke="black" points="601.62,-36 366.62,-36 366.62,0 601.62,0 601.62,-36"/>
<text text-anchor="middle" x="484.12" y="-13.32" font-family="Times New Roman,serif" font-size="14.00">5. 计算两个单词之间的最短路径</text>
</g>
<!-- checkChoice&#45;&gt;calcPath -->
<g id="edge10" class="edge">
<title>checkChoice&#45;&gt;calcPath</title>
<path fill="none" stroke="blue" d="M678.12,-91.38C659.08,-80.13 631.05,-64.56 605.12,-54 592.26,-48.76 578.33,-43.96 564.66,-39.71"/>
<polygon fill="blue" stroke="blue" points="565.8,-36.4 555.22,-36.86 563.78,-43.11 565.8,-36.4"/>
<text text-anchor="middle" x="643.75" y="-57.2" font-family="Times New Roman,serif" font-size="14.00">5</text>
</g>
<!-- calcPR -->
<g id="node12" class="node">
<title>calcPR</title>
<polygon fill="lightblue" stroke="black" points="1004.88,-36 825.38,-36 825.38,0 1004.88,0 1004.88,-36"/>
<text text-anchor="middle" x="915.12" y="-13.32" font-family="Times New Roman,serif" font-size="14.00">6. 计算单词的PageRank值</text>
</g>
<!-- checkChoice&#45;&gt;calcPR -->
<g id="edge11" class="edge">
<title>checkChoice&#45;&gt;calcPR</title>
<path fill="none" stroke="blue" d="M733.16,-92.55C767.09,-78.84 821.23,-56.95 861.65,-40.62"/>
<polygon fill="blue" stroke="blue" points="862.77,-43.94 870.73,-36.95 860.15,-37.45 862.77,-43.94"/>
<text text-anchor="middle" x="830.67" y="-57.2" font-family="Times New Roman,serif" font-size="14.00">6</text>
</g>
<!-- randomWalk -->
<g id="node13" class="node">
<title>randomWalk</title>
<polygon fill="lightblue" stroke="black" points="348.75,-36 255.5,-36 255.5,0 348.75,0 348.75,-36"/>
<text text-anchor="middle" x="302.12" y="-13.32" font-family="Times New Roman,serif" font-size="14.00">7. 随机游走</text>
</g>
<!-- checkChoice&#45;&gt;randomWalk -->
<g id="edge12" class="edge">
<title>checkChoice&#45;&gt;randomWalk</title>
<path fill="none" stroke="blue" d="M664.05,-93.14C627.38,-81.38 569.47,-64.03 518.12,-54 450.91,-40.88 429.67,-49.73 360.17,-36.39"/>
<polygon fill="blue" stroke="blue" points="361.06,-32.99 350.56,-34.45 359.67,-39.86 361.06,-32.99"/>
<text text-anchor="middle" x="587.6" y="-57.2" font-family="Times New Roman,serif" font-size="14.00">7</text>
</g>
<!-- invalidChoice -->
<g id="node14" class="node">
<title>invalidChoice</title>
<polygon fill="lightblue" stroke="black" points="1419.12,-36 1277.12,-36 1277.12,0 1419.12,0 1419.12,-36"/>
<text text-anchor="middle" x="1348.12" y="-12.57" font-family="Times New Roman,serif" font-size="14.00">显示无效选择信息</text>
</g>
<!-- checkChoice&#45;&gt;invalidChoice -->
<g id="edge13" class="edge">
<title>checkChoice&#45;&gt;invalidChoice</title>
<path fill="none" stroke="blue" d="M781.3,-99.05C853.36,-92.9 962.01,-82.78 1056.12,-70.5 1147.27,-58.6 1172.46,-53.94 1265.56,-36.45"/>
<polygon fill="blue" stroke="blue" points="1265.96,-39.94 1275.14,-34.65 1264.67,-33.06 1265.96,-39.94"/>
<text text-anchor="middle" x="1185.26" y="-56.83" font-family="Times New Roman,serif" font-size="14.00">其他</text>
</g>
<!-- buildGraph&#45;&gt;showMenu -->
<g id="edge14" class="edge">
<title>buildGraph&#45;&gt;showMenu</title>
<path fill="none" stroke="blue" d="M90.11,-36.35C100.58,-53.21 114.12,-79.96 114.12,-105.5 114.12,-268.25 114.12,-268.25 114.12,-268.25 114.12,-336.15 610.27,-340.52 793.33,-339.83"/>
<polygon fill="blue" stroke="blue" points="793.17,-343.33 803.15,-339.78 793.13,-336.33 793.17,-343.33"/>
</g>
<!-- showGraph&#45;&gt;showMenu -->
<g id="edge15" class="edge">
<title>showGraph&#45;&gt;showMenu</title>
<path fill="none" stroke="blue" d="M1068.28,-36.4C1060.41,-53.52 1050.12,-80.64 1050.12,-105.5 1050.12,-268.25 1050.12,-268.25 1050.12,-268.25 1050.12,-295.31 981.67,-315.46 926.94,-327.25"/>
<polygon fill="blue" stroke="blue" points="926.4,-323.79 917.33,-329.26 927.83,-330.64 926.4,-323.79"/>
</g>
<!-- queryBridge&#45;&gt;showMenu -->
<g id="edge16" class="edge">
<title>queryBridge&#45;&gt;showMenu</title>
<path fill="none" stroke="blue" d="M1195.94,-36.46C1188.65,-53.64 1179.12,-80.8 1179.12,-105.5 1179.12,-268.25 1179.12,-268.25 1179.12,-268.25 1179.12,-319.45 1020.59,-333.75 927.04,-337.73"/>
<polygon fill="blue" stroke="blue" points="927.06,-334.22 917.2,-338.11 927.33,-341.22 927.06,-334.22"/>
</g>
<!-- generateText&#45;&gt;showMenu -->
<g id="edge17" class="edge">
<title>generateText&#45;&gt;showMenu</title>
<path fill="none" stroke="blue" d="M793.94,-36.37C828.09,-48.92 860.12,-70.11 860.12,-105.5 860.12,-268.25 860.12,-268.25 860.12,-268.25 860.12,-282.17 860.12,-297.62 860.12,-310.55"/>
<polygon fill="blue" stroke="blue" points="856.63,-310.52 860.13,-320.52 863.63,-310.52 856.63,-310.52"/>
</g>
<!-- calcPath&#45;&gt;showMenu -->
<g id="edge18" class="edge">
<title>calcPath&#45;&gt;showMenu</title>
<path fill="none" stroke="blue" d="M504.74,-36.31C521.41,-52.34 542.12,-77.84 542.12,-105.5 542.12,-268.25 542.12,-268.25 542.12,-268.25 542.12,-319.29 700.17,-333.66 793.42,-337.69"/>
<polygon fill="blue" stroke="blue" points="793.09,-341.18 803.22,-338.08 793.37,-334.18 793.09,-341.18"/>
</g>
<!-- calcPR&#45;&gt;showMenu -->
<g id="edge19" class="edge">
<title>calcPR&#45;&gt;showMenu</title>
<path fill="none" stroke="blue" d="M915.12,-36.23C915.12,-53.69 915.12,-81.47 915.12,-105.5 915.12,-268.25 915.12,-268.25 915.12,-268.25 915.12,-285.86 904.42,-301.75 892.46,-314.01"/>
<polygon fill="blue" stroke="blue" points="890.07,-311.45 885.19,-320.86 894.87,-316.55 890.07,-311.45"/>
</g>
<!-- randomWalk&#45;&gt;showMenu -->
<g id="edge20" class="edge">
<title>randomWalk&#45;&gt;showMenu</title>
<path fill="none" stroke="blue" d="M349.23,-34.23C408.92,-54.22 504.12,-88.74 504.12,-105.5 504.12,-268.25 504.12,-268.25 504.12,-268.25 504.12,-326.57 690.17,-337.67 793.27,-339.35"/>
<polygon fill="blue" stroke="blue" points="792.94,-342.85 802.99,-339.48 793.03,-335.85 792.94,-342.85"/>
</g>
<!-- invalidChoice&#45;&gt;showMenu -->
<g id="edge21" class="edge">
<title>invalidChoice&#45;&gt;showMenu</title>
<path fill="none" stroke="blue" d="M1340.72,-36.2C1334,-53.41 1325.12,-80.79 1325.12,-105.5 1325.12,-268.25 1325.12,-268.25 1325.12,-268.25 1325.12,-308.03 1055.69,-328.39 927.01,-335.84"/>
<polygon fill="blue" stroke="blue" points="927.05,-332.34 917.26,-336.4 927.45,-339.32 927.05,-332.34"/>
</g>
</g>
</svg>
