<?xml version="1.0" encoding="UTF-8" standalone="no"?>
<!DOCTYPE svg PUBLIC "-//W3C//DTD SVG 1.1//EN"
 "http://www.w3.org/Graphics/SVG/1.1/DTD/svg11.dtd">
<!-- Generated by graphviz version 12.2.1 (20241206.2353)
 -->
<!-- Title: PageRank Pages: 1 -->
<svg width="835pt" height="1354pt"
 viewBox="0.00 0.00 835.20 1354.25" xmlns="http://www.w3.org/2000/svg" xmlns:xlink="http://www.w3.org/1999/xlink">
<g id="graph0" class="graph" transform="scale(1 1) rotate(0) translate(4 1350.25)">
<title>PageRank</title>
<polygon fill="white" stroke="none" points="-4,4 -4,-1350.25 831.2,-1350.25 831.2,4 -4,4"/>
<!-- start -->
<g id="node1" class="node">
<title>start</title>
<ellipse fill="lightgreen" stroke="black" cx="131.2" cy="-1328.25" rx="31.6" ry="18"/>
<text text-anchor="middle" x="131.2" y="-1322.83" font-family="Times New Roman,serif" font-size="14.00">开始</text>
</g>
<!-- convertCase -->
<g id="node2" class="node">
<title>convertCase</title>
<polygon fill="lightblue" stroke="black" points="194.32,-1273.25 68.07,-1273.25 68.07,-1237.25 194.32,-1237.25 194.32,-1273.25"/>
<text text-anchor="middle" x="131.2" y="-1249.83" font-family="Times New Roman,serif" font-size="14.00">转换单词为小写</text>
</g>
<!-- start&#45;&gt;convertCase -->
<g id="edge1" class="edge">
<title>start&#45;&gt;convertCase</title>
<path fill="none" stroke="blue" d="M131.2,-1310.06C131.2,-1302.48 131.2,-1293.35 131.2,-1284.79"/>
<polygon fill="blue" stroke="blue" points="134.7,-1284.79 131.2,-1274.79 127.7,-1284.79 134.7,-1284.79"/>
</g>
<!-- checkWord -->
<g id="node3" class="node">
<title>checkWord</title>
<polygon fill="lightyellow" stroke="black" points="131.2,-1200.25 0,-1182.25 131.2,-1164.25 262.4,-1182.25 131.2,-1200.25"/>
<text text-anchor="middle" x="131.2" y="-1177.58" font-family="Times New Roman,serif" font-size="14.00">单词是否在图中?</text>
</g>
<!-- convertCase&#45;&gt;checkWord -->
<g id="edge2" class="edge">
<title>convertCase&#45;&gt;checkWord</title>
<path fill="none" stroke="blue" d="M131.2,-1237.06C131.2,-1229.48 131.2,-1220.35 131.2,-1211.79"/>
<polygon fill="blue" stroke="blue" points="134.7,-1211.79 131.2,-1201.79 127.7,-1211.79 134.7,-1211.79"/>
</g>
<!-- returnError -->
<g id="node4" class="node">
<title>returnError</title>
<polygon fill="lightblue" stroke="black" points="209.82,-1052 14.57,-1052 14.57,-1016 209.82,-1016 209.82,-1052"/>
<text text-anchor="middle" x="112.2" y="-1029.33" font-family="Times New Roman,serif" font-size="14.00">返回&#45;1.0（单词不在图中）</text>
</g>
<!-- checkWord&#45;&gt;returnError -->
<g id="edge3" class="edge">
<title>checkWord&#45;&gt;returnError</title>
<path fill="none" stroke="blue" d="M128.98,-1164.19C125.78,-1139.55 119.82,-1093.7 115.94,-1063.77"/>
<polygon fill="blue" stroke="blue" points="119.41,-1063.37 114.65,-1053.91 112.47,-1064.28 119.41,-1063.37"/>
<text text-anchor="middle" x="134.27" y="-1132.95" font-family="Times New Roman,serif" font-size="14.00">否</text>
</g>
<!-- initPR -->
<g id="node5" class="node">
<title>initPR</title>
<polygon fill="lightblue" stroke="black" points="308.32,-1112.5 140.07,-1112.5 140.07,-1070 308.32,-1070 308.32,-1112.5"/>
<text text-anchor="middle" x="224.2" y="-1095.2" font-family="Times New Roman,serif" font-size="14.00">初始化PageRank值</text>
<text text-anchor="middle" x="224.2" y="-1077.95" font-family="Times New Roman,serif" font-size="14.00">(每个节点初始值为1/n)</text>
</g>
<!-- checkWord&#45;&gt;initPR -->
<g id="edge4" class="edge">
<title>checkWord&#45;&gt;initPR</title>
<path fill="none" stroke="blue" d="M146.97,-1166.15C160.04,-1153.65 178.95,-1135.55 194.8,-1120.39"/>
<polygon fill="blue" stroke="blue" points="196.85,-1123.26 201.66,-1113.82 192.01,-1118.2 196.85,-1123.26"/>
<text text-anchor="middle" x="191.14" y="-1132.95" font-family="Times New Roman,serif" font-size="14.00">是</text>
</g>
<!-- end -->
<g id="node25" class="node">
<title>end</title>
<ellipse fill="lightgreen" stroke="black" cx="150.2" cy="-258.25" rx="31.6" ry="18"/>
<text text-anchor="middle" x="150.2" y="-252.82" font-family="Times New Roman,serif" font-size="14.00">结束</text>
</g>
<!-- returnError&#45;&gt;end -->
<g id="edge31" class="edge">
<title>returnError&#45;&gt;end</title>
<path fill="none" stroke="blue" d="M104.29,-1015.67C96.96,-998.02 87.2,-969.68 87.2,-944 87.2,-944 87.2,-944 87.2,-345 87.2,-319.36 105.72,-296.31 122.68,-280.59"/>
<polygon fill="blue" stroke="blue" points="124.93,-283.27 130.16,-274.05 120.32,-278 124.93,-283.27"/>
</g>
<!-- initLoop -->
<g id="node6" class="node">
<title>initLoop</title>
<polygon fill="lightblue" stroke="black" points="319.82,-998 160.57,-998 160.57,-962 319.82,-962 319.82,-998"/>
<text text-anchor="middle" x="240.2" y="-975.33" font-family="Times New Roman,serif" font-size="14.00">初始化迭代（iter=0）</text>
</g>
<!-- initPR&#45;&gt;initLoop -->
<g id="edge5" class="edge">
<title>initPR&#45;&gt;initLoop</title>
<path fill="none" stroke="blue" d="M227.21,-1069.7C229.7,-1052.69 233.27,-1028.32 236.03,-1009.44"/>
<polygon fill="blue" stroke="blue" points="239.47,-1010.12 237.46,-999.72 232.54,-1009.11 239.47,-1010.12"/>
</g>
<!-- checkIter -->
<g id="node7" class="node">
<title>checkIter</title>
<polygon fill="lightyellow" stroke="black" points="248.2,-925 122.01,-907 248.2,-889 374.38,-907 248.2,-925"/>
<text text-anchor="middle" x="248.2" y="-901.95" font-family="Times New Roman,serif" font-size="14.00">iter &lt; maxIterations?</text>
</g>
<!-- initLoop&#45;&gt;checkIter -->
<g id="edge6" class="edge">
<title>initLoop&#45;&gt;checkIter</title>
<path fill="none" stroke="blue" d="M242.13,-961.81C243,-954.14 244.04,-944.89 245.02,-936.24"/>
<polygon fill="blue" stroke="blue" points="248.47,-936.86 246.11,-926.53 241.51,-936.08 248.47,-936.86"/>
</g>
<!-- calcNewPR -->
<g id="node8" class="node">
<title>calcNewPR</title>
<polygon fill="lightblue" stroke="black" points="434.95,-837.25 285.45,-837.25 285.45,-801.25 434.95,-801.25 434.95,-837.25"/>
<text text-anchor="middle" x="360.2" y="-814.58" font-family="Times New Roman,serif" font-size="14.00">计算新的PageRank值</text>
</g>
<!-- checkIter&#45;&gt;calcNewPR -->
<g id="edge7" class="edge">
<title>checkIter&#45;&gt;calcNewPR</title>
<path fill="none" stroke="blue" d="M267.45,-891.26C284.3,-878.36 309.09,-859.38 328.8,-844.29"/>
<polygon fill="blue" stroke="blue" points="330.72,-847.23 336.53,-838.37 326.46,-841.67 330.72,-847.23"/>
<text text-anchor="middle" x="322.1" y="-857.7" font-family="Times New Roman,serif" font-size="14.00">是</text>
</g>
<!-- returnPR -->
<g id="node24" class="node">
<title>returnPR</title>
<polygon fill="lightblue" stroke="black" points="311.57,-364 114.82,-364 114.82,-328 311.57,-328 311.57,-364"/>
<text text-anchor="middle" x="213.2" y="-341.32" font-family="Times New Roman,serif" font-size="14.00">返回指定单词的PageRank值</text>
</g>
<!-- checkIter&#45;&gt;returnPR -->
<g id="edge8" class="edge">
<title>checkIter&#45;&gt;returnPR</title>
<path fill="none" stroke="blue" d="M237.51,-890.34C227.21,-873.72 213.2,-846.3 213.2,-820.25 213.2,-820.25 213.2,-820.25 213.2,-432.75 213.2,-413.7 213.2,-392.28 213.2,-375.6"/>
<polygon fill="blue" stroke="blue" points="216.7,-375.92 213.2,-365.92 209.7,-375.92 216.7,-375.92"/>
<text text-anchor="middle" x="221.07" y="-623.95" font-family="Times New Roman,serif" font-size="14.00">否</text>
</g>
<!-- initNodeLoop -->
<g id="node9" class="node">
<title>initNodeLoop</title>
<polygon fill="lightblue" stroke="black" points="616.45,-764.25 439.95,-764.25 439.95,-728.25 616.45,-728.25 616.45,-764.25"/>
<text text-anchor="middle" x="528.2" y="-741.58" font-family="Times New Roman,serif" font-size="14.00">初始化节点循环（i=0）</text>
</g>
<!-- calcNewPR&#45;&gt;initNodeLoop -->
<g id="edge9" class="edge">
<title>calcNewPR&#45;&gt;initNodeLoop</title>
<path fill="none" stroke="blue" d="M401.3,-800.88C423.97,-791.3 452.35,-779.3 476.52,-769.09"/>
<polygon fill="blue" stroke="blue" points="477.7,-772.39 485.55,-765.27 474.97,-765.94 477.7,-772.39"/>
</g>
<!-- checkNodeIndex -->
<g id="node10" class="node">
<title>checkNodeIndex</title>
<polygon fill="lightyellow" stroke="black" points="571.2,-691.25 524.63,-673.25 571.2,-655.25 617.76,-673.25 571.2,-691.25"/>
<text text-anchor="middle" x="571.2" y="-668.2" font-family="Times New Roman,serif" font-size="14.00">i &lt; n?</text>
</g>
<!-- initNodeLoop&#45;&gt;checkNodeIndex -->
<g id="edge10" class="edge">
<title>initNodeLoop&#45;&gt;checkNodeIndex</title>
<path fill="none" stroke="blue" d="M538.61,-728.06C544.07,-719.05 550.84,-707.86 556.8,-698.03"/>
<polygon fill="blue" stroke="blue" points="559.65,-700.08 561.83,-689.71 553.66,-696.45 559.65,-700.08"/>
</g>
<!-- initBasePR -->
<g id="node11" class="node">
<title>initBasePR</title>
<polygon fill="lightblue" stroke="black" points="659.7,-603.5 532.7,-603.5 532.7,-561.75 659.7,-561.75 659.7,-603.5"/>
<text text-anchor="middle" x="596.2" y="-586.2" font-family="Times New Roman,serif" font-size="14.00">初始化基础PR值</text>
<text text-anchor="middle" x="596.2" y="-568.95" font-family="Times New Roman,serif" font-size="14.00">(1&#45;d)/n</text>
</g>
<!-- checkNodeIndex&#45;&gt;initBasePR -->
<g id="edge11" class="edge">
<title>checkNodeIndex&#45;&gt;initBasePR</title>
<path fill="none" stroke="blue" d="M575.55,-656.81C578.82,-645.23 583.4,-628.98 587.42,-614.74"/>
<polygon fill="blue" stroke="blue" points="590.73,-615.91 590.07,-605.33 583.99,-614 590.73,-615.91"/>
<text text-anchor="middle" x="593.07" y="-623.95" font-family="Times New Roman,serif" font-size="14.00">是</text>
</g>
<!-- calcDiff -->
<g id="node20" class="node">
<title>calcDiff</title>
<polygon fill="lightblue" stroke="black" points="474.45,-600.62 315.95,-600.62 315.95,-564.62 474.45,-564.62 474.45,-600.62"/>
<text text-anchor="middle" x="395.2" y="-577.95" font-family="Times New Roman,serif" font-size="14.00">计算新旧PR值的差异</text>
</g>
<!-- checkNodeIndex&#45;&gt;calcDiff -->
<g id="edge12" class="edge">
<title>checkNodeIndex&#45;&gt;calcDiff</title>
<path fill="none" stroke="blue" d="M551.69,-662.43C524.97,-648.97 476.21,-624.42 440.19,-606.28"/>
<polygon fill="blue" stroke="blue" points="441.79,-603.17 431.28,-601.8 438.64,-609.42 441.79,-603.17"/>
<text text-anchor="middle" x="506.84" y="-623.95" font-family="Times New Roman,serif" font-size="14.00">否</text>
</g>
<!-- initIncomingLoop -->
<g id="node12" class="node">
<title>initIncomingLoop</title>
<polygon fill="lightblue" stroke="black" points="767.45,-524.75 590.95,-524.75 590.95,-488.75 767.45,-488.75 767.45,-524.75"/>
<text text-anchor="middle" x="679.2" y="-502.07" font-family="Times New Roman,serif" font-size="14.00">初始化入边循环（j=0）</text>
</g>
<!-- initBasePR&#45;&gt;initIncomingLoop -->
<g id="edge13" class="edge">
<title>initBasePR&#45;&gt;initIncomingLoop</title>
<path fill="none" stroke="blue" d="M618.88,-561.44C628.85,-552.56 640.67,-542.04 651.18,-532.68"/>
<polygon fill="blue" stroke="blue" points="653.37,-535.42 658.52,-526.16 648.72,-530.19 653.37,-535.42"/>
</g>
<!-- checkIncomingIndex -->
<g id="node13" class="node">
<title>checkIncomingIndex</title>
<polygon fill="lightyellow" stroke="black" points="717.2,-451.75 670.63,-433.75 717.2,-415.75 763.76,-433.75 717.2,-451.75"/>
<text text-anchor="middle" x="717.2" y="-428.7" font-family="Times New Roman,serif" font-size="14.00">j &lt; n?</text>
</g>
<!-- initIncomingLoop&#45;&gt;checkIncomingIndex -->
<g id="edge14" class="edge">
<title>initIncomingLoop&#45;&gt;checkIncomingIndex</title>
<path fill="none" stroke="blue" d="M688.4,-488.56C693.17,-479.64 699.08,-468.6 704.31,-458.84"/>
<polygon fill="blue" stroke="blue" points="707.27,-460.72 708.9,-450.25 701.1,-457.41 707.27,-460.72"/>
</g>
<!-- checkEdge -->
<g id="node14" class="node">
<title>checkEdge</title>
<polygon fill="lightyellow" stroke="black" points="557.2,-364 401.34,-346 557.2,-328 713.06,-346 557.2,-364"/>
<text text-anchor="middle" x="557.2" y="-340.95" font-family="Times New Roman,serif" font-size="14.00">adjacencyMatrix[j][i] &gt; 0?</text>
</g>
<!-- checkIncomingIndex&#45;&gt;checkEdge -->
<g id="edge15" class="edge">
<title>checkIncomingIndex&#45;&gt;checkEdge</title>
<path fill="none" stroke="blue" d="M698.22,-422.58C672.6,-408.85 626.42,-384.1 593.9,-366.67"/>
<polygon fill="blue" stroke="blue" points="595.67,-363.65 585.2,-362.01 592.36,-369.82 595.67,-363.65"/>
<text text-anchor="middle" x="659.4" y="-384.45" font-family="Times New Roman,serif" font-size="14.00">是</text>
</g>
<!-- incrementI -->
<g id="node19" class="node">
<title>incrementI</title>
<polygon fill="lightblue" stroke="black" points="827.2,-364 773.2,-364 773.2,-328 827.2,-328 827.2,-364"/>
<text text-anchor="middle" x="800.2" y="-340.95" font-family="Times New Roman,serif" font-size="14.00">i++</text>
</g>
<!-- checkIncomingIndex&#45;&gt;incrementI -->
<g id="edge16" class="edge">
<title>checkIncomingIndex&#45;&gt;incrementI</title>
<path fill="none" stroke="blue" d="M729.92,-420.2C736.6,-413.57 744.89,-405.27 752.2,-397.75 760.02,-389.71 768.46,-380.85 776.05,-372.81"/>
<polygon fill="blue" stroke="blue" points="778.53,-375.28 782.84,-365.6 773.44,-370.48 778.53,-375.28"/>
<text text-anchor="middle" x="774.71" y="-384.45" font-family="Times New Roman,serif" font-size="14.00">否</text>
</g>
<!-- calcOutDegree -->
<g id="node15" class="node">
<title>calcOutDegree</title>
<polygon fill="lightblue" stroke="black" points="606.45,-276.25 507.95,-276.25 507.95,-240.25 606.45,-240.25 606.45,-276.25"/>
<text text-anchor="middle" x="557.2" y="-253.57" font-family="Times New Roman,serif" font-size="14.00">计算j的出度</text>
</g>
<!-- checkEdge&#45;&gt;calcOutDegree -->
<g id="edge17" class="edge">
<title>checkEdge&#45;&gt;calcOutDegree</title>
<path fill="none" stroke="blue" d="M557.2,-327.65C557.2,-316.26 557.2,-301.09 557.2,-287.93"/>
<polygon fill="blue" stroke="blue" points="560.7,-288.09 557.2,-278.09 553.7,-288.09 560.7,-288.09"/>
<text text-anchor="middle" x="565.07" y="-296.7" font-family="Times New Roman,serif" font-size="14.00">是</text>
</g>
<!-- incrementJ -->
<g id="node18" class="node">
<title>incrementJ</title>
<polygon fill="lightblue" stroke="black" points="689.2,-36 635.2,-36 635.2,0 689.2,0 689.2,-36"/>
<text text-anchor="middle" x="662.2" y="-12.95" font-family="Times New Roman,serif" font-size="14.00">j++</text>
</g>
<!-- checkEdge&#45;&gt;incrementJ -->
<g id="edge18" class="edge">
<title>checkEdge&#45;&gt;incrementJ</title>
<path fill="none" stroke="blue" d="M505.78,-333.45C468.72,-321.73 425.2,-299.42 425.2,-259.25 425.2,-259.25 425.2,-259.25 425.2,-93.25 425.2,-52.17 556.52,-31.11 623.65,-23.02"/>
<polygon fill="blue" stroke="blue" points="623.98,-26.51 633.51,-21.88 623.17,-19.55 623.98,-26.51"/>
<text text-anchor="middle" x="433.07" y="-179.82" font-family="Times New Roman,serif" font-size="14.00">否</text>
</g>
<!-- checkOutDegree -->
<g id="node16" class="node">
<title>checkOutDegree</title>
<polygon fill="lightyellow" stroke="black" points="557.2,-203.25 459.97,-185.25 557.2,-167.25 654.43,-185.25 557.2,-203.25"/>
<text text-anchor="middle" x="557.2" y="-180.2" font-family="Times New Roman,serif" font-size="14.00">outDegree &gt; 0?</text>
</g>
<!-- calcOutDegree&#45;&gt;checkOutDegree -->
<g id="edge19" class="edge">
<title>calcOutDegree&#45;&gt;checkOutDegree</title>
<path fill="none" stroke="blue" d="M557.2,-240.06C557.2,-232.48 557.2,-223.35 557.2,-214.79"/>
<polygon fill="blue" stroke="blue" points="560.7,-214.79 557.2,-204.79 553.7,-214.79 560.7,-214.79"/>
</g>
<!-- updatePR -->
<g id="node17" class="node">
<title>updatePR</title>
<polygon fill="lightblue" stroke="black" points="661.2,-115.5 453.2,-115.5 453.2,-73 661.2,-73 661.2,-115.5"/>
<text text-anchor="middle" x="557.2" y="-98.2" font-family="Times New Roman,serif" font-size="14.00">更新PR值</text>
<text text-anchor="middle" x="557.2" y="-80.95" font-family="Times New Roman,serif" font-size="14.00">PR[i] += d * PR[j] * 权重 / 出度</text>
</g>
<!-- checkOutDegree&#45;&gt;updatePR -->
<g id="edge20" class="edge">
<title>checkOutDegree&#45;&gt;updatePR</title>
<path fill="none" stroke="blue" d="M557.2,-167.09C557.2,-155.76 557.2,-140.57 557.2,-127.08"/>
<polygon fill="blue" stroke="blue" points="560.7,-127.31 557.2,-117.31 553.7,-127.31 560.7,-127.31"/>
<text text-anchor="middle" x="565.07" y="-135.95" font-family="Times New Roman,serif" font-size="14.00">是</text>
</g>
<!-- checkOutDegree&#45;&gt;incrementJ -->
<g id="edge21" class="edge">
<title>checkOutDegree&#45;&gt;incrementJ</title>
<path fill="none" stroke="blue" d="M592.49,-173.37C619.09,-163.1 653.71,-144.83 670.2,-115.5 681.89,-94.7 678.16,-67.3 672.51,-47.01"/>
<polygon fill="blue" stroke="blue" points="675.93,-46.23 669.62,-37.72 669.25,-48.31 675.93,-46.23"/>
<text text-anchor="middle" x="685.74" y="-88.83" font-family="Times New Roman,serif" font-size="14.00">否</text>
</g>
<!-- updatePR&#45;&gt;incrementJ -->
<g id="edge22" class="edge">
<title>updatePR&#45;&gt;incrementJ</title>
<path fill="none" stroke="blue" d="M586.45,-72.57C599.56,-63.29 615.1,-52.3 628.68,-42.7"/>
<polygon fill="blue" stroke="blue" points="630.34,-45.82 636.48,-37.18 626.3,-40.1 630.34,-45.82"/>
</g>
<!-- incrementJ&#45;&gt;checkIncomingIndex -->
<g id="edge23" class="edge">
<title>incrementJ&#45;&gt;checkIncomingIndex</title>
<path fill="none" stroke="blue" d="M689.38,-30.93C712.24,-43.01 741.2,-64.08 741.2,-93.25 741.2,-347 741.2,-347 741.2,-347 741.2,-367.85 734.54,-390.53 728.23,-407.33"/>
<polygon fill="blue" stroke="blue" points="725.02,-405.93 724.57,-416.52 731.52,-408.52 725.02,-405.93"/>
</g>
<!-- incrementI&#45;&gt;checkNodeIndex -->
<g id="edge24" class="edge">
<title>incrementI&#45;&gt;checkNodeIndex</title>
<path fill="none" stroke="blue" d="M801.81,-364.39C803.27,-381.7 805.2,-409.04 805.2,-432.75 805.2,-583.62 805.2,-583.62 805.2,-583.62 805.2,-624.07 681.37,-652.57 613.87,-665.1"/>
<polygon fill="blue" stroke="blue" points="613.46,-661.62 604.25,-666.85 614.71,-668.51 613.46,-661.62"/>
</g>
<!-- updatePRArray -->
<g id="node21" class="node">
<title>updatePRArray</title>
<polygon fill="lightblue" stroke="black" points="420.95,-524.75 325.45,-524.75 325.45,-488.75 420.95,-488.75 420.95,-524.75"/>
<text text-anchor="middle" x="373.2" y="-502.07" font-family="Times New Roman,serif" font-size="14.00">更新PR数组</text>
</g>
<!-- calcDiff&#45;&gt;updatePRArray -->
<g id="edge25" class="edge">
<title>calcDiff&#45;&gt;updatePRArray</title>
<path fill="none" stroke="blue" d="M390.1,-564.49C387.56,-555.97 384.43,-545.46 381.55,-535.81"/>
<polygon fill="blue" stroke="blue" points="384.99,-535.08 378.78,-526.5 378.28,-537.08 384.99,-535.08"/>
</g>
<!-- checkConverge -->
<g id="node22" class="node">
<title>checkConverge</title>
<polygon fill="lightyellow" stroke="black" points="367.2,-451.75 279.15,-433.75 367.2,-415.75 455.24,-433.75 367.2,-451.75"/>
<text text-anchor="middle" x="367.2" y="-429.07" font-family="Times New Roman,serif" font-size="14.00">diff &lt; 阈值?</text>
</g>
<!-- updatePRArray&#45;&gt;checkConverge -->
<g id="edge26" class="edge">
<title>updatePRArray&#45;&gt;checkConverge</title>
<path fill="none" stroke="blue" d="M371.75,-488.56C371.1,-480.89 370.32,-471.64 369.58,-462.99"/>
<polygon fill="blue" stroke="blue" points="373.09,-462.96 368.76,-453.29 366.12,-463.55 373.09,-462.96"/>
</g>
<!-- incrementIter -->
<g id="node23" class="node">
<title>incrementIter</title>
<polygon fill="lightblue" stroke="black" points="383.2,-364 329.2,-364 329.2,-328 383.2,-328 383.2,-364"/>
<text text-anchor="middle" x="356.2" y="-340.95" font-family="Times New Roman,serif" font-size="14.00">iter++</text>
</g>
<!-- checkConverge&#45;&gt;incrementIter -->
<g id="edge28" class="edge">
<title>checkConverge&#45;&gt;incrementIter</title>
<path fill="none" stroke="blue" d="M365.02,-415.81C363.55,-404.33 361.57,-388.89 359.86,-375.54"/>
<polygon fill="blue" stroke="blue" points="363.38,-375.47 358.63,-366 356.44,-376.36 363.38,-375.47"/>
<text text-anchor="middle" x="370.56" y="-384.45" font-family="Times New Roman,serif" font-size="14.00">否</text>
</g>
<!-- checkConverge&#45;&gt;returnPR -->
<g id="edge27" class="edge">
<title>checkConverge&#45;&gt;returnPR</title>
<path fill="none" stroke="blue" d="M344.47,-420.1C320.82,-406.93 283.27,-386.02 254.38,-369.93"/>
<polygon fill="blue" stroke="blue" points="256.32,-367.01 245.88,-365.2 252.92,-373.12 256.32,-367.01"/>
<text text-anchor="middle" x="311.87" y="-384.45" font-family="Times New Roman,serif" font-size="14.00">是</text>
</g>
<!-- incrementIter&#45;&gt;checkIter -->
<g id="edge29" class="edge">
<title>incrementIter&#45;&gt;checkIter</title>
<path fill="none" stroke="blue" d="M328.79,-360.23C325.9,-361.54 323,-362.82 320.2,-364 299.21,-372.87 288.58,-366.16 272.2,-382 254.65,-398.97 251.2,-408.34 251.2,-432.75 251.2,-820.25 251.2,-820.25 251.2,-820.25 251.2,-839.43 250.44,-861.01 249.68,-877.72"/>
<polygon fill="blue" stroke="blue" points="246.2,-877.26 249.22,-887.41 253.19,-877.59 246.2,-877.26"/>
</g>
<!-- returnPR&#45;&gt;end -->
<g id="edge30" class="edge">
<title>returnPR&#45;&gt;end</title>
<path fill="none" stroke="blue" d="M200.45,-327.65C191.33,-315.24 178.93,-298.35 168.72,-284.46"/>
<polygon fill="blue" stroke="blue" points="171.71,-282.62 162.97,-276.64 166.07,-286.77 171.71,-282.62"/>
</g>
</g>
</svg>
