<?xml version="1.0" encoding="UTF-8" standalone="no"?>
<!DOCTYPE svg PUBLIC "-//W3C//DTD SVG 1.1//EN"
 "http://www.w3.org/Graphics/SVG/1.1/DTD/svg11.dtd">
<!-- Generated by graphviz version 12.2.1 (20241206.2353)
 -->
<!-- Title: QueryBridgeWords Pages: 1 -->
<svg width="728pt" height="763pt"
 viewBox="0.00 0.00 727.88 762.50" xmlns="http://www.w3.org/2000/svg" xmlns:xlink="http://www.w3.org/1999/xlink">
<g id="graph0" class="graph" transform="scale(1 1) rotate(0) translate(4 758.5)">
<title>QueryBridgeWords</title>
<polygon fill="white" stroke="none" points="-4,4 -4,-758.5 723.88,-758.5 723.88,4 -4,4"/>
<!-- start -->
<g id="node1" class="node">
<title>start</title>
<ellipse fill="lightgreen" stroke="black" cx="387.38" cy="-736.5" rx="31.6" ry="18"/>
<text text-anchor="middle" x="387.38" y="-731.08" font-family="Times New Roman,serif" font-size="14.00">开始</text>
</g>
<!-- convertCase -->
<g id="node2" class="node">
<title>convertCase</title>
<polygon fill="lightblue" stroke="black" points="450.5,-681.5 324.25,-681.5 324.25,-645.5 450.5,-645.5 450.5,-681.5"/>
<text text-anchor="middle" x="387.38" y="-658.08" font-family="Times New Roman,serif" font-size="14.00">转换单词为小写</text>
</g>
<!-- start&#45;&gt;convertCase -->
<g id="edge1" class="edge">
<title>start&#45;&gt;convertCase</title>
<path fill="none" stroke="blue" d="M387.38,-718.31C387.38,-710.73 387.38,-701.6 387.38,-693.04"/>
<polygon fill="blue" stroke="blue" points="390.88,-693.04 387.38,-683.04 383.88,-693.04 390.88,-693.04"/>
</g>
<!-- checkWord1 -->
<g id="node3" class="node">
<title>checkWord1</title>
<polygon fill="lightyellow" stroke="black" points="387.38,-608.5 253.2,-590.5 387.37,-572.5 521.55,-590.5 387.38,-608.5"/>
<text text-anchor="middle" x="387.38" y="-585.83" font-family="Times New Roman,serif" font-size="14.00">word1是否在图中?</text>
</g>
<!-- convertCase&#45;&gt;checkWord1 -->
<g id="edge2" class="edge">
<title>convertCase&#45;&gt;checkWord1</title>
<path fill="none" stroke="blue" d="M387.38,-645.31C387.38,-637.73 387.38,-628.6 387.38,-620.04"/>
<polygon fill="blue" stroke="blue" points="390.88,-620.04 387.38,-610.04 383.88,-620.04 390.88,-620.04"/>
</g>
<!-- checkWord2 -->
<g id="node4" class="node">
<title>checkWord2</title>
<polygon fill="lightyellow" stroke="black" points="304.38,-520.75 170.2,-502.75 304.37,-484.75 438.55,-502.75 304.38,-520.75"/>
<text text-anchor="middle" x="304.38" y="-498.07" font-family="Times New Roman,serif" font-size="14.00">word2是否在图中?</text>
</g>
<!-- checkWord1&#45;&gt;checkWord2 -->
<g id="edge3" class="edge">
<title>checkWord1&#45;&gt;checkWord2</title>
<path fill="none" stroke="blue" d="M372.54,-574.17C359.99,-561.2 341.79,-542.41 327.36,-527.49"/>
<polygon fill="blue" stroke="blue" points="329.89,-525.08 320.42,-520.32 324.86,-529.94 329.89,-525.08"/>
<text text-anchor="middle" x="361.18" y="-541.2" font-family="Times New Roman,serif" font-size="14.00">是</text>
</g>
<!-- errorWord1 -->
<g id="node6" class="node">
<title>errorWord1</title>
<polygon fill="lightblue" stroke="black" points="554.75,-466.75 394,-466.75 394,-430.75 554.75,-430.75 554.75,-466.75"/>
<text text-anchor="middle" x="474.38" y="-444.07" font-family="Times New Roman,serif" font-size="14.00">返回：word1不在图中</text>
</g>
<!-- checkWord1&#45;&gt;errorWord1 -->
<g id="edge4" class="edge">
<title>checkWord1&#45;&gt;errorWord1</title>
<path fill="none" stroke="blue" d="M403.43,-574.38C416.65,-561.23 435.15,-541.13 447.38,-520.75 455.38,-507.41 461.74,-491.29 466.27,-477.78"/>
<polygon fill="blue" stroke="blue" points="469.49,-479.2 469.19,-468.61 462.82,-477.08 469.49,-479.2"/>
<text text-anchor="middle" x="442.1" y="-541.2" font-family="Times New Roman,serif" font-size="14.00">否</text>
</g>
<!-- errorWord2 -->
<g id="node7" class="node">
<title>errorWord2</title>
<polygon fill="lightblue" stroke="black" points="160.75,-358.75 0,-358.75 0,-322.75 160.75,-322.75 160.75,-358.75"/>
<text text-anchor="middle" x="80.38" y="-336.07" font-family="Times New Roman,serif" font-size="14.00">返回：word2不在图中</text>
</g>
<!-- checkWord2&#45;&gt;errorWord2 -->
<g id="edge6" class="edge">
<title>checkWord2&#45;&gt;errorWord2</title>
<path fill="none" stroke="blue" d="M279.03,-487.66C249.79,-471.03 200.71,-441.93 161.38,-412.75 142.11,-398.46 121.82,-380.67 106.37,-366.47"/>
<polygon fill="blue" stroke="blue" points="109.13,-364.27 99.42,-360.03 104.37,-369.4 109.13,-364.27"/>
<text text-anchor="middle" x="250.77" y="-443.32" font-family="Times New Roman,serif" font-size="14.00">否</text>
</g>
<!-- findBridges -->
<g id="node8" class="node">
<title>findBridges</title>
<polygon fill="lightblue" stroke="black" points="438,-412.75 170.75,-412.75 170.75,-376.75 438,-376.75 438,-412.75"/>
<text text-anchor="middle" x="304.38" y="-390.07" font-family="Times New Roman,serif" font-size="14.00">寻找桥接词(从word1可达且可达word2)</text>
</g>
<!-- checkWord2&#45;&gt;findBridges -->
<g id="edge5" class="edge">
<title>checkWord2&#45;&gt;findBridges</title>
<path fill="none" stroke="blue" d="M304.38,-484.25C304.38,-467.96 304.38,-443.4 304.38,-424.28"/>
<polygon fill="blue" stroke="blue" points="307.88,-424.44 304.38,-414.44 300.88,-424.44 307.88,-424.44"/>
<text text-anchor="middle" x="312.25" y="-443.32" font-family="Times New Roman,serif" font-size="14.00">是</text>
</g>
<!-- errorBoth -->
<g id="node5" class="node">
<title>errorBoth</title>
<polygon fill="lightblue" stroke="black" points="719.88,-109 514.88,-109 514.88,-73 719.88,-73 719.88,-109"/>
<text text-anchor="middle" x="617.38" y="-85.58" font-family="Times New Roman,serif" font-size="14.00">返回：两个单词都不在图中</text>
</g>
<!-- end -->
<g id="node14" class="node">
<title>end</title>
<ellipse fill="lightgreen" stroke="black" cx="291.38" cy="-18" rx="31.6" ry="18"/>
<text text-anchor="middle" x="291.38" y="-12.57" font-family="Times New Roman,serif" font-size="14.00">结束</text>
</g>
<!-- errorBoth&#45;&gt;end -->
<g id="edge12" class="edge">
<title>errorBoth&#45;&gt;end</title>
<path fill="none" stroke="blue" d="M565.94,-72.56C545.68,-66.11 522.09,-59.14 500.38,-54 443.1,-40.46 375.8,-30.17 333.37,-24.36"/>
<polygon fill="blue" stroke="blue" points="333.97,-20.91 323.59,-23.05 333.03,-27.85 333.97,-20.91"/>
</g>
<!-- errorWord1&#45;&gt;end -->
<g id="edge13" class="edge">
<title>errorWord1&#45;&gt;end</title>
<path fill="none" stroke="blue" d="M477.53,-430.56C481.08,-409.65 486.38,-373.23 486.38,-341.75 486.38,-341.75 486.38,-341.75 486.38,-90 486.38,-57.64 390.37,-35.74 333.09,-25.55"/>
<polygon fill="blue" stroke="blue" points="333.78,-22.12 323.34,-23.87 332.6,-29.01 333.78,-22.12"/>
</g>
<!-- errorWord2&#45;&gt;end -->
<g id="edge14" class="edge">
<title>errorWord2&#45;&gt;end</title>
<path fill="none" stroke="blue" d="M78.64,-322.45C76.87,-303.27 74.38,-271.39 74.38,-243.88 74.38,-243.88 74.38,-243.88 74.38,-90 74.38,-53.62 185.96,-32.9 249.1,-24.1"/>
<polygon fill="blue" stroke="blue" points="249.34,-27.6 258.78,-22.79 248.41,-20.66 249.34,-27.6"/>
</g>
<!-- checkEmpty -->
<g id="node9" class="node">
<title>checkEmpty</title>
<polygon fill="lightyellow" stroke="black" points="304.38,-304.75 173.18,-286.75 304.37,-268.75 435.57,-286.75 304.38,-304.75"/>
<text text-anchor="middle" x="304.38" y="-282.07" font-family="Times New Roman,serif" font-size="14.00">桥接词列表为空?</text>
</g>
<!-- findBridges&#45;&gt;checkEmpty -->
<g id="edge7" class="edge">
<title>findBridges&#45;&gt;checkEmpty</title>
<path fill="none" stroke="blue" d="M304.38,-376.72C304.38,-360.51 304.38,-335.81 304.38,-316.54"/>
<polygon fill="blue" stroke="blue" points="307.88,-316.6 304.38,-306.6 300.88,-316.6 307.88,-316.6"/>
</g>
<!-- returnNone -->
<g id="node10" class="node">
<title>returnNone</title>
<polygon fill="lightblue" stroke="black" points="231.38,-163 89.38,-163 89.38,-127 231.38,-127 231.38,-163"/>
<text text-anchor="middle" x="160.38" y="-139.57" font-family="Times New Roman,serif" font-size="14.00">返回：没有桥接词</text>
</g>
<!-- checkEmpty&#45;&gt;returnNone -->
<g id="edge8" class="edge">
<title>checkEmpty&#45;&gt;returnNone</title>
<path fill="none" stroke="blue" d="M265.58,-273.68C237.66,-263.06 201.22,-244.88 179.38,-217 169.91,-204.92 165.14,-188.51 162.75,-174.51"/>
<polygon fill="blue" stroke="blue" points="166.27,-174.4 161.45,-164.97 159.33,-175.35 166.27,-174.4"/>
<text text-anchor="middle" x="224.44" y="-237.45" font-family="Times New Roman,serif" font-size="14.00">是</text>
</g>
<!-- checkOne -->
<g id="node11" class="node">
<title>checkOne</title>
<polygon fill="lightyellow" stroke="black" points="319.38,-217 188.18,-199 319.37,-181 450.57,-199 319.38,-217"/>
<text text-anchor="middle" x="319.38" y="-194.32" font-family="Times New Roman,serif" font-size="14.00">只有一个桥接词?</text>
</g>
<!-- checkEmpty&#45;&gt;checkOne -->
<g id="edge9" class="edge">
<title>checkEmpty&#45;&gt;checkOne</title>
<path fill="none" stroke="blue" d="M307.34,-268.81C309.37,-257.18 312.12,-241.48 314.48,-228.01"/>
<polygon fill="blue" stroke="blue" points="317.88,-228.85 316.16,-218.4 310.99,-227.64 317.88,-228.85"/>
<text text-anchor="middle" x="321.09" y="-237.45" font-family="Times New Roman,serif" font-size="14.00">否</text>
</g>
<!-- returnNone&#45;&gt;end -->
<g id="edge15" class="edge">
<title>returnNone&#45;&gt;end</title>
<path fill="none" stroke="blue" d="M142.04,-126.64C137.7,-121.43 133.68,-115.38 131.38,-109 125.95,-93.95 122.04,-86 131.38,-73 157.79,-36.2 210.61,-24.15 248.33,-20.38"/>
<polygon fill="blue" stroke="blue" points="248.32,-23.89 258,-19.58 247.75,-16.92 248.32,-23.89"/>
</g>
<!-- returnOne -->
<g id="node12" class="node">
<title>returnOne</title>
<polygon fill="lightblue" stroke="black" points="298.25,-109 140.5,-109 140.5,-73 298.25,-73 298.25,-109"/>
<text text-anchor="middle" x="219.38" y="-85.58" font-family="Times New Roman,serif" font-size="14.00">返回：唯一的桥接词</text>
</g>
<!-- checkOne&#45;&gt;returnOne -->
<g id="edge10" class="edge">
<title>checkOne&#45;&gt;returnOne</title>
<path fill="none" stroke="blue" d="M305.05,-182.81C288.98,-165.78 262.66,-137.88 243.43,-117.49"/>
<polygon fill="blue" stroke="blue" points="246.11,-115.24 236.71,-110.37 241.02,-120.05 246.11,-115.24"/>
<text text-anchor="middle" x="292.05" y="-139.57" font-family="Times New Roman,serif" font-size="14.00">是</text>
</g>
<!-- returnMultiple -->
<g id="node13" class="node">
<title>returnMultiple</title>
<polygon fill="lightblue" stroke="black" points="458.38,-109 316.38,-109 316.38,-73 458.38,-73 458.38,-109"/>
<text text-anchor="middle" x="387.38" y="-85.58" font-family="Times New Roman,serif" font-size="14.00">返回：多个桥接词</text>
</g>
<!-- checkOne&#45;&gt;returnMultiple -->
<g id="edge11" class="edge">
<title>checkOne&#45;&gt;returnMultiple</title>
<path fill="none" stroke="blue" d="M329.41,-182.36C340.09,-165.71 357.2,-139.04 370.06,-118.99"/>
<polygon fill="blue" stroke="blue" points="372.9,-121.05 375.35,-110.74 367,-117.27 372.9,-121.05"/>
<text text-anchor="middle" x="371.31" y="-139.57" font-family="Times New Roman,serif" font-size="14.00">否</text>
</g>
<!-- returnOne&#45;&gt;end -->
<g id="edge16" class="edge">
<title>returnOne&#45;&gt;end</title>
<path fill="none" stroke="blue" d="M236.8,-72.81C246.17,-63.58 257.84,-52.07 267.98,-42.07"/>
<polygon fill="blue" stroke="blue" points="270.32,-44.68 274.98,-35.16 265.41,-39.69 270.32,-44.68"/>
</g>
<!-- returnMultiple&#45;&gt;end -->
<g id="edge17" class="edge">
<title>returnMultiple&#45;&gt;end</title>
<path fill="none" stroke="blue" d="M364.14,-72.81C350.57,-62.78 333.37,-50.06 319.1,-39.51"/>
<polygon fill="blue" stroke="blue" points="321.55,-36.97 311.43,-33.83 317.39,-42.59 321.55,-36.97"/>
</g>
</g>
</svg>
