<?xml version="1.0" encoding="UTF-8" standalone="no"?>
<!DOCTYPE svg PUBLIC "-//W3C//DTD SVG 1.1//EN"
 "http://www.w3.org/Graphics/SVG/1.1/DTD/svg11.dtd">
<!-- Generated by graphviz version 12.2.1 (20241206.2353)
 -->
<!-- Title: RandomWalk Pages: 1 -->
<svg width="470pt" height="1014pt"
 viewBox="0.00 0.00 470.38 1014.00" xmlns="http://www.w3.org/2000/svg" xmlns:xlink="http://www.w3.org/1999/xlink">
<g id="graph0" class="graph" transform="scale(1 1) rotate(0) translate(4 1010)">
<title>RandomWalk</title>
<polygon fill="white" stroke="none" points="-4,4 -4,-1010 466.38,-1010 466.38,4 -4,4"/>
<!-- start -->
<g id="node1" class="node">
<title>start</title>
<ellipse fill="lightgreen" stroke="black" cx="138.38" cy="-988" rx="31.6" ry="18"/>
<text text-anchor="middle" x="138.38" y="-982.58" font-family="Times New Roman,serif" font-size="14.00">开始</text>
</g>
<!-- checkEmpty -->
<g id="node2" class="node">
<title>checkEmpty</title>
<polygon fill="lightyellow" stroke="black" points="138.38,-933 38.43,-915 138.37,-897 238.32,-915 138.38,-933"/>
<text text-anchor="middle" x="138.38" y="-910.33" font-family="Times New Roman,serif" font-size="14.00">图是否为空?</text>
</g>
<!-- start&#45;&gt;checkEmpty -->
<g id="edge1" class="edge">
<title>start&#45;&gt;checkEmpty</title>
<path fill="none" stroke="blue" d="M138.38,-969.81C138.38,-962.23 138.38,-953.1 138.38,-944.54"/>
<polygon fill="blue" stroke="blue" points="141.88,-944.54 138.38,-934.54 134.88,-944.54 141.88,-944.54"/>
</g>
<!-- returnEmpty -->
<g id="node3" class="node">
<title>returnEmpty</title>
<polygon fill="lightblue" stroke="black" points="220.75,-791.25 0,-791.25 0,-755.25 220.75,-755.25 220.75,-791.25"/>
<text text-anchor="middle" x="110.38" y="-767.83" font-family="Times New Roman,serif" font-size="14.00">返回：图为空，无法随机游走</text>
</g>
<!-- checkEmpty&#45;&gt;returnEmpty -->
<g id="edge2" class="edge">
<title>checkEmpty&#45;&gt;returnEmpty</title>
<path fill="none" stroke="blue" d="M135,-897.14C130.31,-873.77 121.78,-831.19 116.1,-802.8"/>
<polygon fill="blue" stroke="blue" points="119.55,-802.21 114.15,-793.09 112.68,-803.58 119.55,-802.21"/>
<text text-anchor="middle" x="139.17" y="-865.7" font-family="Times New Roman,serif" font-size="14.00">是</text>
</g>
<!-- initVisited -->
<g id="node4" class="node">
<title>initVisited</title>
<polygon fill="lightblue" stroke="black" points="309.25,-845.25 151.5,-845.25 151.5,-809.25 309.25,-809.25 309.25,-845.25"/>
<text text-anchor="middle" x="230.38" y="-821.83" font-family="Times New Roman,serif" font-size="14.00">初始化已访问边集合</text>
</g>
<!-- checkEmpty&#45;&gt;initVisited -->
<g id="edge3" class="edge">
<title>checkEmpty&#45;&gt;initVisited</title>
<path fill="none" stroke="blue" d="M153.98,-899.45C167.6,-886.76 187.66,-868.07 203.8,-853.02"/>
<polygon fill="blue" stroke="blue" points="205.8,-855.94 210.73,-846.56 201.02,-850.82 205.8,-855.94"/>
<text text-anchor="middle" x="200.49" y="-865.7" font-family="Times New Roman,serif" font-size="14.00">否</text>
</g>
<!-- end -->
<g id="node16" class="node">
<title>end</title>
<ellipse fill="lightgreen" stroke="black" cx="122.38" cy="-18" rx="31.6" ry="18"/>
<text text-anchor="middle" x="122.38" y="-12.57" font-family="Times New Roman,serif" font-size="14.00">结束</text>
</g>
<!-- returnEmpty&#45;&gt;end -->
<g id="edge18" class="edge">
<title>returnEmpty&#45;&gt;end</title>
<path fill="none" stroke="blue" d="M110.38,-754.86C110.38,-736.91 110.38,-708.13 110.38,-683.25 110.38,-683.25 110.38,-683.25 110.38,-90 110.38,-75.74 112.76,-60.09 115.4,-47.12"/>
<polygon fill="blue" stroke="blue" points="118.77,-48.08 117.51,-37.56 111.94,-46.57 118.77,-48.08"/>
</g>
<!-- initPath -->
<g id="node5" class="node">
<title>initPath</title>
<polygon fill="lightblue" stroke="black" points="282.75,-737.25 188,-737.25 188,-701.25 282.75,-701.25 282.75,-737.25"/>
<text text-anchor="middle" x="235.38" y="-713.83" font-family="Times New Roman,serif" font-size="14.00">初始化路径</text>
</g>
<!-- initVisited&#45;&gt;initPath -->
<g id="edge4" class="edge">
<title>initVisited&#45;&gt;initPath</title>
<path fill="none" stroke="blue" d="M231.18,-809.22C231.94,-793.01 233.11,-768.31 234.02,-749.04"/>
<polygon fill="blue" stroke="blue" points="237.51,-749.26 234.49,-739.1 230.52,-748.93 237.51,-749.26"/>
</g>
<!-- selectStart -->
<g id="node6" class="node">
<title>selectStart</title>
<polygon fill="lightblue" stroke="black" points="306.38,-664.25 164.38,-664.25 164.38,-628.25 306.38,-628.25 306.38,-664.25"/>
<text text-anchor="middle" x="235.38" y="-640.83" font-family="Times New Roman,serif" font-size="14.00">随机选择起始节点</text>
</g>
<!-- initPath&#45;&gt;selectStart -->
<g id="edge5" class="edge">
<title>initPath&#45;&gt;selectStart</title>
<path fill="none" stroke="blue" d="M235.38,-701.06C235.38,-693.48 235.38,-684.35 235.38,-675.79"/>
<polygon fill="blue" stroke="blue" points="238.88,-675.79 235.38,-665.79 231.88,-675.79 238.88,-675.79"/>
</g>
<!-- addToPath -->
<g id="node7" class="node">
<title>addToPath</title>
<polygon fill="lightblue" stroke="black" points="322.12,-591.25 148.62,-591.25 148.62,-555.25 322.12,-555.25 322.12,-591.25"/>
<text text-anchor="middle" x="235.38" y="-567.83" font-family="Times New Roman,serif" font-size="14.00">将当前节点添加到路径</text>
</g>
<!-- selectStart&#45;&gt;addToPath -->
<g id="edge6" class="edge">
<title>selectStart&#45;&gt;addToPath</title>
<path fill="none" stroke="blue" d="M235.38,-628.06C235.38,-620.48 235.38,-611.35 235.38,-602.79"/>
<polygon fill="blue" stroke="blue" points="238.88,-602.79 235.38,-592.79 231.88,-602.79 238.88,-602.79"/>
</g>
<!-- findNeighbors -->
<g id="node8" class="node">
<title>findNeighbors</title>
<polygon fill="lightblue" stroke="black" points="376,-518.25 186.75,-518.25 186.75,-482.25 376,-482.25 376,-518.25"/>
<text text-anchor="middle" x="281.38" y="-494.82" font-family="Times New Roman,serif" font-size="14.00">获取当前节点的所有出边</text>
</g>
<!-- addToPath&#45;&gt;findNeighbors -->
<g id="edge7" class="edge">
<title>addToPath&#45;&gt;findNeighbors</title>
<path fill="none" stroke="blue" d="M246.51,-555.06C251.82,-546.87 258.3,-536.87 264.22,-527.73"/>
<polygon fill="blue" stroke="blue" points="267.02,-529.84 269.52,-519.55 261.14,-526.04 267.02,-529.84"/>
</g>
<!-- checkNeighbors -->
<g id="node9" class="node">
<title>checkNeighbors</title>
<polygon fill="lightyellow" stroke="black" points="292.38,-445.25 192.43,-427.25 292.37,-409.25 392.32,-427.25 292.38,-445.25"/>
<text text-anchor="middle" x="292.38" y="-422.57" font-family="Times New Roman,serif" font-size="14.00">是否有出边?</text>
</g>
<!-- findNeighbors&#45;&gt;checkNeighbors -->
<g id="edge8" class="edge">
<title>findNeighbors&#45;&gt;checkNeighbors</title>
<path fill="none" stroke="blue" d="M284.04,-482.06C285.23,-474.39 286.66,-465.14 288,-456.49"/>
<polygon fill="blue" stroke="blue" points="291.43,-457.19 289.5,-446.77 284.52,-456.12 291.43,-457.19"/>
</g>
<!-- selectNext -->
<g id="node10" class="node">
<title>selectNext</title>
<polygon fill="lightblue" stroke="black" points="371.25,-357.5 213.5,-357.5 213.5,-321.5 371.25,-321.5 371.25,-357.5"/>
<text text-anchor="middle" x="292.38" y="-334.07" font-family="Times New Roman,serif" font-size="14.00">随机选择下一个节点</text>
</g>
<!-- checkNeighbors&#45;&gt;selectNext -->
<g id="edge10" class="edge">
<title>checkNeighbors&#45;&gt;selectNext</title>
<path fill="none" stroke="blue" d="M292.38,-408.9C292.38,-397.51 292.38,-382.34 292.38,-369.18"/>
<polygon fill="blue" stroke="blue" points="295.88,-369.34 292.38,-359.34 288.88,-369.34 295.88,-369.34"/>
<text text-anchor="middle" x="300.25" y="-377.95" font-family="Times New Roman,serif" font-size="14.00">是</text>
</g>
<!-- saveToFile -->
<g id="node14" class="node">
<title>saveToFile</title>
<polygon fill="lightblue" stroke="black" points="462.38,-182 320.38,-182 320.38,-146 462.38,-146 462.38,-182"/>
<text text-anchor="middle" x="391.38" y="-158.57" font-family="Times New Roman,serif" font-size="14.00">将路径保存到文件</text>
</g>
<!-- checkNeighbors&#45;&gt;saveToFile -->
<g id="edge9" class="edge">
<title>checkNeighbors&#45;&gt;saveToFile</title>
<path fill="none" stroke="blue" d="M315.28,-413.02C334.8,-400.75 362.46,-380.9 380.38,-357.5 406.1,-323.89 408.99,-311.24 417.38,-269.75 420.55,-254.07 420.25,-249.49 417.38,-233.75 414.83,-219.81 409.6,-205.04 404.5,-192.77"/>
<polygon fill="blue" stroke="blue" points="407.74,-191.45 400.53,-183.69 401.33,-194.25 407.74,-191.45"/>
<text text-anchor="middle" x="421.5" y="-290.2" font-family="Times New Roman,serif" font-size="14.00">否</text>
</g>
<!-- checkVisited -->
<g id="node11" class="node">
<title>checkVisited</title>
<polygon fill="lightyellow" stroke="black" points="292.38,-269.75 176.8,-251.75 292.37,-233.75 407.95,-251.75 292.38,-269.75"/>
<text text-anchor="middle" x="292.38" y="-247.07" font-family="Times New Roman,serif" font-size="14.00">边是否已访问?</text>
</g>
<!-- selectNext&#45;&gt;checkVisited -->
<g id="edge11" class="edge">
<title>selectNext&#45;&gt;checkVisited</title>
<path fill="none" stroke="blue" d="M292.38,-321.15C292.38,-309.76 292.38,-294.59 292.38,-281.43"/>
<polygon fill="blue" stroke="blue" points="295.88,-281.59 292.38,-271.59 288.88,-281.59 295.88,-281.59"/>
</g>
<!-- markVisited -->
<g id="node12" class="node">
<title>markVisited</title>
<polygon fill="lightblue" stroke="black" points="302.5,-182 176.25,-182 176.25,-146 302.5,-146 302.5,-182"/>
<text text-anchor="middle" x="239.38" y="-158.57" font-family="Times New Roman,serif" font-size="14.00">标记边为已访问</text>
</g>
<!-- checkVisited&#45;&gt;markVisited -->
<g id="edge13" class="edge">
<title>checkVisited&#45;&gt;markVisited</title>
<path fill="none" stroke="blue" d="M282.65,-235.02C275.25,-223.04 264.87,-206.25 256.13,-192.11"/>
<polygon fill="blue" stroke="blue" points="259.16,-190.35 250.92,-183.69 253.2,-194.03 259.16,-190.35"/>
<text text-anchor="middle" x="278.5" y="-202.45" font-family="Times New Roman,serif" font-size="14.00">否</text>
</g>
<!-- checkVisited&#45;&gt;saveToFile -->
<g id="edge12" class="edge">
<title>checkVisited&#45;&gt;saveToFile</title>
<path fill="none" stroke="blue" d="M309.17,-236.2C323.83,-223.51 345.41,-204.82 362.78,-189.77"/>
<polygon fill="blue" stroke="blue" points="365.01,-192.47 370.28,-183.27 360.43,-187.17 365.01,-192.47"/>
<text text-anchor="middle" x="358.62" y="-202.45" font-family="Times New Roman,serif" font-size="14.00">是</text>
</g>
<!-- updateCurrent -->
<g id="node13" class="node">
<title>updateCurrent</title>
<polygon fill="lightblue" stroke="black" points="259.62,-109 149.12,-109 149.12,-73 259.62,-73 259.62,-109"/>
<text text-anchor="middle" x="204.38" y="-85.58" font-family="Times New Roman,serif" font-size="14.00">更新当前节点</text>
</g>
<!-- markVisited&#45;&gt;updateCurrent -->
<g id="edge14" class="edge">
<title>markVisited&#45;&gt;updateCurrent</title>
<path fill="none" stroke="blue" d="M230.9,-145.81C226.95,-137.79 222.14,-128.05 217.72,-119.07"/>
<polygon fill="blue" stroke="blue" points="221,-117.81 213.44,-110.39 214.72,-120.9 221,-117.81"/>
</g>
<!-- updateCurrent&#45;&gt;addToPath -->
<g id="edge15" class="edge">
<title>updateCurrent&#45;&gt;addToPath</title>
<path fill="none" stroke="blue" d="M179.98,-109.26C164.88,-122.12 148.38,-141.18 148.38,-163 148.38,-501.25 148.38,-501.25 148.38,-501.25 148.38,-521.89 163.26,-537.61 180.72,-548.94"/>
<polygon fill="blue" stroke="blue" points="178.91,-551.93 189.3,-554.01 182.47,-545.91 178.91,-551.93"/>
</g>
<!-- returnPath -->
<g id="node15" class="node">
<title>returnPath</title>
<polygon fill="lightblue" stroke="black" points="440.38,-109 298.38,-109 298.38,-73 440.38,-73 440.38,-109"/>
<text text-anchor="middle" x="369.38" y="-85.58" font-family="Times New Roman,serif" font-size="14.00">返回随机游走路径</text>
</g>
<!-- saveToFile&#45;&gt;returnPath -->
<g id="edge16" class="edge">
<title>saveToFile&#45;&gt;returnPath</title>
<path fill="none" stroke="blue" d="M386.05,-145.81C383.64,-138.05 380.74,-128.68 378.04,-119.95"/>
<polygon fill="blue" stroke="blue" points="381.4,-118.99 375.1,-110.47 374.72,-121.06 381.4,-118.99"/>
</g>
<!-- returnPath&#45;&gt;end -->
<g id="edge17" class="edge">
<title>returnPath&#45;&gt;end</title>
<path fill="none" stroke="blue" d="M308.64,-72.54C262.61,-59.31 200.75,-41.53 161.21,-30.16"/>
<polygon fill="blue" stroke="blue" points="162.23,-26.81 151.65,-27.41 160.29,-33.54 162.23,-26.81"/>
</g>
</g>
</svg>
