<?xml version="1.0" encoding="UTF-8" standalone="no"?>
<!DOCTYPE svg PUBLIC "-//W3C//DTD SVG 1.1//EN"
 "http://www.w3.org/Graphics/SVG/1.1/DTD/svg11.dtd">
<!-- Generated by graphviz version 12.2.1 (20241206.2353)
 -->
<!-- Title: ShortestPath Pages: 1 -->
<svg width="821pt" height="1130pt"
 viewBox="0.00 0.00 820.50 1130.25" xmlns="http://www.w3.org/2000/svg" xmlns:xlink="http://www.w3.org/1999/xlink">
<g id="graph0" class="graph" transform="scale(1 1) rotate(0) translate(4 1126.25)">
<title>ShortestPath</title>
<polygon fill="white" stroke="none" points="-4,4 -4,-1126.25 816.5,-1126.25 816.5,4 -4,4"/>
<!-- start -->
<g id="node1" class="node">
<title>start</title>
<ellipse fill="lightgreen" stroke="black" cx="282" cy="-1104.25" rx="31.6" ry="18"/>
<text text-anchor="middle" x="282" y="-1098.83" font-family="Times New Roman,serif" font-size="14.00">开始</text>
</g>
<!-- convertCase -->
<g id="node2" class="node">
<title>convertCase</title>
<polygon fill="lightblue" stroke="black" points="345.12,-1049.25 218.88,-1049.25 218.88,-1013.25 345.12,-1013.25 345.12,-1049.25"/>
<text text-anchor="middle" x="282" y="-1025.83" font-family="Times New Roman,serif" font-size="14.00">转换单词为小写</text>
</g>
<!-- start&#45;&gt;convertCase -->
<g id="edge1" class="edge">
<title>start&#45;&gt;convertCase</title>
<path fill="none" stroke="blue" d="M282,-1086.06C282,-1078.48 282,-1069.35 282,-1060.79"/>
<polygon fill="blue" stroke="blue" points="285.5,-1060.79 282,-1050.79 278.5,-1060.79 285.5,-1060.79"/>
</g>
<!-- checkWord1 -->
<g id="node3" class="node">
<title>checkWord1</title>
<polygon fill="lightyellow" stroke="black" points="282,-976.25 147.83,-958.25 282,-940.25 416.17,-958.25 282,-976.25"/>
<text text-anchor="middle" x="282" y="-953.58" font-family="Times New Roman,serif" font-size="14.00">word1是否在图中?</text>
</g>
<!-- convertCase&#45;&gt;checkWord1 -->
<g id="edge2" class="edge">
<title>convertCase&#45;&gt;checkWord1</title>
<path fill="none" stroke="blue" d="M282,-1013.06C282,-1005.48 282,-996.35 282,-987.79"/>
<polygon fill="blue" stroke="blue" points="285.5,-987.79 282,-977.79 278.5,-987.79 285.5,-987.79"/>
</g>
<!-- errorWord1 -->
<g id="node4" class="node">
<title>errorWord1</title>
<polygon fill="lightblue" stroke="black" points="204.62,-834.5 15.38,-834.5 15.38,-798.5 204.62,-798.5 204.62,-834.5"/>
<text text-anchor="middle" x="110" y="-811.08" font-family="Times New Roman,serif" font-size="14.00">返回：起始单词不在图中</text>
</g>
<!-- checkWord1&#45;&gt;errorWord1 -->
<g id="edge3" class="edge">
<title>checkWord1&#45;&gt;errorWord1</title>
<path fill="none" stroke="blue" d="M263.59,-942.29C234.03,-918.28 175.69,-870.87 140.04,-841.9"/>
<polygon fill="blue" stroke="blue" points="142.63,-839.5 132.67,-835.92 138.22,-844.94 142.63,-839.5"/>
<text text-anchor="middle" x="246.37" y="-908.95" font-family="Times New Roman,serif" font-size="14.00">否</text>
</g>
<!-- checkWord2Null -->
<g id="node5" class="node">
<title>checkWord2Null</title>
<polygon fill="lightyellow" stroke="black" points="491,-888.5 367.24,-870.5 491,-852.5 614.76,-870.5 491,-888.5"/>
<text text-anchor="middle" x="491" y="-865.83" font-family="Times New Roman,serif" font-size="14.00">word2是否为null?</text>
</g>
<!-- checkWord1&#45;&gt;checkWord2Null -->
<g id="edge4" class="edge">
<title>checkWord1&#45;&gt;checkWord2Null</title>
<path fill="none" stroke="blue" d="M313.74,-944.23C349.94,-929.38 409.24,-905.04 449.18,-888.66"/>
<polygon fill="blue" stroke="blue" points="450.32,-891.97 458.24,-884.94 447.66,-885.5 450.32,-891.97"/>
<text text-anchor="middle" x="413.09" y="-908.95" font-family="Times New Roman,serif" font-size="14.00">是</text>
</g>
<!-- end -->
<g id="node20" class="node">
<title>end</title>
<ellipse fill="lightgreen" stroke="black" cx="532" cy="-18" rx="31.6" ry="18"/>
<text text-anchor="middle" x="532" y="-12.57" font-family="Times New Roman,serif" font-size="14.00">结束</text>
</g>
<!-- errorWord1&#45;&gt;end -->
<g id="edge21" class="edge">
<title>errorWord1&#45;&gt;end</title>
<path fill="none" stroke="blue" d="M71.84,-798.05C40.07,-780.6 0,-750.48 0,-709.5 0,-709.5 0,-709.5 0,-91.75 0,-42.48 362.78,-24.97 489.18,-20.37"/>
<polygon fill="blue" stroke="blue" points="488.93,-23.88 498.8,-20.03 488.68,-16.88 488.93,-23.88"/>
</g>
<!-- calcToAny -->
<g id="node6" class="node">
<title>calcToAny</title>
<polygon fill="lightblue" stroke="black" points="812.5,-726.5 607.5,-726.5 607.5,-690.5 812.5,-690.5 812.5,-726.5"/>
<text text-anchor="middle" x="710" y="-703.08" font-family="Times New Roman,serif" font-size="14.00">计算到任意单词的最短路径</text>
</g>
<!-- checkWord2Null&#45;&gt;calcToAny -->
<g id="edge5" class="edge">
<title>checkWord2Null&#45;&gt;calcToAny</title>
<path fill="none" stroke="blue" d="M516.25,-855.78C545.61,-839.38 595.01,-810.39 634,-780.5 652.21,-766.54 671.06,-748.95 685.44,-734.77"/>
<polygon fill="blue" stroke="blue" points="687.68,-737.48 692.28,-727.93 682.73,-732.53 687.68,-737.48"/>
<text text-anchor="middle" x="615.25" y="-811.08" font-family="Times New Roman,serif" font-size="14.00">是</text>
</g>
<!-- checkWord2 -->
<g id="node7" class="node">
<title>checkWord2</title>
<polygon fill="lightyellow" stroke="black" points="491,-780.5 356.83,-762.5 491,-744.5 625.17,-762.5 491,-780.5"/>
<text text-anchor="middle" x="491" y="-757.83" font-family="Times New Roman,serif" font-size="14.00">word2是否在图中?</text>
</g>
<!-- checkWord2Null&#45;&gt;checkWord2 -->
<g id="edge6" class="edge">
<title>checkWord2Null&#45;&gt;checkWord2</title>
<path fill="none" stroke="blue" d="M491,-852C491,-835.71 491,-811.15 491,-792.03"/>
<polygon fill="blue" stroke="blue" points="494.5,-792.19 491,-782.19 487.5,-792.19 494.5,-792.19"/>
<text text-anchor="middle" x="498.88" y="-811.08" font-family="Times New Roman,serif" font-size="14.00">否</text>
</g>
<!-- calcToAny&#45;&gt;end -->
<g id="edge25" class="edge">
<title>calcToAny&#45;&gt;end</title>
<path fill="none" stroke="blue" d="M710,-690.3C710,-661.7 710,-602.55 710,-552.5 710,-552.5 710,-552.5 710,-91.75 710,-33.71 627.91,-20.95 575.22,-18.74"/>
<polygon fill="blue" stroke="blue" points="575.43,-15.24 565.34,-18.45 575.23,-22.24 575.43,-15.24"/>
</g>
<!-- errorWord2 -->
<g id="node8" class="node">
<title>errorWord2</title>
<polygon fill="lightblue" stroke="black" points="694.62,-569.5 505.38,-569.5 505.38,-533.5 694.62,-533.5 694.62,-569.5"/>
<text text-anchor="middle" x="600" y="-546.08" font-family="Times New Roman,serif" font-size="14.00">返回：目标单词不在图中</text>
</g>
<!-- checkWord2&#45;&gt;errorWord2 -->
<g id="edge7" class="edge">
<title>checkWord2&#45;&gt;errorWord2</title>
<path fill="none" stroke="blue" d="M507.93,-746.45C525.46,-729.97 552.42,-701.93 568,-672.5 583.43,-643.35 591.85,-606.19 596.12,-581"/>
<polygon fill="blue" stroke="blue" points="599.57,-581.6 597.66,-571.18 592.65,-580.52 599.57,-581.6"/>
<text text-anchor="middle" x="563.9" y="-703.08" font-family="Times New Roman,serif" font-size="14.00">否</text>
</g>
<!-- checkSame -->
<g id="node9" class="node">
<title>checkSame</title>
<polygon fill="lightyellow" stroke="black" points="458,-672.5 357.25,-630 458,-587.5 558.75,-630 458,-672.5"/>
<text text-anchor="middle" x="458" y="-633.95" font-family="Times New Roman,serif" font-size="14.00">word1和word2</text>
<text text-anchor="middle" x="458" y="-616.7" font-family="Times New Roman,serif" font-size="14.00">是否相同?</text>
</g>
<!-- checkWord2&#45;&gt;checkSame -->
<g id="edge8" class="edge">
<title>checkWord2&#45;&gt;checkSame</title>
<path fill="none" stroke="blue" d="M486.75,-744.71C482.61,-728.32 476.1,-702.59 470.33,-679.75"/>
<polygon fill="blue" stroke="blue" points="473.78,-679.13 467.94,-670.29 466.99,-680.84 473.78,-679.13"/>
<text text-anchor="middle" x="489.12" y="-703.08" font-family="Times New Roman,serif" font-size="14.00">是</text>
</g>
<!-- errorWord2&#45;&gt;end -->
<g id="edge22" class="edge">
<title>errorWord2&#45;&gt;end</title>
<path fill="none" stroke="blue" d="M613.14,-533.24C627.95,-512.02 650,-474.33 650,-438 650,-438 650,-438 650,-91.75 650,-54.67 607.25,-35.87 573.22,-26.78"/>
<polygon fill="blue" stroke="blue" points="574.1,-23.39 563.55,-24.42 572.43,-30.19 574.1,-23.39"/>
</g>
<!-- returnSame -->
<g id="node10" class="node">
<title>returnSame</title>
<polygon fill="lightblue" stroke="black" points="602.75,-455 429.25,-455 429.25,-419 602.75,-419 602.75,-455"/>
<text text-anchor="middle" x="516" y="-431.57" font-family="Times New Roman,serif" font-size="14.00">返回：相同单词的路径</text>
</g>
<!-- checkSame&#45;&gt;returnSame -->
<g id="edge9" class="edge">
<title>checkSame&#45;&gt;returnSame</title>
<path fill="none" stroke="blue" d="M465.76,-590.59C469.61,-573.05 474.63,-552.08 480.25,-533.5 487.24,-510.38 496.94,-484.77 504.47,-465.9"/>
<polygon fill="blue" stroke="blue" points="507.65,-467.35 508.15,-456.77 501.16,-464.73 507.65,-467.35"/>
<text text-anchor="middle" x="488.12" y="-546.08" font-family="Times New Roman,serif" font-size="14.00">是</text>
</g>
<!-- initDijkstra -->
<g id="node11" class="node">
<title>initDijkstra</title>
<polygon fill="lightblue" stroke="black" points="457,-515.5 243,-515.5 243,-473 457,-473 457,-515.5"/>
<text text-anchor="middle" x="350" y="-498.2" font-family="Times New Roman,serif" font-size="14.00">初始化Dijkstra算法</text>
<text text-anchor="middle" x="350" y="-480.95" font-family="Times New Roman,serif" font-size="14.00">(距离、前驱列表、访问状态)</text>
</g>
<!-- checkSame&#45;&gt;initDijkstra -->
<g id="edge10" class="edge">
<title>checkSame&#45;&gt;initDijkstra</title>
<path fill="none" stroke="blue" d="M432.68,-597.64C414.79,-575.48 390.97,-545.99 373.5,-524.35"/>
<polygon fill="blue" stroke="blue" points="376.39,-522.36 367.39,-516.78 370.95,-526.76 376.39,-522.36"/>
<text text-anchor="middle" x="415.11" y="-546.08" font-family="Times New Roman,serif" font-size="14.00">否</text>
</g>
<!-- returnSame&#45;&gt;end -->
<g id="edge23" class="edge">
<title>returnSame&#45;&gt;end</title>
<path fill="none" stroke="blue" d="M551.47,-418.63C578.82,-402.48 612,-375.58 612,-340.12 612,-340.12 612,-340.12 612,-91.75 612,-65.82 588.71,-46.69 567.26,-34.58"/>
<polygon fill="blue" stroke="blue" points="569.13,-31.6 558.65,-30.05 565.88,-37.8 569.13,-31.6"/>
</g>
<!-- dijkstraLoop -->
<g id="node12" class="node">
<title>dijkstraLoop</title>
<polygon fill="lightblue" stroke="black" points="403.38,-401 296.62,-401 296.62,-365 403.38,-365 403.38,-401"/>
<text text-anchor="middle" x="350" y="-378.32" font-family="Times New Roman,serif" font-size="14.00">Dijkstra主循环</text>
</g>
<!-- initDijkstra&#45;&gt;dijkstraLoop -->
<g id="edge11" class="edge">
<title>initDijkstra&#45;&gt;dijkstraLoop</title>
<path fill="none" stroke="blue" d="M350,-472.7C350,-455.77 350,-431.56 350,-412.71"/>
<polygon fill="blue" stroke="blue" points="353.5,-412.74 350,-402.74 346.5,-412.74 353.5,-412.74"/>
</g>
<!-- findMinNode -->
<g id="node13" class="node">
<title>findMinNode</title>
<polygon fill="lightblue" stroke="black" points="583.5,-313.25 378.5,-313.25 378.5,-277.25 583.5,-277.25 583.5,-313.25"/>
<text text-anchor="middle" x="481" y="-289.82" font-family="Times New Roman,serif" font-size="14.00">找到距离最小的未访问节点</text>
</g>
<!-- dijkstraLoop&#45;&gt;findMinNode -->
<g id="edge12" class="edge">
<title>dijkstraLoop&#45;&gt;findMinNode</title>
<path fill="none" stroke="blue" d="M376.51,-364.65C396.22,-351.75 423.33,-334 445,-319.81"/>
<polygon fill="blue" stroke="blue" points="446.81,-322.81 453.26,-314.41 442.98,-316.95 446.81,-322.81"/>
</g>
<!-- checkNoPath -->
<g id="node16" class="node">
<title>checkNoPath</title>
<polygon fill="lightyellow" stroke="black" points="175,-313.25 28.18,-295.25 175,-277.25 321.82,-295.25 175,-313.25"/>
<text text-anchor="middle" x="175" y="-290.57" font-family="Times New Roman,serif" font-size="14.00">是否无法到达终点?</text>
</g>
<!-- dijkstraLoop&#45;&gt;checkNoPath -->
<g id="edge16" class="edge">
<title>dijkstraLoop&#45;&gt;checkNoPath</title>
<path fill="none" stroke="blue" d="M314.59,-364.65C285.28,-350.29 243.72,-329.93 213.58,-315.15"/>
<polygon fill="blue" stroke="blue" points="215.31,-312.11 204.79,-310.85 212.23,-318.39 215.31,-312.11"/>
<text text-anchor="middle" x="293.92" y="-333.7" font-family="Times New Roman,serif" font-size="14.00">完成</text>
</g>
<!-- markVisited -->
<g id="node14" class="node">
<title>markVisited</title>
<polygon fill="lightblue" stroke="black" points="535,-223 393,-223 393,-187 535,-187 535,-223"/>
<text text-anchor="middle" x="464" y="-199.57" font-family="Times New Roman,serif" font-size="14.00">标记节点为已访问</text>
</g>
<!-- findMinNode&#45;&gt;markVisited -->
<g id="edge13" class="edge">
<title>findMinNode&#45;&gt;markVisited</title>
<path fill="none" stroke="blue" d="M477.64,-276.81C475.31,-264.73 472.16,-248.36 469.47,-234.41"/>
<polygon fill="blue" stroke="blue" points="472.97,-234.04 467.64,-224.89 466.09,-235.37 472.97,-234.04"/>
</g>
<!-- updateNeighbors -->
<g id="node15" class="node">
<title>updateNeighbors</title>
<polygon fill="lightblue" stroke="black" points="530.88,-112.5 373.12,-112.5 373.12,-73 530.88,-73 530.88,-112.5"/>
<text text-anchor="middle" x="452" y="-95.2" font-family="Times New Roman,serif" font-size="14.00">更新相邻节点的距离</text>
<text text-anchor="middle" x="452" y="-79.45" font-family="Times New Roman,serif" font-size="14.00">记录多条等长路径</text>
</g>
<!-- markVisited&#45;&gt;updateNeighbors -->
<g id="edge14" class="edge">
<title>markVisited&#45;&gt;updateNeighbors</title>
<path fill="none" stroke="blue" d="M462.12,-186.77C460.3,-170.04 457.5,-144.29 455.31,-124.12"/>
<polygon fill="blue" stroke="blue" points="458.79,-123.77 454.23,-114.21 451.83,-124.53 458.79,-123.77"/>
</g>
<!-- updateNeighbors&#45;&gt;dijkstraLoop -->
<g id="edge15" class="edge">
<title>updateNeighbors&#45;&gt;dijkstraLoop</title>
<path fill="none" stroke="blue" d="M433.31,-112.91C417.59,-130.18 395.84,-157.02 384,-184.5 359.66,-240.99 352.73,-313.65 350.76,-353.2"/>
<polygon fill="blue" stroke="blue" points="347.27,-352.94 350.35,-363.08 354.26,-353.23 347.27,-352.94"/>
<text text-anchor="middle" x="380.72" y="-245.95" font-family="Times New Roman,serif" font-size="14.00">继续</text>
</g>
<!-- returnNoPath -->
<g id="node17" class="node">
<title>returnNoPath</title>
<polygon fill="lightblue" stroke="black" points="230.25,-166.5 119.75,-166.5 119.75,-130.5 230.25,-130.5 230.25,-166.5"/>
<text text-anchor="middle" x="175" y="-143.07" font-family="Times New Roman,serif" font-size="14.00">返回：无路径</text>
</g>
<!-- checkNoPath&#45;&gt;returnNoPath -->
<g id="edge17" class="edge">
<title>checkNoPath&#45;&gt;returnNoPath</title>
<path fill="none" stroke="blue" d="M175,-276.79C175,-252.21 175,-207.11 175,-177.73"/>
<polygon fill="blue" stroke="blue" points="178.5,-178.09 175,-168.09 171.5,-178.09 178.5,-178.09"/>
<text text-anchor="middle" x="182.88" y="-245.95" font-family="Times New Roman,serif" font-size="14.00">是</text>
</g>
<!-- findAllPaths -->
<g id="node18" class="node">
<title>findAllPaths</title>
<polygon fill="lightblue" stroke="black" points="318.25,-225.5 207.75,-225.5 207.75,-184.5 318.25,-184.5 318.25,-225.5"/>
<text text-anchor="middle" x="263" y="-208.2" font-family="Times New Roman,serif" font-size="14.00">使用DFS找出</text>
<text text-anchor="middle" x="263" y="-190.95" font-family="Times New Roman,serif" font-size="14.00">所有最短路径</text>
</g>
<!-- checkNoPath&#45;&gt;findAllPaths -->
<g id="edge18" class="edge">
<title>checkNoPath&#45;&gt;findAllPaths</title>
<path fill="none" stroke="blue" d="M190.33,-278.88C202.71,-266.46 220.46,-248.66 235.31,-233.77"/>
<polygon fill="blue" stroke="blue" points="237.57,-236.46 242.15,-226.91 232.61,-231.52 237.57,-236.46"/>
<text text-anchor="middle" x="232.14" y="-245.95" font-family="Times New Roman,serif" font-size="14.00">否</text>
</g>
<!-- returnNoPath&#45;&gt;end -->
<g id="edge24" class="edge">
<title>returnNoPath&#45;&gt;end</title>
<path fill="none" stroke="blue" d="M176.6,-130.16C179.16,-112.94 185.8,-87.11 203,-73 245.99,-37.73 409.78,-24.99 488.82,-20.82"/>
<polygon fill="blue" stroke="blue" points="488.97,-24.32 498.78,-20.32 488.62,-17.33 488.97,-24.32"/>
</g>
<!-- formatResult -->
<g id="node19" class="node">
<title>formatResult</title>
<polygon fill="lightblue" stroke="black" points="354,-110.75 212,-110.75 212,-74.75 354,-74.75 354,-110.75"/>
<text text-anchor="middle" x="283" y="-87.33" font-family="Times New Roman,serif" font-size="14.00">格式化结果字符串</text>
</g>
<!-- findAllPaths&#45;&gt;formatResult -->
<g id="edge19" class="edge">
<title>findAllPaths&#45;&gt;formatResult</title>
<path fill="none" stroke="blue" d="M266.62,-184.03C269.75,-166.77 274.32,-141.6 277.83,-122.23"/>
<polygon fill="blue" stroke="blue" points="281.25,-122.98 279.6,-112.52 274.37,-121.73 281.25,-122.98"/>
</g>
<!-- formatResult&#45;&gt;end -->
<g id="edge20" class="edge">
<title>formatResult&#45;&gt;end</title>
<path fill="none" stroke="blue" d="M342.64,-74.32C389.36,-60.68 452.98,-42.09 493.28,-30.31"/>
<polygon fill="blue" stroke="blue" points="494.17,-33.7 502.79,-27.54 492.21,-26.98 494.17,-33.7"/>
</g>
</g>
</svg>
