<?xml version="1.0" encoding="UTF-8" standalone="no"?>
<!DOCTYPE svg PUBLIC "-//W3C//DTD SVG 1.1//EN"
 "http://www.w3.org/Graphics/SVG/1.1/DTD/svg11.dtd">
<!-- Generated by graphviz version 12.2.1 (20241206.2353)
 -->
<!-- Title: ShowGraph Pages: 1 -->
<svg width="377pt" height="740pt"
 viewBox="0.00 0.00 377.20 740.00" xmlns="http://www.w3.org/2000/svg" xmlns:xlink="http://www.w3.org/1999/xlink">
<g id="graph0" class="graph" transform="scale(1 1) rotate(0) translate(4 736)">
<title>ShowGraph</title>
<polygon fill="white" stroke="none" points="-4,4 -4,-736 373.2,-736 373.2,4 -4,4"/>
<!-- start -->
<g id="node1" class="node">
<title>start</title>
<ellipse fill="lightgreen" stroke="black" cx="99.95" cy="-714" rx="31.6" ry="18"/>
<text text-anchor="middle" x="99.95" y="-708.58" font-family="Times New Roman,serif" font-size="14.00">开始</text>
</g>
<!-- checkEmpty -->
<g id="node2" class="node">
<title>checkEmpty</title>
<polygon fill="lightyellow" stroke="black" points="99.95,-659 0,-641 99.95,-623 199.9,-641 99.95,-659"/>
<text text-anchor="middle" x="99.95" y="-636.33" font-family="Times New Roman,serif" font-size="14.00">图是否为空?</text>
</g>
<!-- start&#45;&gt;checkEmpty -->
<g id="edge1" class="edge">
<title>start&#45;&gt;checkEmpty</title>
<path fill="none" stroke="blue" d="M99.95,-695.81C99.95,-688.23 99.95,-679.1 99.95,-670.54"/>
<polygon fill="blue" stroke="blue" points="103.45,-670.54 99.95,-660.54 96.45,-670.54 103.45,-670.54"/>
</g>
<!-- showError -->
<g id="node3" class="node">
<title>showError</title>
<polygon fill="lightblue" stroke="black" points="129.2,-517.25 18.7,-517.25 18.7,-481.25 129.2,-481.25 129.2,-517.25"/>
<text text-anchor="middle" x="73.95" y="-493.82" font-family="Times New Roman,serif" font-size="14.00">显示错误信息</text>
</g>
<!-- checkEmpty&#45;&gt;showError -->
<g id="edge2" class="edge">
<title>checkEmpty&#45;&gt;showError</title>
<path fill="none" stroke="blue" d="M96.81,-623.14C92.46,-599.77 84.54,-557.19 79.26,-528.8"/>
<polygon fill="blue" stroke="blue" points="82.72,-528.28 77.45,-519.09 75.84,-529.56 82.72,-528.28"/>
<text text-anchor="middle" x="101.25" y="-591.7" font-family="Times New Roman,serif" font-size="14.00">是</text>
</g>
<!-- showNodes -->
<g id="node4" class="node">
<title>showNodes</title>
<polygon fill="lightblue" stroke="black" points="223.2,-571.25 112.7,-571.25 112.7,-535.25 223.2,-535.25 223.2,-571.25"/>
<text text-anchor="middle" x="167.95" y="-547.83" font-family="Times New Roman,serif" font-size="14.00">显示图中节点</text>
</g>
<!-- checkEmpty&#45;&gt;showNodes -->
<g id="edge3" class="edge">
<title>checkEmpty&#45;&gt;showNodes</title>
<path fill="none" stroke="blue" d="M111.79,-625.06C121.56,-612.75 135.65,-594.98 147.27,-580.32"/>
<polygon fill="blue" stroke="blue" points="149.72,-582.87 153.19,-572.86 144.23,-578.52 149.72,-582.87"/>
<text text-anchor="middle" x="147.91" y="-591.7" font-family="Times New Roman,serif" font-size="14.00">否</text>
</g>
<!-- end -->
<g id="node11" class="node">
<title>end</title>
<ellipse fill="lightgreen" stroke="black" cx="163.95" cy="-18" rx="31.6" ry="18"/>
<text text-anchor="middle" x="163.95" y="-12.57" font-family="Times New Roman,serif" font-size="14.00">结束</text>
</g>
<!-- showError&#45;&gt;end -->
<g id="edge12" class="edge">
<title>showError&#45;&gt;end</title>
<path fill="none" stroke="blue" d="M69.28,-481C64.88,-463.18 58.95,-434.48 58.95,-409.25 58.95,-409.25 58.95,-409.25 58.95,-90 58.95,-57.41 94.08,-38.77 123.7,-28.84"/>
<polygon fill="blue" stroke="blue" points="124.73,-32.19 133.25,-25.9 122.67,-25.5 124.73,-32.19"/>
</g>
<!-- showEdges -->
<g id="node5" class="node">
<title>showEdges</title>
<polygon fill="lightblue" stroke="black" points="217.32,-463.25 122.57,-463.25 122.57,-427.25 217.32,-427.25 217.32,-463.25"/>
<text text-anchor="middle" x="169.95" y="-439.82" font-family="Times New Roman,serif" font-size="14.00">显示图中边</text>
</g>
<!-- showNodes&#45;&gt;showEdges -->
<g id="edge4" class="edge">
<title>showNodes&#45;&gt;showEdges</title>
<path fill="none" stroke="blue" d="M168.27,-535.22C168.58,-519.01 169.04,-494.31 169.41,-475.04"/>
<polygon fill="blue" stroke="blue" points="172.9,-475.17 169.59,-465.1 165.9,-475.04 172.9,-475.17"/>
</g>
<!-- generateDot -->
<g id="node6" class="node">
<title>generateDot</title>
<polygon fill="lightblue" stroke="black" points="224.32,-390.25 117.57,-390.25 117.57,-354.25 224.32,-354.25 224.32,-390.25"/>
<text text-anchor="middle" x="170.95" y="-367.57" font-family="Times New Roman,serif" font-size="14.00">生成DOT文件</text>
</g>
<!-- showEdges&#45;&gt;generateDot -->
<g id="edge5" class="edge">
<title>showEdges&#45;&gt;generateDot</title>
<path fill="none" stroke="blue" d="M170.19,-427.06C170.3,-419.48 170.43,-410.35 170.55,-401.79"/>
<polygon fill="blue" stroke="blue" points="174.05,-401.84 170.69,-391.79 167.05,-401.74 174.05,-401.84"/>
</g>
<!-- runGraphviz -->
<g id="node7" class="node">
<title>runGraphviz</title>
<polygon fill="lightblue" stroke="black" points="219.82,-317.25 122.07,-317.25 122.07,-281.25 219.82,-281.25 219.82,-317.25"/>
<text text-anchor="middle" x="170.95" y="-294.57" font-family="Times New Roman,serif" font-size="14.00">运行Graphviz</text>
</g>
<!-- generateDot&#45;&gt;runGraphviz -->
<g id="edge6" class="edge">
<title>generateDot&#45;&gt;runGraphviz</title>
<path fill="none" stroke="blue" d="M170.95,-354.06C170.95,-346.48 170.95,-337.35 170.95,-328.79"/>
<polygon fill="blue" stroke="blue" points="174.45,-328.79 170.95,-318.79 167.45,-328.79 174.45,-328.79"/>
</g>
<!-- checkSuccess -->
<g id="node8" class="node">
<title>checkSuccess</title>
<polygon fill="lightyellow" stroke="black" points="171.95,-244.25 86.95,-202.5 171.95,-160.75 256.95,-202.5 171.95,-244.25"/>
<text text-anchor="middle" x="171.95" y="-206.07" font-family="Times New Roman,serif" font-size="14.00">Graphviz</text>
<text text-anchor="middle" x="171.95" y="-189.57" font-family="Times New Roman,serif" font-size="14.00">执行成功?</text>
</g>
<!-- runGraphviz&#45;&gt;checkSuccess -->
<g id="edge7" class="edge">
<title>runGraphviz&#45;&gt;checkSuccess</title>
<path fill="none" stroke="blue" d="M171.13,-280.87C171.21,-273.66 171.3,-264.87 171.4,-255.84"/>
<polygon fill="blue" stroke="blue" points="174.9,-255.92 171.5,-245.88 167.9,-255.85 174.9,-255.92"/>
</g>
<!-- showImage -->
<g id="node9" class="node">
<title>showImage</title>
<polygon fill="lightblue" stroke="black" points="240.57,-109 87.32,-109 87.32,-73 240.57,-73 240.57,-109"/>
<text text-anchor="middle" x="163.95" y="-86.33" font-family="Times New Roman,serif" font-size="14.00">显示生成的SVG图像</text>
</g>
<!-- checkSuccess&#45;&gt;showImage -->
<g id="edge8" class="edge">
<title>checkSuccess&#45;&gt;showImage</title>
<path fill="none" stroke="blue" d="M169.04,-161.66C168.04,-148.03 166.95,-133.08 166.03,-120.53"/>
<polygon fill="blue" stroke="blue" points="169.55,-120.58 165.33,-110.86 162.56,-121.09 169.55,-120.58"/>
<text text-anchor="middle" x="175.34" y="-129.45" font-family="Times New Roman,serif" font-size="14.00">是</text>
</g>
<!-- showErrorInfo -->
<g id="node10" class="node">
<title>showErrorInfo</title>
<polygon fill="lightblue" stroke="black" points="369.2,-109 258.7,-109 258.7,-73 369.2,-73 369.2,-109"/>
<text text-anchor="middle" x="313.95" y="-85.58" font-family="Times New Roman,serif" font-size="14.00">显示错误信息</text>
</g>
<!-- checkSuccess&#45;&gt;showErrorInfo -->
<g id="edge9" class="edge">
<title>checkSuccess&#45;&gt;showErrorInfo</title>
<path fill="none" stroke="blue" d="M204.53,-176.38C227.99,-158.29 259.46,-134.02 282.63,-116.15"/>
<polygon fill="blue" stroke="blue" points="284.71,-118.97 290.49,-110.09 280.43,-113.43 284.71,-118.97"/>
<text text-anchor="middle" x="275.89" y="-129.45" font-family="Times New Roman,serif" font-size="14.00">否</text>
</g>
<!-- showImage&#45;&gt;end -->
<g id="edge10" class="edge">
<title>showImage&#45;&gt;end</title>
<path fill="none" stroke="blue" d="M163.95,-72.81C163.95,-65.23 163.95,-56.1 163.95,-47.54"/>
<polygon fill="blue" stroke="blue" points="167.45,-47.54 163.95,-37.54 160.45,-47.54 167.45,-47.54"/>
</g>
<!-- showErrorInfo&#45;&gt;end -->
<g id="edge11" class="edge">
<title>showErrorInfo&#45;&gt;end</title>
<path fill="none" stroke="blue" d="M277.25,-72.63C253.04,-61.17 221.53,-46.26 197.89,-35.07"/>
<polygon fill="blue" stroke="blue" points="199.54,-31.98 189.01,-30.86 196.55,-38.3 199.54,-31.98"/>
</g>
</g>
</svg>
